<?xml version="1.0" encoding="utf-8"?>
<svg version="1.1" xmlns:xlink="http://www.w3.org/1999/xlink" width="27px" height="14px" xmlns="http://www.w3.org/2000/svg">
  <defs>
    <pattern id="BGPattern" patternUnits="userSpaceOnUse" alignment="0 0" imageRepeat="None" />
    <mask fill="white" id="Clip29">
      <path d="M 6.400714415959155 11.429233420885724  C 9.14007239329746 13.110544270096138  12.294892721642492 14.000595844900499  15.512886198888028 14  C 20.19980941976596 14  24.128976592940454 12.451960253842211  27 9.81277596023951  C 27 9.81277596023951  21.39078464993378 5.475253250964808  21.39078464993378 5.475253250964808  C 19.83602434276611 6.512290331134371  17.848045752851906 7.12549709572116  15.512886198888028 7.12549709572116  C 10.990495820510686 7.12549709572116  7.163973407939271 4.085024241142935  5.79940706594412 0  C 5.79940706594412 0  0 0  0 0  C 0 0  0 4.478798585306247  0 4.478798585306247  C 1.4452987443137832 7.3415410415270665  3.6613564386208486 9.747922571675309  6.400714415959155 11.429233420885724  Z " fill-rule="evenodd" />
    </mask>
  </defs>
  <g transform="matrix(1 0 0 1 -4 -21 )">
    <path d="M 6.400714415959155 11.429233420885724  C 9.14007239329746 13.110544270096138  12.294892721642492 14.000595844900499  15.512886198888028 14  C 20.19980941976596 14  24.128976592940454 12.451960253842211  27 9.81277596023951  C 27 9.81277596023951  21.39078464993378 5.475253250964808  21.39078464993378 5.475253250964808  C 19.83602434276611 6.512290331134371  17.848045752851906 7.12549709572116  15.512886198888028 7.12549709572116  C 10.990495820510686 7.12549709572116  7.163973407939271 4.085024241142935  5.79940706594412 0  C 5.79940706594412 0  0 0  0 0  C 0 0  0 4.478798585306247  0 4.478798585306247  C 1.4452987443137832 7.3415410415270665  3.6613564386208486 9.747922571675309  6.400714415959155 11.429233420885724  Z " fill-rule="nonzero" fill="rgba(52, 168, 83, 1)" stroke="none" transform="matrix(1 0 0 1 4 21 )" class="fill" />
    <path d="M 6.400714415959155 11.429233420885724  C 9.14007239329746 13.110544270096138  12.294892721642492 14.000595844900499  15.512886198888028 14  C 20.19980941976596 14  24.128976592940454 12.451960253842211  27 9.81277596023951  C 27 9.81277596023951  21.39078464993378 5.475253250964808  21.39078464993378 5.475253250964808  C 19.83602434276611 6.512290331134371  17.848045752851906 7.12549709572116  15.512886198888028 7.12549709572116  C 10.990495820510686 7.12549709572116  7.163973407939271 4.085024241142935  5.79940706594412 0  C 5.79940706594412 0  0 0  0 0  C 0 0  0 4.478798585306247  0 4.478798585306247  C 1.4452987443137832 7.3415410415270665  3.6613564386208486 9.747922571675309  6.400714415959155 11.429233420885724  Z " stroke-width="0" stroke-dasharray="0" stroke="rgba(121, 121, 121, 1)" fill="none" transform="matrix(1 0 0 1 4 21 )" class="stroke" mask="url(#Clip29)" />
  </g>
</svg>