<?xml version="1.0" encoding="utf-8"?>
<svg version="1.1" xmlns:xlink="http://www.w3.org/1999/xlink" width="8px" height="16px" xmlns="http://www.w3.org/2000/svg">
  <defs>
    <pattern id="BGPattern" patternUnits="userSpaceOnUse" alignment="0 0" imageRepeat="None" />
    <mask fill="white" id="Clip30">
      <path d="M 1.93168906608378 16  C 1.93168906608378 16  8 11.384317145705635  8 11.384317145705635  C 7.62589734098143 10.293588751850917  7.433888925873737 9.150767957025758  7.431391807835699 7.999999261433312  C 7.4313918078356975 6.825943188896463  7.636722672034857 5.684413131678777  8 4.615681377160988  C 8 4.615681377160988  8 0  8 0  C 8 0  1.93168906608378 0  1.93168906608378 0  C 0.660467439654222 2.482472012246174  -0.0010469125421869918 5.222104082325814  0 7.999999261433312  C 0 10.874732719639809  0.7012845981063779 13.594579142082782  1.93168906608378 16  Z " fill-rule="evenodd" />
    </mask>
  </defs>
  <g transform="matrix(1 0 0 1 -2 -10 )">
    <path d="M 1.93168906608378 16  C 1.93168906608378 16  8 11.384317145705635  8 11.384317145705635  C 7.62589734098143 10.293588751850917  7.433888925873737 9.150767957025758  7.431391807835699 7.999999261433312  C 7.4313918078356975 6.825943188896463  7.636722672034857 5.684413131678777  8 4.615681377160988  C 8 4.615681377160988  8 0  8 0  C 8 0  1.93168906608378 0  1.93168906608378 0  C 0.660467439654222 2.482472012246174  -0.0010469125421869918 5.222104082325814  0 7.999999261433312  C 0 10.874732719639809  0.7012845981063779 13.594579142082782  1.93168906608378 16  Z " fill-rule="nonzero" fill="rgba(251, 188, 5, 1)" stroke="none" transform="matrix(1 0 0 1 2 10 )" class="fill" />
    <path d="M 1.93168906608378 16  C 1.93168906608378 16  8 11.384317145705635  8 11.384317145705635  C 7.62589734098143 10.293588751850917  7.433888925873737 9.150767957025758  7.431391807835699 7.999999261433312  C 7.4313918078356975 6.825943188896463  7.636722672034857 5.684413131678777  8 4.615681377160988  C 8 4.615681377160988  8 0  8 0  C 8 0  1.93168906608378 0  1.93168906608378 0  C 0.660467439654222 2.482472012246174  -0.0010469125421869918 5.222104082325814  0 7.999999261433312  C 0 10.874732719639809  0.7012845981063779 13.594579142082782  1.93168906608378 16  Z " stroke-width="0" stroke-dasharray="0" stroke="rgba(121, 121, 121, 1)" fill="none" transform="matrix(1 0 0 1 2 10 )" class="stroke" mask="url(#Clip30)" />
  </g>
</svg>