<?xml version="1.0" encoding="utf-8"?>
<svg version="1.1" xmlns:xlink="http://www.w3.org/1999/xlink" width="27px" height="32px" xmlns="http://www.w3.org/2000/svg">
  <defs>
    <pattern id="BGPattern" patternUnits="userSpaceOnUse" alignment="0 0" imageRepeat="None" />
    <mask fill="white" id="Clip31">
      <path d="M 27 23.45462655232256  C 26.823686547641937 23.96876481487716  26.63668858808469 24.463169696821154  26.43579809890155 24.937840912049495  C 25.966997575603532 26.02395395463461  25.38972445498742 27.060131747561122  24.712733582279423 28.030668554069898  C 23.806589331432665 29.321347661601433  23.06660977492436 30.214158976560274  22.492789610435487 30.70909706295046  C 21.605879497937583 31.522971612942975  20.654854317113113 31.941106512118125  19.63971626531951 31.963506728570902  C 18.908816858474385 31.963506728570902  18.02992026968178 31.75443775159959  17.003027979769534 31.33630036986707  C 15.977204274329393 30.918162988134554  15.031523831073786 30.70909706295046  14.165985025868949 30.70909706295046  C 13.25984077502219 30.70909706295046  12.28744428690465 30.918162988134554  11.248797758873758 31.33630036986707  C 10.208014061898648 31.756571093910264  9.36758670517654 31.97684004350609  8.727515449864242 31.997106905727147  C 7.750845770305621 32.03977398440098  6.778450810784554 31.610439076838187  5.810329711465527 30.70909706295046  C 5.19056122674283 30.170425196928495  4.4158508596826564 29.24614685638738  3.4861981325986107 27.936267620375602  C 2.4913628036259667 26.538920825100266  1.672840855358427 24.915972949339665  1.0306324788705508 23.0674218949901  C 0.3446128555557858 21.07060262020728  0.0010685663722732283 19.13618419214281  0 17.26416622932331  C 0 15.120145524473  0.46482622023610354 13.27212757920127  1.3944789473201498 11.720112584244825  C 2.0966737963661526 10.503534589480738  3.1014572789556083 9.4884038285052  4.311665450017102 8.772884184007891  C 5.505690179141316 8.059664156539899  6.868097739392643 7.675905348438281  8.25948366728637 7.660873961283692  C 9.033125736486273 7.663007315142878  10.050934819542393 7.899276001632325  11.312911680752967 8.369680532239318  C 12.5727514685566 8.842218405156986  13.379519441433013 9.079021088655765  13.733214906736931 9.080087765585358  C 14.000356510627821 9.080087765585358  14.89581608708516 8.801151363018766  16.419591749247676 8.243279320832386  C 17.857882086700634 7.727007668282938  19.074444060077916 7.5115392485107515  20.06927938905056 7.596873405858421  C 22.768478098779266 7.812342147498789  24.79180959751375 8.875818296208184  26.139271783433884 10.787303306353946  C 23.727517424301354 12.247584057425481  22.53392694644655 14.288671413022302  22.558503972822237 16.9105632750407  C 22.58094386757295 18.95324957639763  23.321459815151925 20.649798930138775  24.780052970963123 22.000211908474235  C 25.44042699686502 22.626351286075586  26.18040956279763 23.11115658062121  27 23.45462655232256  Z M 20.216743090828864 0  C 20.240251550645677 0.213335399329694  20.25147135154299 0.42667091786982586  20.25040278517071 0.6400063171995198  C 20.25040278517071 2.2400217287249187  19.665895677282034 3.732835771218576  18.496884041011224 5.1184491122589435  C 17.08797925108624 6.76166486054906  15.384149732648478 7.712074009845257  13.536064176594335 7.56167256631176  C 13.510960777127409 7.3605171119907675  13.49864798590158 7.157976742329691  13.499199015447996 6.955267189215289  C 13.499199015448 5.419252428483513  14.16918991944976 3.776036489456695  15.358504278541528 2.4304234955571222  C 15.952627165851357 1.7498836267706208  16.70810439770412 1.1840113244193806  17.624934397734688 0.7328069699768036  C 18.539627228821043 0.286935995152999  19.40356406492187 0.04266707867383443  20.216743090828864 0  Z " fill-rule="evenodd" />
    </mask>
  </defs>
  <g transform="matrix(1 0 0 1 -6 -3 )">
    <path d="M 27 23.45462655232256  C 26.823686547641937 23.96876481487716  26.63668858808469 24.463169696821154  26.43579809890155 24.937840912049495  C 25.966997575603532 26.02395395463461  25.38972445498742 27.060131747561122  24.712733582279423 28.030668554069898  C 23.806589331432665 29.321347661601433  23.06660977492436 30.214158976560274  22.492789610435487 30.70909706295046  C 21.605879497937583 31.522971612942975  20.654854317113113 31.941106512118125  19.63971626531951 31.963506728570902  C 18.908816858474385 31.963506728570902  18.02992026968178 31.75443775159959  17.003027979769534 31.33630036986707  C 15.977204274329393 30.918162988134554  15.031523831073786 30.70909706295046  14.165985025868949 30.70909706295046  C 13.25984077502219 30.70909706295046  12.28744428690465 30.918162988134554  11.248797758873758 31.33630036986707  C 10.208014061898648 31.756571093910264  9.36758670517654 31.97684004350609  8.727515449864242 31.997106905727147  C 7.750845770305621 32.03977398440098  6.778450810784554 31.610439076838187  5.810329711465527 30.70909706295046  C 5.19056122674283 30.170425196928495  4.4158508596826564 29.24614685638738  3.4861981325986107 27.936267620375602  C 2.4913628036259667 26.538920825100266  1.672840855358427 24.915972949339665  1.0306324788705508 23.0674218949901  C 0.3446128555557858 21.07060262020728  0.0010685663722732283 19.13618419214281  0 17.26416622932331  C 0 15.120145524473  0.46482622023610354 13.27212757920127  1.3944789473201498 11.720112584244825  C 2.0966737963661526 10.503534589480738  3.1014572789556083 9.4884038285052  4.311665450017102 8.772884184007891  C 5.505690179141316 8.059664156539899  6.868097739392643 7.675905348438281  8.25948366728637 7.660873961283692  C 9.033125736486273 7.663007315142878  10.050934819542393 7.899276001632325  11.312911680752967 8.369680532239318  C 12.5727514685566 8.842218405156986  13.379519441433013 9.079021088655765  13.733214906736931 9.080087765585358  C 14.000356510627821 9.080087765585358  14.89581608708516 8.801151363018766  16.419591749247676 8.243279320832386  C 17.857882086700634 7.727007668282938  19.074444060077916 7.5115392485107515  20.06927938905056 7.596873405858421  C 22.768478098779266 7.812342147498789  24.79180959751375 8.875818296208184  26.139271783433884 10.787303306353946  C 23.727517424301354 12.247584057425481  22.53392694644655 14.288671413022302  22.558503972822237 16.9105632750407  C 22.58094386757295 18.95324957639763  23.321459815151925 20.649798930138775  24.780052970963123 22.000211908474235  C 25.44042699686502 22.626351286075586  26.18040956279763 23.11115658062121  27 23.45462655232256  Z M 20.216743090828864 0  C 20.240251550645677 0.213335399329694  20.25147135154299 0.42667091786982586  20.25040278517071 0.6400063171995198  C 20.25040278517071 2.2400217287249187  19.665895677282034 3.732835771218576  18.496884041011224 5.1184491122589435  C 17.08797925108624 6.76166486054906  15.384149732648478 7.712074009845257  13.536064176594335 7.56167256631176  C 13.510960777127409 7.3605171119907675  13.49864798590158 7.157976742329691  13.499199015447996 6.955267189215289  C 13.499199015448 5.419252428483513  14.16918991944976 3.776036489456695  15.358504278541528 2.4304234955571222  C 15.952627165851357 1.7498836267706208  16.70810439770412 1.1840113244193806  17.624934397734688 0.7328069699768036  C 18.539627228821043 0.286935995152999  19.40356406492187 0.04266707867383443  20.216743090828864 0  Z " fill-rule="nonzero" fill="rgba(55, 58, 54, 1)" stroke="none" transform="matrix(1 0 0 1 6 3 )" class="fill" />
    <path d="M 27 23.45462655232256  C 26.823686547641937 23.96876481487716  26.63668858808469 24.463169696821154  26.43579809890155 24.937840912049495  C 25.966997575603532 26.02395395463461  25.38972445498742 27.060131747561122  24.712733582279423 28.030668554069898  C 23.806589331432665 29.321347661601433  23.06660977492436 30.214158976560274  22.492789610435487 30.70909706295046  C 21.605879497937583 31.522971612942975  20.654854317113113 31.941106512118125  19.63971626531951 31.963506728570902  C 18.908816858474385 31.963506728570902  18.02992026968178 31.75443775159959  17.003027979769534 31.33630036986707  C 15.977204274329393 30.918162988134554  15.031523831073786 30.70909706295046  14.165985025868949 30.70909706295046  C 13.25984077502219 30.70909706295046  12.28744428690465 30.918162988134554  11.248797758873758 31.33630036986707  C 10.208014061898648 31.756571093910264  9.36758670517654 31.97684004350609  8.727515449864242 31.997106905727147  C 7.750845770305621 32.03977398440098  6.778450810784554 31.610439076838187  5.810329711465527 30.70909706295046  C 5.19056122674283 30.170425196928495  4.4158508596826564 29.24614685638738  3.4861981325986107 27.936267620375602  C 2.4913628036259667 26.538920825100266  1.672840855358427 24.915972949339665  1.0306324788705508 23.0674218949901  C 0.3446128555557858 21.07060262020728  0.0010685663722732283 19.13618419214281  0 17.26416622932331  C 0 15.120145524473  0.46482622023610354 13.27212757920127  1.3944789473201498 11.720112584244825  C 2.0966737963661526 10.503534589480738  3.1014572789556083 9.4884038285052  4.311665450017102 8.772884184007891  C 5.505690179141316 8.059664156539899  6.868097739392643 7.675905348438281  8.25948366728637 7.660873961283692  C 9.033125736486273 7.663007315142878  10.050934819542393 7.899276001632325  11.312911680752967 8.369680532239318  C 12.5727514685566 8.842218405156986  13.379519441433013 9.079021088655765  13.733214906736931 9.080087765585358  C 14.000356510627821 9.080087765585358  14.89581608708516 8.801151363018766  16.419591749247676 8.243279320832386  C 17.857882086700634 7.727007668282938  19.074444060077916 7.5115392485107515  20.06927938905056 7.596873405858421  C 22.768478098779266 7.812342147498789  24.79180959751375 8.875818296208184  26.139271783433884 10.787303306353946  C 23.727517424301354 12.247584057425481  22.53392694644655 14.288671413022302  22.558503972822237 16.9105632750407  C 22.58094386757295 18.95324957639763  23.321459815151925 20.649798930138775  24.780052970963123 22.000211908474235  C 25.44042699686502 22.626351286075586  26.18040956279763 23.11115658062121  27 23.45462655232256  Z " stroke-width="0" stroke-dasharray="0" stroke="rgba(121, 121, 121, 1)" fill="none" transform="matrix(1 0 0 1 6 3 )" class="stroke" mask="url(#Clip31)" />
    <path d="M 20.216743090828864 0  C 20.240251550645677 0.213335399329694  20.25147135154299 0.42667091786982586  20.25040278517071 0.6400063171995198  C 20.25040278517071 2.2400217287249187  19.665895677282034 3.732835771218576  18.496884041011224 5.1184491122589435  C 17.08797925108624 6.76166486054906  15.384149732648478 7.712074009845257  13.536064176594335 7.56167256631176  C 13.510960777127409 7.3605171119907675  13.49864798590158 7.157976742329691  13.499199015447996 6.955267189215289  C 13.499199015448 5.419252428483513  14.16918991944976 3.776036489456695  15.358504278541528 2.4304234955571222  C 15.952627165851357 1.7498836267706208  16.70810439770412 1.1840113244193806  17.624934397734688 0.7328069699768036  C 18.539627228821043 0.286935995152999  19.40356406492187 0.04266707867383443  20.216743090828864 0  Z " stroke-width="0" stroke-dasharray="0" stroke="rgba(121, 121, 121, 1)" fill="none" transform="matrix(1 0 0 1 6 3 )" class="stroke" mask="url(#Clip31)" />
  </g>
</svg>