<?xml version="1.0" encoding="utf-8"?>
<svg version="1.1" xmlns:xlink="http://www.w3.org/1999/xlink" width="38px" height="38px" xmlns="http://www.w3.org/2000/svg">
  <defs>
    <pattern id="BGPattern" patternUnits="userSpaceOnUse" alignment="0 0" imageRepeat="None" />
    <mask fill="white" id="Clip32">
      <path d="M 21.300583442052204 38  C 30.71191640694936 36.860524399242195  38 28.822216811247383  38 19.070721148668863  C 38 8.537326513111976  29.494332989056904 0  19 0  C 8.505667010943096 0  0 8.537326513111976  0 19.070721148668863  C 0 28.01012168710739  6.138583103815716 35.51921931398943  14.413082838058472 37.58203561671154  C 14.413082838058472 37.58203561671154  14.413082838058472 24.89682704157942  14.413082838058472 24.89682704157942  L 10.494332989056904 24.89682704157942  L 10.494332989056904 19.070721148668863  L 14.413082838058472 19.070721148668863  C 14.413082838058472 19.070721148668863  14.413082838058472 16.559742985342506  14.413082838058472 16.559742985342506  C 14.413082838058472 10.072519692890616  17.3375004529953 7.062523362249477  23.691417137781777 7.062523362249477  C 24.893167143066723 7.062523362249477  26.970499967535336 7.300907670256257  27.823916594187416 7.539291694087147  C 27.823916594187416 7.539291694087147  27.823916594187416 12.81393494864892  27.823916594187416 12.81393494864892  C 27.093309635917343 12.757168576752418  26.36059417327245 12.732247362103028  25.627834637959797 12.739241399940175  C 22.510251333316166 12.73924139994017  21.308500289916992 13.923215913849834  21.308500289916992 16.998369608136404  C 21.308500289916992 16.998369608136404  21.308500289916992 19.070721148668863  21.308500289916992 19.070721148668863  L 27.51358461380005 19.070721148668863  L 26.444832801818848 24.89682704157942  L 21.300583442052204 24.89682704157942  C 21.300583442052204 24.89682704157942  21.300583442052204 38  21.300583442052204 38  Z " fill-rule="evenodd" />
    </mask>
  </defs>
  <g>
    <path d="M 21.300583442052204 38  C 30.71191640694936 36.860524399242195  38 28.822216811247383  38 19.070721148668863  C 38 8.537326513111976  29.494332989056904 0  19 0  C 8.505667010943096 0  0 8.537326513111976  0 19.070721148668863  C 0 28.01012168710739  6.138583103815716 35.51921931398943  14.413082838058472 37.58203561671154  C 14.413082838058472 37.58203561671154  14.413082838058472 24.89682704157942  14.413082838058472 24.89682704157942  L 10.494332989056904 24.89682704157942  L 10.494332989056904 19.070721148668863  L 14.413082838058472 19.070721148668863  C 14.413082838058472 19.070721148668863  14.413082838058472 16.559742985342506  14.413082838058472 16.559742985342506  C 14.413082838058472 10.072519692890616  17.3375004529953 7.062523362249477  23.691417137781777 7.062523362249477  C 24.893167143066723 7.062523362249477  26.970499967535336 7.300907670256257  27.823916594187416 7.539291694087147  C 27.823916594187416 7.539291694087147  27.823916594187416 12.81393494864892  27.823916594187416 12.81393494864892  C 27.093309635917343 12.757168576752418  26.36059417327245 12.732247362103028  25.627834637959797 12.739241399940175  C 22.510251333316166 12.73924139994017  21.308500289916992 13.923215913849834  21.308500289916992 16.998369608136404  C 21.308500289916992 16.998369608136404  21.308500289916992 19.070721148668863  21.308500289916992 19.070721148668863  L 27.51358461380005 19.070721148668863  L 26.444832801818848 24.89682704157942  L 21.300583442052204 24.89682704157942  C 21.300583442052204 24.89682704157942  21.300583442052204 38  21.300583442052204 38  Z " fill-rule="nonzero" fill="rgba(24, 119, 242, 1)" stroke="none" class="fill" />
    <path d="M 21.300583442052204 38  C 30.71191640694936 36.860524399242195  38 28.822216811247383  38 19.070721148668863  C 38 8.537326513111976  29.494332989056904 0  19 0  C 8.505667010943096 0  0 8.537326513111976  0 19.070721148668863  C 0 28.01012168710739  6.138583103815716 35.51921931398943  14.413082838058472 37.58203561671154  C 14.413082838058472 37.58203561671154  14.413082838058472 24.89682704157942  14.413082838058472 24.89682704157942  L 10.494332989056904 24.89682704157942  L 10.494332989056904 19.070721148668863  L 14.413082838058472 19.070721148668863  C 14.413082838058472 19.070721148668863  14.413082838058472 16.559742985342506  14.413082838058472 16.559742985342506  C 14.413082838058472 10.072519692890616  17.3375004529953 7.062523362249477  23.691417137781777 7.062523362249477  C 24.893167143066723 7.062523362249477  26.970499967535336 7.300907670256257  27.823916594187416 7.539291694087147  C 27.823916594187416 7.539291694087147  27.823916594187416 12.81393494864892  27.823916594187416 12.81393494864892  C 27.093309635917343 12.757168576752418  26.36059417327245 12.732247362103028  25.627834637959797 12.739241399940175  C 22.510251333316166 12.73924139994017  21.308500289916992 13.923215913849834  21.308500289916992 16.998369608136404  C 21.308500289916992 16.998369608136404  21.308500289916992 19.070721148668863  21.308500289916992 19.070721148668863  L 27.51358461380005 19.070721148668863  L 26.444832801818848 24.89682704157942  L 21.300583442052204 24.89682704157942  C 21.300583442052204 24.89682704157942  21.300583442052204 38  21.300583442052204 38  Z " stroke-width="0" stroke-dasharray="0" stroke="rgba(121, 121, 121, 1)" fill="none" class="stroke" mask="url(#Clip32)" />
  </g>
</svg>