<?xml version="1.0" encoding="utf-8"?>
<svg version="1.1" xmlns:xlink="http://www.w3.org/1999/xlink" width="28px" height="15px" xmlns="http://www.w3.org/2000/svg">
  <defs>
    <pattern id="BGPattern" patternUnits="userSpaceOnUse" alignment="0 0" imageRepeat="None" />
  </defs>
  <g transform="matrix(1 0 0 1 -4 0 )">
    <path d="M 15.438871765807185 6.87450362094234  L 15.440376226652996 6.87450362094234  C 17.976461993657384 6.87450362094234  20.254131356944082 7.746216375044343  22.045016652550736 9.45958197017963  L 27 4.501342310738127  C 24.007178367763466 1.7133657743011634  20.096377353804613 0  15.440376226652996 0  C 12.237424219749988 -0.0005955459308254514  9.097350079282696 0.889456446567361  6.370796345354161 2.570767295777777  C 3.644242611425624 4.252078144988192  1.4385431625040594 6.658460391799936  0 9.521202848020755  L 5.772299612183426 14  C 7.130487729887985 9.914975758857066  10.940624820897517 6.87450362094234  15.438871765807185 6.87450362094234  Z " fill-rule="nonzero" fill="rgba(234, 67, 53, 1)" stroke="none" transform="matrix(1 0 0 1 4 0 )" class="fill" />
    <path d="M 15.440376226652996 6.87450362094234  C 17.976461993657384 6.87450362094234  20.254131356944082 7.746216375044343  22.045016652550736 9.45958197017963  L 27 4.501342310738127  C 24.007178367763466 1.7133657743011634  20.096377353804613 0  15.440376226652996 0  C 12.237424219749988 -0.0005955459308254514  9.097350079282696 0.889456446567361  6.370796345354161 2.570767295777777  C 3.644242611425624 4.252078144988192  1.4385431625040594 6.658460391799936  0 9.521202848020755  L 5.772299612183426 14  C 7.130487729887985 9.914975758857066  10.940624820897517 6.87450362094234  15.438871765807185 6.87450362094234  " stroke-width="0" stroke-dasharray="0" stroke="rgba(121, 121, 121, 1)" fill="none" transform="matrix(1 0 0 1 4 0 )" class="stroke" />
  </g>
</svg>