<?xml version="1.0" encoding="utf-8"?>
<svg version="1.1" xmlns:xlink="http://www.w3.org/1999/xlink" width="17px" height="16px" xmlns="http://www.w3.org/2000/svg">
  <defs>
    <pattern id="BGPattern" patternUnits="userSpaceOnUse" alignment="0 0" imageRepeat="None" />
    <mask fill="white" id="Clip28">
      <path d="M 11.719836078602107 16  C 15.067480766705712 13.035446497857345  17 8.670058881554095  17 3.4828308618708923  C 17 2.27598221832142  16.887589053327147 1.1135584681334216  16.676628934338147 0  C 16.676628934338147 0  0 0  0 0  C 0 0  0 6.586580033087776  0 6.586580033087776  C 0 6.586580033087776  9.531702930475074 6.586580033087776  9.531702930475074 6.586580033087776  C 9.333517077863094 7.628386007104763  8.918108326897759 8.620838961526811  8.310499227731187 9.50416774640896  C 7.702890128564616 10.387496531291108  6.915650272583247 11.143422727757367  5.996193768637248 11.726420723143718  C 5.996193768637248 11.726420723143718  5.996193768637248 16  5.996193768637248 16  C 5.996193768637248 16  11.719836078602107 16  11.719836078602107 16  Z " fill-rule="evenodd" />
    </mask>
  </defs>
  <g transform="matrix(1 0 0 1 -19 -15 )">
    <path d="M 11.719836078602107 16  C 15.067480766705712 13.035446497857345  17 8.670058881554095  17 3.4828308618708923  C 17 2.27598221832142  16.887589053327147 1.1135584681334216  16.676628934338147 0  C 16.676628934338147 0  0 0  0 0  C 0 0  0 6.586580033087776  0 6.586580033087776  C 0 6.586580033087776  9.531702930475074 6.586580033087776  9.531702930475074 6.586580033087776  C 9.333517077863094 7.628386007104763  8.918108326897759 8.620838961526811  8.310499227731187 9.50416774640896  C 7.702890128564616 10.387496531291108  6.915650272583247 11.143422727757367  5.996193768637248 11.726420723143718  C 5.996193768637248 11.726420723143718  5.996193768637248 16  5.996193768637248 16  C 5.996193768637248 16  11.719836078602107 16  11.719836078602107 16  Z " fill-rule="nonzero" fill="rgba(66, 133, 244, 1)" stroke="none" transform="matrix(1 0 0 1 19 15 )" class="fill" />
    <path d="M 11.719836078602107 16  C 15.067480766705712 13.035446497857345  17 8.670058881554095  17 3.4828308618708923  C 17 2.27598221832142  16.887589053327147 1.1135584681334216  16.676628934338147 0  C 16.676628934338147 0  0 0  0 0  C 0 0  0 6.586580033087776  0 6.586580033087776  C 0 6.586580033087776  9.531702930475074 6.586580033087776  9.531702930475074 6.586580033087776  C 9.333517077863094 7.628386007104763  8.918108326897759 8.620838961526811  8.310499227731187 9.50416774640896  C 7.702890128564616 10.387496531291108  6.915650272583247 11.143422727757367  5.996193768637248 11.726420723143718  C 5.996193768637248 11.726420723143718  5.996193768637248 16  5.996193768637248 16  C 5.996193768637248 16  11.719836078602107 16  11.719836078602107 16  Z " stroke-width="0" stroke-dasharray="0" stroke="rgba(121, 121, 121, 1)" fill="none" transform="matrix(1 0 0 1 19 15 )" class="stroke" mask="url(#Clip28)" />
  </g>
</svg>