<?xml version="1.0" encoding="utf-8"?>
<svg version="1.1" xmlns:xlink="http://www.w3.org/1999/xlink" width="27px" height="27px" xmlns="http://www.w3.org/2000/svg">
  <defs>
    <pattern id="BGPattern" patternUnits="userSpaceOnUse" alignment="0 0" imageRepeat="None" />
    <mask fill="white" id="Clip17">
      <path d="M 13.497672915236752 20.43145004129936  C 9.66930273001697 20.43145004129936  6.565430313628227 17.327573339993794  6.565430313628227 13.49919976646187  C 6.565430313628227 9.670824250615535  9.66930273001697 6.5669494916243805  13.497672915236752 6.5669494916243805  C 17.32604406605187 6.5669494916243805  20.429915516845274 9.670824250615535  20.429915516845274 13.49919976646187  C 20.429915516845274 17.327573339993794  17.32604406605187 20.43145004129936  13.497672915236752 20.43145004129936  Z M 13.496407985344694 8.999410831294743  C 11.01128713000175 8.999410831294743  8.99641506637717 11.014284283755734  8.99641506637717 13.49940565178964  C 8.99641506637717 15.984527990980753  11.01128713000175 17.999400472284538  13.496407985344694 17.999400472284538  C 15.98152980628298 17.999400472284538  17.996402835502895 15.984527990980753  17.996402835502895 13.49940565178964  C 17.996402835502895 11.014284283755734  15.98152980628298 8.999410831294743  13.496407985344694 8.999410831294743  Z M 20.704610009633065 4.673985403291374  C 21.59930940621466 4.673985403291374  22.32460475679443 5.399486452069219  22.32460475679443 6.294437438124697  C 22.32460475679443 7.189388424180175  21.59930940621466 7.91488947295802  20.704610009633065 7.91488947295802  C 19.80991061305147 7.91488947295802  19.084613331281027 7.189388424180175  19.084613331281027 6.294437438124697  C 19.084613331281027 5.399486452069219  19.80991061305147 4.673985403291374  20.704610009633065 4.673985403291374  Z M 2.265749906015387 2.265750065714971  C 3.812625187647361 0.7188748431581111  5.739750223374388 0.1811250071218195  7.933500271654155 0.08100000412741813  C 9.373500323152573 0.015749999959535115  9.833624847757802 0  13.5 0  C 17.166375152242196 0  17.626500642442764 0.015749999959535115  19.066500693941183 0.08100000412741813  C 21.26025025942328 0.1811250071218195  23.187375777947977 0.7188748431581111  24.734251783776454 2.265750065714971  C 26.281125858414256 3.812625045482529  26.818877488982917 5.739749831342365  26.919002000713537 7.933500244084178  C 26.98425114004623 9.37350058722639  27 9.83362516007908  27 13.5  C 27 17.16637483992092  26.98425114004623 17.626499412773608  26.919002000713537 19.066500241494424  C 26.818877488982917 21.26025113981484  26.281125858414256 23.18737665404258  24.734251783776454 24.734251391020837  C 23.187375777947977 26.281126127999094  21.26025025942328 26.81887723867922  19.066500693941183 26.919001604351706  C 17.626500642442764 26.984251714739905  17.166375152242196 27  13.5 27  C 9.833624847757802 27  9.373500323152573 26.984251714739905  7.933500271654155 26.919001604351706  C 5.739750223374388 26.81887723867922  3.812625187647361 26.281126127999094  2.265749906015387 24.734251391020837  C 0.7188748657822481 23.18737665404258  0.18112500044256455 21.26025113981484  0.08099999837055787 19.066500241494424  C 0.015749999054521232 17.626499412773608  0 17.16637483992092  0 13.5  C 0 9.83362516007908  0.015749999054521232 9.37350058722639  0.08099999837055787 7.933500244084178  C 0.18112500044256455 5.739749831342365  0.7188748657822481 3.812625045482529  2.265749906015387 2.265750065714971  Z M 23.012890769280506 3.9860863476014794  C 21.91601502094412 2.889211384019874  20.490639876426687 2.580961230900755  18.953889103306683 2.5112112635963806  C 17.53076572711618 2.4459613959974797  17.103265772177295 2.4324613396703616  13.498765969158741 2.4324613396703616  C 9.894265200544854 2.4324613396703616  9.466765245605968 2.4459613959974797  8.043639938224787 2.5112112635963806  C 6.5068896479024545 2.580961230900755  5.081514986182689 2.889211384019874  3.984639962042805 3.9860863476014794  C 2.8877649379029213 5.082961553972385  2.5795150415434875 6.508336269585183  2.5097650209441205 8.045086207107403  C 2.444514916016094 9.46821172263002  2.431014927603238 9.895712211445813  2.431014927603238 13.500212683428218  C 2.431014927603238 17.104712184253412  2.444514916016094 17.532211701912  2.5097650209441205 18.95533576069881  C 2.5795150415434875 20.492087154956835  2.8877649379029213 21.91746235614824  3.984639962042805 23.014337805308447  C 5.081514986182689 24.11121131215424  6.5068896479024545 24.419462436430567  8.043639938224787 24.48921094699913  C 9.466765245605968 24.554461057387332  9.894265200544854 24.56796402718607  13.498765969158741 24.56796402718607  C 17.103265772177295 24.56796402718607  17.53076572711618 24.554461057387332  18.953889103306683 24.48921094699913  C 20.490639876426687 24.419462436430567  21.91601502094412 24.11121131215424  23.012890769280506 23.014337805308447  C 24.109766517616894 21.91746235614824  24.41801544838099 20.492087154956835  24.48776619317686 18.95533576069881  C 24.55301533250955 17.532211701912  24.566516286517743 17.104712184253412  24.566516286517743 13.500212683428218  C 24.566516286517743 9.895712211445813  24.55301533250955 9.46821172263002  24.48776619317686 8.045086207107403  C 24.41801544838099 6.508336269585183  24.109766517616894 5.082961553972385  23.012890769280506 3.9860863476014794  Z " fill-rule="evenodd" />
    </mask>
  </defs>
  <g>
    <path d="M 13.497672915236752 20.43145004129936  C 9.66930273001697 20.43145004129936  6.565430313628227 17.327573339993794  6.565430313628227 13.49919976646187  C 6.565430313628227 9.670824250615535  9.66930273001697 6.5669494916243805  13.497672915236752 6.5669494916243805  C 17.32604406605187 6.5669494916243805  20.429915516845274 9.670824250615535  20.429915516845274 13.49919976646187  C 20.429915516845274 17.327573339993794  17.32604406605187 20.43145004129936  13.497672915236752 20.43145004129936  Z M 13.496407985344694 8.999410831294743  C 11.01128713000175 8.999410831294743  8.99641506637717 11.014284283755734  8.99641506637717 13.49940565178964  C 8.99641506637717 15.984527990980753  11.01128713000175 17.999400472284538  13.496407985344694 17.999400472284538  C 15.98152980628298 17.999400472284538  17.996402835502895 15.984527990980753  17.996402835502895 13.49940565178964  C 17.996402835502895 11.014284283755734  15.98152980628298 8.999410831294743  13.496407985344694 8.999410831294743  Z M 20.704610009633065 4.673985403291374  C 21.59930940621466 4.673985403291374  22.32460475679443 5.399486452069219  22.32460475679443 6.294437438124697  C 22.32460475679443 7.189388424180175  21.59930940621466 7.91488947295802  20.704610009633065 7.91488947295802  C 19.80991061305147 7.91488947295802  19.084613331281027 7.189388424180175  19.084613331281027 6.294437438124697  C 19.084613331281027 5.399486452069219  19.80991061305147 4.673985403291374  20.704610009633065 4.673985403291374  Z M 2.265749906015387 2.265750065714971  C 3.812625187647361 0.7188748431581111  5.739750223374388 0.1811250071218195  7.933500271654155 0.08100000412741813  C 9.373500323152573 0.015749999959535115  9.833624847757802 0  13.5 0  C 17.166375152242196 0  17.626500642442764 0.015749999959535115  19.066500693941183 0.08100000412741813  C 21.26025025942328 0.1811250071218195  23.187375777947977 0.7188748431581111  24.734251783776454 2.265750065714971  C 26.281125858414256 3.812625045482529  26.818877488982917 5.739749831342365  26.919002000713537 7.933500244084178  C 26.98425114004623 9.37350058722639  27 9.83362516007908  27 13.5  C 27 17.16637483992092  26.98425114004623 17.626499412773608  26.919002000713537 19.066500241494424  C 26.818877488982917 21.26025113981484  26.281125858414256 23.18737665404258  24.734251783776454 24.734251391020837  C 23.187375777947977 26.281126127999094  21.26025025942328 26.81887723867922  19.066500693941183 26.919001604351706  C 17.626500642442764 26.984251714739905  17.166375152242196 27  13.5 27  C 9.833624847757802 27  9.373500323152573 26.984251714739905  7.933500271654155 26.919001604351706  C 5.739750223374388 26.81887723867922  3.812625187647361 26.281126127999094  2.265749906015387 24.734251391020837  C 0.7188748657822481 23.18737665404258  0.18112500044256455 21.26025113981484  0.08099999837055787 19.066500241494424  C 0.015749999054521232 17.626499412773608  0 17.16637483992092  0 13.5  C 0 9.83362516007908  0.015749999054521232 9.37350058722639  0.08099999837055787 7.933500244084178  C 0.18112500044256455 5.739749831342365  0.7188748657822481 3.812625045482529  2.265749906015387 2.265750065714971  Z M 23.012890769280506 3.9860863476014794  C 21.91601502094412 2.889211384019874  20.490639876426687 2.580961230900755  18.953889103306683 2.5112112635963806  C 17.53076572711618 2.4459613959974797  17.103265772177295 2.4324613396703616  13.498765969158741 2.4324613396703616  C 9.894265200544854 2.4324613396703616  9.466765245605968 2.4459613959974797  8.043639938224787 2.5112112635963806  C 6.5068896479024545 2.580961230900755  5.081514986182689 2.889211384019874  3.984639962042805 3.9860863476014794  C 2.8877649379029213 5.082961553972385  2.5795150415434875 6.508336269585183  2.5097650209441205 8.045086207107403  C 2.444514916016094 9.46821172263002  2.431014927603238 9.895712211445813  2.431014927603238 13.500212683428218  C 2.431014927603238 17.104712184253412  2.444514916016094 17.532211701912  2.5097650209441205 18.95533576069881  C 2.5795150415434875 20.492087154956835  2.8877649379029213 21.91746235614824  3.984639962042805 23.014337805308447  C 5.081514986182689 24.11121131215424  6.5068896479024545 24.419462436430567  8.043639938224787 24.48921094699913  C 9.466765245605968 24.554461057387332  9.894265200544854 24.56796402718607  13.498765969158741 24.56796402718607  C 17.103265772177295 24.56796402718607  17.53076572711618 24.554461057387332  18.953889103306683 24.48921094699913  C 20.490639876426687 24.419462436430567  21.91601502094412 24.11121131215424  23.012890769280506 23.014337805308447  C 24.109766517616894 21.91746235614824  24.41801544838099 20.492087154956835  24.48776619317686 18.95533576069881  C 24.55301533250955 17.532211701912  24.566516286517743 17.104712184253412  24.566516286517743 13.500212683428218  C 24.566516286517743 9.895712211445813  24.55301533250955 9.46821172263002  24.48776619317686 8.045086207107403  C 24.41801544838099 6.508336269585183  24.109766517616894 5.082961553972385  23.012890769280506 3.9860863476014794  Z " fill-rule="nonzero" fill="rgba(10, 20, 47, 1)" stroke="none" class="fill" />
    <path d="M 13.497672915236752 20.43145004129936  C 9.66930273001697 20.43145004129936  6.565430313628227 17.327573339993794  6.565430313628227 13.49919976646187  C 6.565430313628227 9.670824250615535  9.66930273001697 6.5669494916243805  13.497672915236752 6.5669494916243805  C 17.32604406605187 6.5669494916243805  20.429915516845274 9.670824250615535  20.429915516845274 13.49919976646187  C 20.429915516845274 17.327573339993794  17.32604406605187 20.43145004129936  13.497672915236752 20.43145004129936  Z " stroke-width="0" stroke-dasharray="0" stroke="rgba(121, 121, 121, 1)" fill="none" class="stroke" mask="url(#Clip17)" />
    <path d="M 13.496407985344694 8.999410831294743  C 11.01128713000175 8.999410831294743  8.99641506637717 11.014284283755734  8.99641506637717 13.49940565178964  C 8.99641506637717 15.984527990980753  11.01128713000175 17.999400472284538  13.496407985344694 17.999400472284538  C 15.98152980628298 17.999400472284538  17.996402835502895 15.984527990980753  17.996402835502895 13.49940565178964  C 17.996402835502895 11.014284283755734  15.98152980628298 8.999410831294743  13.496407985344694 8.999410831294743  Z " stroke-width="0" stroke-dasharray="0" stroke="rgba(121, 121, 121, 1)" fill="none" class="stroke" mask="url(#Clip17)" />
    <path d="M 20.704610009633065 4.673985403291374  C 21.59930940621466 4.673985403291374  22.32460475679443 5.399486452069219  22.32460475679443 6.294437438124697  C 22.32460475679443 7.189388424180175  21.59930940621466 7.91488947295802  20.704610009633065 7.91488947295802  C 19.80991061305147 7.91488947295802  19.084613331281027 7.189388424180175  19.084613331281027 6.294437438124697  C 19.084613331281027 5.399486452069219  19.80991061305147 4.673985403291374  20.704610009633065 4.673985403291374  Z " stroke-width="0" stroke-dasharray="0" stroke="rgba(121, 121, 121, 1)" fill="none" class="stroke" mask="url(#Clip17)" />
    <path d="M 2.265749906015387 2.265750065714971  C 3.812625187647361 0.7188748431581111  5.739750223374388 0.1811250071218195  7.933500271654155 0.08100000412741813  C 9.373500323152573 0.015749999959535115  9.833624847757802 0  13.5 0  C 17.166375152242196 0  17.626500642442764 0.015749999959535115  19.066500693941183 0.08100000412741813  C 21.26025025942328 0.1811250071218195  23.187375777947977 0.7188748431581111  24.734251783776454 2.265750065714971  C 26.281125858414256 3.812625045482529  26.818877488982917 5.739749831342365  26.919002000713537 7.933500244084178  C 26.98425114004623 9.37350058722639  27 9.83362516007908  27 13.5  C 27 17.16637483992092  26.98425114004623 17.626499412773608  26.919002000713537 19.066500241494424  C 26.818877488982917 21.26025113981484  26.281125858414256 23.18737665404258  24.734251783776454 24.734251391020837  C 23.187375777947977 26.281126127999094  21.26025025942328 26.81887723867922  19.066500693941183 26.919001604351706  C 17.626500642442764 26.984251714739905  17.166375152242196 27  13.5 27  C 9.833624847757802 27  9.373500323152573 26.984251714739905  7.933500271654155 26.919001604351706  C 5.739750223374388 26.81887723867922  3.812625187647361 26.281126127999094  2.265749906015387 24.734251391020837  C 0.7188748657822481 23.18737665404258  0.18112500044256455 21.26025113981484  0.08099999837055787 19.066500241494424  C 0.015749999054521232 17.626499412773608  0 17.16637483992092  0 13.5  C 0 9.83362516007908  0.015749999054521232 9.37350058722639  0.08099999837055787 7.933500244084178  C 0.18112500044256455 5.739749831342365  0.7188748657822481 3.812625045482529  2.265749906015387 2.265750065714971  Z " stroke-width="0" stroke-dasharray="0" stroke="rgba(121, 121, 121, 1)" fill="none" class="stroke" mask="url(#Clip17)" />
    <path d="M 23.012890769280506 3.9860863476014794  C 21.91601502094412 2.889211384019874  20.490639876426687 2.580961230900755  18.953889103306683 2.5112112635963806  C 17.53076572711618 2.4459613959974797  17.103265772177295 2.4324613396703616  13.498765969158741 2.4324613396703616  C 9.894265200544854 2.4324613396703616  9.466765245605968 2.4459613959974797  8.043639938224787 2.5112112635963806  C 6.5068896479024545 2.580961230900755  5.081514986182689 2.889211384019874  3.984639962042805 3.9860863476014794  C 2.8877649379029213 5.082961553972385  2.5795150415434875 6.508336269585183  2.5097650209441205 8.045086207107403  C 2.444514916016094 9.46821172263002  2.431014927603238 9.895712211445813  2.431014927603238 13.500212683428218  C 2.431014927603238 17.104712184253412  2.444514916016094 17.532211701912  2.5097650209441205 18.95533576069881  C 2.5795150415434875 20.492087154956835  2.8877649379029213 21.91746235614824  3.984639962042805 23.014337805308447  C 5.081514986182689 24.11121131215424  6.5068896479024545 24.419462436430567  8.043639938224787 24.48921094699913  C 9.466765245605968 24.554461057387332  9.894265200544854 24.56796402718607  13.498765969158741 24.56796402718607  C 17.103265772177295 24.56796402718607  17.53076572711618 24.554461057387332  18.953889103306683 24.48921094699913  C 20.490639876426687 24.419462436430567  21.91601502094412 24.11121131215424  23.012890769280506 23.014337805308447  C 24.109766517616894 21.91746235614824  24.41801544838099 20.492087154956835  24.48776619317686 18.95533576069881  C 24.55301533250955 17.532211701912  24.566516286517743 17.104712184253412  24.566516286517743 13.500212683428218  C 24.566516286517743 9.895712211445813  24.55301533250955 9.46821172263002  24.48776619317686 8.045086207107403  C 24.41801544838099 6.508336269585183  24.109766517616894 5.082961553972385  23.012890769280506 3.9860863476014794  Z " stroke-width="0" stroke-dasharray="0" stroke="rgba(121, 121, 121, 1)" fill="none" class="stroke" mask="url(#Clip17)" />
  </g>
</svg>