<?xml version="1.0" encoding="utf-8"?>
<svg version="1.1" xmlns:xlink="http://www.w3.org/1999/xlink" width="11px" height="24px" xmlns="http://www.w3.org/2000/svg">
  <defs>
    <pattern id="BGPattern" patternUnits="userSpaceOnUse" alignment="0 0" imageRepeat="None" />
    <mask fill="white" id="Clip21">
      <path d="M 11 7.772617856984024  L 10.570415609099989 12.009577699610393  C 10.570415609099989 12.009577699610393  7.252837334886354 12.009577699610393  7.252837334886354 12.009577699610393  C 7.252837334886354 17.38427815085983  7.252837334886354 24  7.252837334886354 24  C 7.252837334886354 24  2.3368428403714208 24  2.3368428403714208 24  C 2.3368428403714208 24  2.3368428403714208 17.44841162885224  2.3368428403714208 12.009577699610393  C 2.3368428403714208 12.009577699610393  0 12.009577699610393  0 12.009577699610393  L 0 7.7717850675012485  L 2.3368428403714208 7.7717850675012485  C 2.3368428403714208 7.7717850675012485  2.3368428403714208 5.030713094094248  2.3368428403714208 5.030713094094248  C 2.3368428403714208 3.0675690448880983  3.2567951776851105 0  7.298013712584505 0  C 7.298013712584505 0  10.940860682264447 0.014159291366816254  10.940860682264447 0.014159291366816254  C 10.940860682264447 0.014159291366816254  10.940860682264447 4.1278498372585375  10.940860682264447 4.1278498372585375  C 10.940860682264447 4.1278498372585375  8.727225442319812 4.1278498372585375  8.296819238520836 4.1278498372585375  C 7.866413034721864 4.1278498372585375  7.254480501699135 4.3460693825753385  7.254480501699135 5.282248407491796  C 7.254480501699135 5.282248407491796  7.254480501699135 7.772617856984024  7.254480501699135 7.772617856984024  L 11 7.772617856984024  Z " fill-rule="evenodd" />
    </mask>
  </defs>
  <g transform="matrix(1 0 0 1 -142 -2 )">
    <path d="M 11 7.772617856984024  L 10.570415609099989 12.009577699610393  C 10.570415609099989 12.009577699610393  7.252837334886354 12.009577699610393  7.252837334886354 12.009577699610393  C 7.252837334886354 17.38427815085983  7.252837334886354 24  7.252837334886354 24  C 7.252837334886354 24  2.3368428403714208 24  2.3368428403714208 24  C 2.3368428403714208 24  2.3368428403714208 17.44841162885224  2.3368428403714208 12.009577699610393  C 2.3368428403714208 12.009577699610393  0 12.009577699610393  0 12.009577699610393  L 0 7.7717850675012485  L 2.3368428403714208 7.7717850675012485  C 2.3368428403714208 7.7717850675012485  2.3368428403714208 5.030713094094248  2.3368428403714208 5.030713094094248  C 2.3368428403714208 3.0675690448880983  3.2567951776851105 0  7.298013712584505 0  C 7.298013712584505 0  10.940860682264447 0.014159291366816254  10.940860682264447 0.014159291366816254  C 10.940860682264447 0.014159291366816254  10.940860682264447 4.1278498372585375  10.940860682264447 4.1278498372585375  C 10.940860682264447 4.1278498372585375  8.727225442319812 4.1278498372585375  8.296819238520836 4.1278498372585375  C 7.866413034721864 4.1278498372585375  7.254480501699135 4.3460693825753385  7.254480501699135 5.282248407491796  C 7.254480501699135 5.282248407491796  7.254480501699135 7.772617856984024  7.254480501699135 7.772617856984024  L 11 7.772617856984024  Z " fill-rule="nonzero" fill="rgba(10, 20, 47, 1)" stroke="none" transform="matrix(1 0 0 1 142 2 )" class="fill" />
    <path d="M 11 7.772617856984024  L 10.570415609099989 12.009577699610393  C 10.570415609099989 12.009577699610393  7.252837334886354 12.009577699610393  7.252837334886354 12.009577699610393  C 7.252837334886354 17.38427815085983  7.252837334886354 24  7.252837334886354 24  C 7.252837334886354 24  2.3368428403714208 24  2.3368428403714208 24  C 2.3368428403714208 24  2.3368428403714208 17.44841162885224  2.3368428403714208 12.009577699610393  C 2.3368428403714208 12.009577699610393  0 12.009577699610393  0 12.009577699610393  L 0 7.7717850675012485  L 2.3368428403714208 7.7717850675012485  C 2.3368428403714208 7.7717850675012485  2.3368428403714208 5.030713094094248  2.3368428403714208 5.030713094094248  C 2.3368428403714208 3.0675690448880983  3.2567951776851105 0  7.298013712584505 0  C 7.298013712584505 0  10.940860682264447 0.014159291366816254  10.940860682264447 0.014159291366816254  C 10.940860682264447 0.014159291366816254  10.940860682264447 4.1278498372585375  10.940860682264447 4.1278498372585375  C 10.940860682264447 4.1278498372585375  8.727225442319812 4.1278498372585375  8.296819238520836 4.1278498372585375  C 7.866413034721864 4.1278498372585375  7.254480501699135 4.3460693825753385  7.254480501699135 5.282248407491796  C 7.254480501699135 5.282248407491796  7.254480501699135 7.772617856984024  7.254480501699135 7.772617856984024  L 11 7.772617856984024  Z " stroke-width="0" stroke-dasharray="0" stroke="rgba(121, 121, 121, 1)" fill="none" transform="matrix(1 0 0 1 142 2 )" class="stroke" mask="url(#Clip21)" />
  </g>
</svg>