<?xml version="1.0" encoding="utf-8"?>
<svg version="1.1" xmlns:xlink="http://www.w3.org/1999/xlink" width="26px" height="21px" xmlns="http://www.w3.org/2000/svg">
  <defs>
    <pattern id="BGPattern" patternUnits="userSpaceOnUse" alignment="0 0" imageRepeat="None" />
    <mask fill="white" id="Clip22">
      <path d="M 26 2.487603106158134  C 25.28511469136747 3.5483415722058638  24.377899364670903 4.482609552454483  23.335369444351343 5.225666677357956  C 23.335369444351343 5.225666677357956  23.351582614016067 5.912219733165015  23.351582614016067 5.912219733165015  C 23.351582614016067 12.922995052789668  17.98695959706365 21  8.175615569854324 21  C 5.164278211109154 21  2.361393051112261 20.122324540645913  0 18.617257344058576  C 0.4170832239741679 18.665702192040303  0.8421838619636871 18.692625667124187  1.2728075957138434 18.692625667124187  C 3.7723673328699387 18.692625667124187  6.07149184085315 17.84453118840777  7.896698627887667 16.42298048488831  C 5.562386515520116 16.37993808052781  3.593578996287242 14.845289943471647  2.9138812112317822 12.739931805082948  C 3.241525843120627 12.801838473454865  3.5719319824861566 12.831507775341905  3.9185511501036974 12.831507775341905  C 4.40600938082838 12.831507775341905  4.87716579631855 12.769600926210181  5.324002497715268 12.648444527635185  C 2.8840389266249153 12.158416504777291  1.045291427796247 10.018075720401084  1.045291427796247 7.4496132099770795  C 1.045291427796247 7.4496132099770795  1.045291427796247 7.382303721401006  1.045291427796247 7.382303721401006  C 1.7656107017760392 7.780755934675327  2.5861476307459066 8.01766612752871  3.460846518012462 8.047335273761473  C 2.0309868511412823 7.096948339130705  1.0885854553984176 5.473470696299166  1.0885854553984176 3.6346034451984934  C 1.0885854553984176 2.662695328471899  1.3512890660858223 1.7526938299061632  1.80890472937821 0.9692511885999684  C 4.438435518139665 4.178478769701556  8.370527218422984 6.289239537492392  12.803617659206973 6.510031132462133  C 12.71150657894835 6.122295244167821  12.665540669227372 5.715783352858199  12.665540669227372 5.301212386045958  C 12.665540669227372 2.374683178750353  15.054014012626222 0  18.000410451179036 0  C 19.533160230910863 0  20.919726516637997 0.6434219988042078  21.894553928481244 1.6745798859027274  C 23.107765519743875 1.434924016879362  24.250602952732276 0.9934293389912697  25.282353911156168 0.38764735615850077  C 24.88424520270888 1.626134972646623  24.039386983903892 2.665352256598525  22.93717192871974 3.3222360406451794  C 24.012305964351913 3.195677203470062  25.044058054077514 2.907576541697129  26 2.487603106158134  Z " fill-rule="evenodd" />
    </mask>
  </defs>
  <g transform="matrix(1 0 0 1 -198 -3 )">
    <path d="M 26 2.487603106158134  C 25.28511469136747 3.5483415722058638  24.377899364670903 4.482609552454483  23.335369444351343 5.225666677357956  C 23.335369444351343 5.225666677357956  23.351582614016067 5.912219733165015  23.351582614016067 5.912219733165015  C 23.351582614016067 12.922995052789668  17.98695959706365 21  8.175615569854324 21  C 5.164278211109154 21  2.361393051112261 20.122324540645913  0 18.617257344058576  C 0.4170832239741679 18.665702192040303  0.8421838619636871 18.692625667124187  1.2728075957138434 18.692625667124187  C 3.7723673328699387 18.692625667124187  6.07149184085315 17.84453118840777  7.896698627887667 16.42298048488831  C 5.562386515520116 16.37993808052781  3.593578996287242 14.845289943471647  2.9138812112317822 12.739931805082948  C 3.241525843120627 12.801838473454865  3.5719319824861566 12.831507775341905  3.9185511501036974 12.831507775341905  C 4.40600938082838 12.831507775341905  4.87716579631855 12.769600926210181  5.324002497715268 12.648444527635185  C 2.8840389266249153 12.158416504777291  1.045291427796247 10.018075720401084  1.045291427796247 7.4496132099770795  C 1.045291427796247 7.4496132099770795  1.045291427796247 7.382303721401006  1.045291427796247 7.382303721401006  C 1.7656107017760392 7.780755934675327  2.5861476307459066 8.01766612752871  3.460846518012462 8.047335273761473  C 2.0309868511412823 7.096948339130705  1.0885854553984176 5.473470696299166  1.0885854553984176 3.6346034451984934  C 1.0885854553984176 2.662695328471899  1.3512890660858223 1.7526938299061632  1.80890472937821 0.9692511885999684  C 4.438435518139665 4.178478769701556  8.370527218422984 6.289239537492392  12.803617659206973 6.510031132462133  C 12.71150657894835 6.122295244167821  12.665540669227372 5.715783352858199  12.665540669227372 5.301212386045958  C 12.665540669227372 2.374683178750353  15.054014012626222 0  18.000410451179036 0  C 19.533160230910863 0  20.919726516637997 0.6434219988042078  21.894553928481244 1.6745798859027274  C 23.107765519743875 1.434924016879362  24.250602952732276 0.9934293389912697  25.282353911156168 0.38764735615850077  C 24.88424520270888 1.626134972646623  24.039386983903892 2.665352256598525  22.93717192871974 3.3222360406451794  C 24.012305964351913 3.195677203470062  25.044058054077514 2.907576541697129  26 2.487603106158134  Z " fill-rule="nonzero" fill="rgba(10, 20, 47, 1)" stroke="none" transform="matrix(1 0 0 1 198 3 )" class="fill" />
    <path d="M 26 2.487603106158134  C 25.28511469136747 3.5483415722058638  24.377899364670903 4.482609552454483  23.335369444351343 5.225666677357956  C 23.335369444351343 5.225666677357956  23.351582614016067 5.912219733165015  23.351582614016067 5.912219733165015  C 23.351582614016067 12.922995052789668  17.98695959706365 21  8.175615569854324 21  C 5.164278211109154 21  2.361393051112261 20.122324540645913  0 18.617257344058576  C 0.4170832239741679 18.665702192040303  0.8421838619636871 18.692625667124187  1.2728075957138434 18.692625667124187  C 3.7723673328699387 18.692625667124187  6.07149184085315 17.84453118840777  7.896698627887667 16.42298048488831  C 5.562386515520116 16.37993808052781  3.593578996287242 14.845289943471647  2.9138812112317822 12.739931805082948  C 3.241525843120627 12.801838473454865  3.5719319824861566 12.831507775341905  3.9185511501036974 12.831507775341905  C 4.40600938082838 12.831507775341905  4.87716579631855 12.769600926210181  5.324002497715268 12.648444527635185  C 2.8840389266249153 12.158416504777291  1.045291427796247 10.018075720401084  1.045291427796247 7.4496132099770795  C 1.045291427796247 7.4496132099770795  1.045291427796247 7.382303721401006  1.045291427796247 7.382303721401006  C 1.7656107017760392 7.780755934675327  2.5861476307459066 8.01766612752871  3.460846518012462 8.047335273761473  C 2.0309868511412823 7.096948339130705  1.0885854553984176 5.473470696299166  1.0885854553984176 3.6346034451984934  C 1.0885854553984176 2.662695328471899  1.3512890660858223 1.7526938299061632  1.80890472937821 0.9692511885999684  C 4.438435518139665 4.178478769701556  8.370527218422984 6.289239537492392  12.803617659206973 6.510031132462133  C 12.71150657894835 6.122295244167821  12.665540669227372 5.715783352858199  12.665540669227372 5.301212386045958  C 12.665540669227372 2.374683178750353  15.054014012626222 0  18.000410451179036 0  C 19.533160230910863 0  20.919726516637997 0.6434219988042078  21.894553928481244 1.6745798859027274  C 23.107765519743875 1.434924016879362  24.250602952732276 0.9934293389912697  25.282353911156168 0.38764735615850077  C 24.88424520270888 1.626134972646623  24.039386983903892 2.665352256598525  22.93717192871974 3.3222360406451794  C 24.012305964351913 3.195677203470062  25.044058054077514 2.907576541697129  26 2.487603106158134  Z " stroke-width="0" stroke-dasharray="0" stroke="rgba(121, 121, 121, 1)" fill="none" transform="matrix(1 0 0 1 198 3 )" class="stroke" mask="url(#Clip22)" />
  </g>
</svg>