<?xml version="1.0" encoding="utf-8"?>
<svg version="1.1" xmlns:xlink="http://www.w3.org/1999/xlink" width="6px" height="6px" xmlns="http://www.w3.org/2000/svg">
  <defs>
    <pattern id="BGPattern" patternUnits="userSpaceOnUse" alignment="0 0" imageRepeat="None" />
    <mask fill="white" id="Clip20">
      <path d="M 3 0  C 4.656854311625163 0  6 1.3431456883748372  6 3  C 6 4.656854311625163  4.656854311625163 6  3 6  C 1.3431456883748372 6  0 4.656854311625163  0 3  C 0 1.3431456883748372  1.3431456883748372 0  3 0  Z " fill-rule="evenodd" />
    </mask>
  </defs>
  <g transform="matrix(1 0 0 1 -72 -1 )">
    <path d="M 3 0  C 4.656854311625163 0  6 1.3431456883748372  6 3  C 6 4.656854311625163  4.656854311625163 6  3 6  C 1.3431456883748372 6  0 4.656854311625163  0 3  C 0 1.3431456883748372  1.3431456883748372 0  3 0  Z " fill-rule="nonzero" fill="rgba(35, 31, 32, 1)" stroke="none" transform="matrix(1 0 0 1 72 1 )" class="fill" />
    <path d="M 3 0  C 4.656854311625163 0  6 1.3431456883748372  6 3  C 6 4.656854311625163  4.656854311625163 6  3 6  C 1.3431456883748372 6  0 4.656854311625163  0 3  C 0 1.3431456883748372  1.3431456883748372 0  3 0  Z " stroke-width="0" stroke-dasharray="0" stroke="rgba(121, 121, 121, 1)" fill="none" transform="matrix(1 0 0 1 72 1 )" class="stroke" mask="url(#Clip20)" />
  </g>
</svg>