<?xml version="1.0" encoding="utf-8"?>
<svg version="1.1" xmlns:xlink="http://www.w3.org/1999/xlink" width="62px" height="62px" xmlns="http://www.w3.org/2000/svg">
  <defs>
    <pattern id="BGPattern" patternUnits="userSpaceOnUse" alignment="0 0" imageRepeat="None" />
    <mask fill="white" id="Clip14">
      <path d="M 31.517792302106024 0.1212104506736834  C 31.33769063180827 0.04040348114965918  31.15758896151053 0  30.97748729121278 0  C 30.97748729121278 0  30.969983055397662 0  30.954974582425564 0  C 30.93996610945346 0  30.93246187363834 0  30.93246187363834 0  C 30.81239408986154 0  30.68482207697894 0.02020174057482959  30.549745824255627 0.0606052253368417  C 30.414669571532315 0.1010087100988538  30.28709755864971 0.1616139318233426  30.16702977487291 0.2424209013473668  C 30.16702977487291 0.2424209013473668  29.85185185185185 0.4848418026947336  29.22149600580973 0.9696836053894672  C 28.591140159767605 1.454525408084201  28.12587750434183 1.7979550231427741  27.825708061002178 1.999972436115776  C 27.585572493448584 2.2019898490887777  27.33042846768337 2.4040072765111913  27.060275962236744 2.6060246894841934  C 26.790123456790123 2.808042102457195  26.504962471662086 3.0504630182539736  26.204793028322438 3.3332873935262937  C 21.79230210602759 7.212021815084163  17.950133025170064 10.908940560631505  14.678286129266521 14.424043630168326  C 11.436456063907043 17.97955026032657  8.734931009440814 21.383543595952123  6.5737109658678285 24.636024099426155  C 4.412490922294844 27.888504602900184  2.7915758896151055 31.050077037178372  1.7109658678286128 34.12074186464188  C 0.6303558460421206 37.15100313148397  0.060033891888398916 40.10045750827379  0 42.96910476382077  C 0 43.04991173334479  0 43.12061782716287  0 43.18122305249972  C 0 43.24182827783656  0 43.29233263107981  0 43.33273611584182  C 0 44.30241972123129  0.05252965741514205 45.251901604107694  0.15758896151053012 46.18118170667338  C 0.26264826560591825 47.11046180923906  0.40522875816993464 47.99933846677863  0.5853304284676834 48.847811621494415  C 0.5853304284676834 48.847811621494415  0.5403050108932461 48.726601170820736  0.5403050108932461 48.726601170820736  C 0.8704914135957162 50.342740474604746  1.3357540690214977 51.82756849535737  1.9360929557007986 53.1810852330786  C 2.5364318423800998 54.53460197079982  3.2418300653594767 55.75680730989436  4.052287581699346 56.84770136595752  C 6.423626297872484 60.03957664409471  9.020091930159468 61.736522881279214  11.841684822076978 61.93854029425222  C 14.663277713994487 62.14055770722522  17.364802768460716 61.655715947878726  19.946259985475667 60.48401488616802  C 22.527717202490624 59.31231382445731  24.824013498786922 57.837586751657696  26.83514887436456 56.05983343657857  C 28.87630108048626 54.28208012149945  30.27208911117299 53.009370447223425  31.022512708787215 52.24170424035755  C 31.772936306401448 53.04977389224956  33.15371575005779 54.34268534683629  35.16485112563544 56.120438661915415  C 37.175986501213075 57.85778841637311  39.47978691926621 59.322414772410326  42.07625272331154 60.51431749883644  C 44.67271852735687 61.70622022526256  47.381747703579954 62.18096119559958  50.20334059549746 61.93854029425222  C 53.02493348741496 61.736522881279214  55.60639070442992 60.03957664409471  57.94771241830065 56.84770136595752  C 58.75816993464052 55.75680730989436  59.463568157619896 54.54470280315753  60.0639070442992 53.21138784574701  C 60.6642459309785 51.8780728883365  61.11450012819266 50.44374926056301  61.41466957153231 48.90841684683125  C 61.41466957153231 48.90841684683125  61.45969498910675 48.78720639615757  61.45969498910675 48.78720639615757  C 61.6397966594045 47.97913674426557  61.774872912127805 47.12056269939442  61.86492374727668 46.21148431934179  C 61.95497458242556 45.30240593928917  61.99999999999999 44.38322666908119  61.99999999999999 43.453946566515505  C 61.99999999999999 43.37313959699148  61.99999999999999 43.29233263469216  61.99999999999999 43.21152566516813  C 61.99999999999999 43.13071869564411  61.99999999999999 43.070113473919626  61.99999999999999 43.02970998915762  C 61.93996610811159 40.12065917298921  61.36964415395788 37.15100313148397  60.28903413217139 34.12074186464188  C 59.20842411038489 31.090480597799797  57.59501337122034 27.939008880284025  55.448801742919386 24.66632671209457  C 53.30259011461843 21.393644543905122  50.59356076663702 17.97955026032657  47.321713870733475 14.424043630168326  C 44.049866974829925 10.908940560631505  40.2076978939724 7.212021815084163  35.79520697167756 3.3332873935262937  C 35.58508836348678 3.1312699805532915  35.337448566827376 2.9191516918743456  35.052287581699346 2.696932527489456  C 34.76712659657131 2.4747133631045655  34.459452924125856 2.2423933374631426  34.12926652142338 1.999972436115776  C 33.88913095386978 1.8383584970677276  33.483902217169636 1.5454332460894635  32.913580246913575 1.1211966687315713  C 32.343258276657515 0.6969600913736794  32.05809731299927 0.4848418026947336  32.05809731299927 0.4848418026947336  C 31.87799564270152 0.3232278636466852  31.697893972403776 0.2020174201977076  31.517792302106024 0.1212104506736834  Z M 19.541031227305737 58.24162154870488  C 17.5298958517281 59.25170859912048  15.48874364560639 59.75675218212592  13.41757443718228 59.75675218212592  C 13.38755749123808 59.75675218212592  13.350036310820625 59.75675218212592  13.305010893246186 59.75675218212592  C 13.259985475671748 59.75675218212592  13.207455823624056 59.75675218212592  13.147421931735657 59.75675218212592  C 11.58654073190239 59.75675218212592  10.123214746612348 59.36281821743645  8.75744371822803 58.57495028805751  C 7.3916726898437135 57.78708235867857  6.213507625272331 56.706289134973126  5.222948438634713 55.332570732536475  C 4.502541757443717 54.362887127147005  3.8796901619771984 53.28209390344156  3.35439360929557 52.09019117701544  C 2.829097056613941 50.89828845058932  2.431372549019607 49.635679550873355  2.1612200435729845 48.30236459346284  C 2.1612200435729845 48.30236459346284  2.1612200435729845 48.181154142789154  2.1612200435729845 48.181154142789154  C 1.9811183732752355 47.45389143874706  1.8535463550251812 46.68622523188118  1.7785039941902685 45.87815557998917  C 1.7034616333553558 45.070085928097164  1.6659404502541757 44.24181449589444  1.6659404502541757 43.39334134117866  C 1.6659404502541757 43.352937856416645  1.6659404502541757 43.3024335031734  1.6659404502541757 43.24182827783656  C 1.6659404502541757 43.18122305249972  1.6659404502541757 43.110516958681636  1.6659404502541757 43.02970998915762  C 1.695957396198375 40.403483634958  2.251270878721859 37.6358449341787  3.3318809005083514 34.7267941180103  C 4.412490922294843 31.858146862463318  6.003388952672177 28.84808726033665  8.104575163398692 25.69661554282088  C 10.205761374125206 22.54514382530511  12.847252595744967 19.272461657115663  16.029048656499636 15.878569038252527  C 19.180827886710237 12.444272858767969  22.87291212781409 8.868564563894306  27.105301379811184 5.1514441536315445  C 27.37545388525781 4.909023252284177  27.63810216159862 4.696904963605232  27.893246187363832 4.515089287594707  C 28.148390213129044 4.333273611584182  28.39603000978845 4.141357059867712  28.636165577342044 3.939339646894711  C 28.936335020681696 3.737322233921709  29.401597676107475 3.4039934801196683  30.0319535221496 2.9393534288368226  C 30.66230936819172 2.4747133775539774  30.97748729121278 2.2423933374631426  30.97748729121278 2.2423933374631426  C 30.97748729121278 2.2423933374631426  31.01500847431396 2.2625950780379727  31.090050835148876 2.3029985627999845  C 31.165093195983786 2.3434020475619968  31.217622850715205 2.3636037881368264  31.247639796659403 2.3636037881368264  C 31.277656742603604 2.404007272898838  31.570321970256064 2.6262264408960814  32.12563543936093 3.030261266842085  C 32.680948908465794 3.4342960927880886  33.09368191721133 3.737322233921709  33.363834422657945 3.939339646894711  C 33.63398692810457 4.141357059867712  33.881626724763976 4.333273611584182  34.106753812636164 4.515089287594707  C 34.331880900508345 4.696904963605232  34.594529176849164 4.929225003696066  34.89469862018881 5.212049378968387  C 39.12708787218591 8.92916978923115  42.83418070032012 12.48467641938939  46.015976761074796 15.878569038252527  C 49.167755991285404 19.272461657115663  51.80174291938997 22.54514382530511  53.917937545388526 25.69661554282088  C 56.03413217138707 28.84808726033665  57.617525994128385 31.858146862463318  58.66811909949165 34.7267941180103  C 59.74872912127813 37.6358449341787  60.31905107543186 40.403483634958  60.37908496732026 43.02970998915762  C 60.37908496732026 43.070113473919626  60.37908496732026 43.12061782716287  60.37908496732026 43.18122305249972  C 60.37908496732026 43.24182827783656  60.37908496732026 43.312534371654635  60.37908496732026 43.39334134117866  C 60.37908496732026 44.24181449589444  60.334059549745824 45.08018676045487  60.244008714596944 45.90845819265759  C 60.15395787944807 46.73672962486031  60.01888162672476 47.534698386596965  59.838779956427004 48.30236459346284  C 59.838779956427004 48.30236459346284  59.883805374001454 48.181154142789154  59.883805374001454 48.181154142789154  C 59.5836359306618 49.554872545225805  59.17090294338606 50.83768322525248  58.64560639070443 52.0295859516786  C 58.1203098380228 53.22148867810472  57.512466700767895 54.30228190181016  56.82207697893973 55.27196550719963  C 54.480755265068986 58.4234372247154  51.854272458721255 59.91836612117397  48.942628903413215 59.75675218212592  C 46.03098534810517 59.595138243077876  43.29193899782135 58.79716940909416  40.72549019607843 57.36284578132067  C 38.1590413943355 55.928522153547185  36.005325644277704 54.3426853468363  34.2643427741467 52.6053355923786  C 32.493343073471614 50.867985837920905  31.577826193994422 49.979109162319574  31.517792302106024 49.93870567755756  C 31.457758410217625 49.857898708033545  31.38271604938272 49.79729348630905  31.292665214233836 49.75689000154704  C 31.20261437908496 49.716486516785025  31.11256354393609 49.6962847762102  31.022512708787215 49.6962847762102  C 30.902444925010418 49.6962847762102  30.79738562091503 49.716486516785025  30.707334785766154 49.75689000154704  C 30.617283950617278 49.79729348630905  30.54224158978237 49.857898708033545  30.482207697893973 49.93870567755756  C 30.45219075194977 49.979109162319574  29.926894185849523 50.504354485899846  28.90631808278867 51.51444153631545  C 27.91575889615105 52.564932147352465  26.617526080007558 53.69622964844176  25.011619462599853 54.90833415517858  C 23.40571284519215 56.120438661915415  21.582183433427442 57.23153449828928  19.541031227305737 58.24162154870488  Z " fill-rule="evenodd" />
    </mask>
  </defs>
  <g transform="matrix(1 0 0 1 -1513 -181 )">
    <path d="M 31.517792302106024 0.1212104506736834  C 31.33769063180827 0.04040348114965918  31.15758896151053 0  30.97748729121278 0  C 30.97748729121278 0  30.969983055397662 0  30.954974582425564 0  C 30.93996610945346 0  30.93246187363834 0  30.93246187363834 0  C 30.81239408986154 0  30.68482207697894 0.02020174057482959  30.549745824255627 0.0606052253368417  C 30.414669571532315 0.1010087100988538  30.28709755864971 0.1616139318233426  30.16702977487291 0.2424209013473668  C 30.16702977487291 0.2424209013473668  29.85185185185185 0.4848418026947336  29.22149600580973 0.9696836053894672  C 28.591140159767605 1.454525408084201  28.12587750434183 1.7979550231427741  27.825708061002178 1.999972436115776  C 27.585572493448584 2.2019898490887777  27.33042846768337 2.4040072765111913  27.060275962236744 2.6060246894841934  C 26.790123456790123 2.808042102457195  26.504962471662086 3.0504630182539736  26.204793028322438 3.3332873935262937  C 21.79230210602759 7.212021815084163  17.950133025170064 10.908940560631505  14.678286129266521 14.424043630168326  C 11.436456063907043 17.97955026032657  8.734931009440814 21.383543595952123  6.5737109658678285 24.636024099426155  C 4.412490922294844 27.888504602900184  2.7915758896151055 31.050077037178372  1.7109658678286128 34.12074186464188  C 0.6303558460421206 37.15100313148397  0.060033891888398916 40.10045750827379  0 42.96910476382077  C 0 43.04991173334479  0 43.12061782716287  0 43.18122305249972  C 0 43.24182827783656  0 43.29233263107981  0 43.33273611584182  C 0 44.30241972123129  0.05252965741514205 45.251901604107694  0.15758896151053012 46.18118170667338  C 0.26264826560591825 47.11046180923906  0.40522875816993464 47.99933846677863  0.5853304284676834 48.847811621494415  C 0.5853304284676834 48.847811621494415  0.5403050108932461 48.726601170820736  0.5403050108932461 48.726601170820736  C 0.8704914135957162 50.342740474604746  1.3357540690214977 51.82756849535737  1.9360929557007986 53.1810852330786  C 2.5364318423800998 54.53460197079982  3.2418300653594767 55.75680730989436  4.052287581699346 56.84770136595752  C 6.423626297872484 60.03957664409471  9.020091930159468 61.736522881279214  11.841684822076978 61.93854029425222  C 14.663277713994487 62.14055770722522  17.364802768460716 61.655715947878726  19.946259985475667 60.48401488616802  C 22.527717202490624 59.31231382445731  24.824013498786922 57.837586751657696  26.83514887436456 56.05983343657857  C 28.87630108048626 54.28208012149945  30.27208911117299 53.009370447223425  31.022512708787215 52.24170424035755  C 31.772936306401448 53.04977389224956  33.15371575005779 54.34268534683629  35.16485112563544 56.120438661915415  C 37.175986501213075 57.85778841637311  39.47978691926621 59.322414772410326  42.07625272331154 60.51431749883644  C 44.67271852735687 61.70622022526256  47.381747703579954 62.18096119559958  50.20334059549746 61.93854029425222  C 53.02493348741496 61.736522881279214  55.60639070442992 60.03957664409471  57.94771241830065 56.84770136595752  C 58.75816993464052 55.75680730989436  59.463568157619896 54.54470280315753  60.0639070442992 53.21138784574701  C 60.6642459309785 51.8780728883365  61.11450012819266 50.44374926056301  61.41466957153231 48.90841684683125  C 61.41466957153231 48.90841684683125  61.45969498910675 48.78720639615757  61.45969498910675 48.78720639615757  C 61.6397966594045 47.97913674426557  61.774872912127805 47.12056269939442  61.86492374727668 46.21148431934179  C 61.95497458242556 45.30240593928917  61.99999999999999 44.38322666908119  61.99999999999999 43.453946566515505  C 61.99999999999999 43.37313959699148  61.99999999999999 43.29233263469216  61.99999999999999 43.21152566516813  C 61.99999999999999 43.13071869564411  61.99999999999999 43.070113473919626  61.99999999999999 43.02970998915762  C 61.93996610811159 40.12065917298921  61.36964415395788 37.15100313148397  60.28903413217139 34.12074186464188  C 59.20842411038489 31.090480597799797  57.59501337122034 27.939008880284025  55.448801742919386 24.66632671209457  C 53.30259011461843 21.393644543905122  50.59356076663702 17.97955026032657  47.321713870733475 14.424043630168326  C 44.049866974829925 10.908940560631505  40.2076978939724 7.212021815084163  35.79520697167756 3.3332873935262937  C 35.58508836348678 3.1312699805532915  35.337448566827376 2.9191516918743456  35.052287581699346 2.696932527489456  C 34.76712659657131 2.4747133631045655  34.459452924125856 2.2423933374631426  34.12926652142338 1.999972436115776  C 33.88913095386978 1.8383584970677276  33.483902217169636 1.5454332460894635  32.913580246913575 1.1211966687315713  C 32.343258276657515 0.6969600913736794  32.05809731299927 0.4848418026947336  32.05809731299927 0.4848418026947336  C 31.87799564270152 0.3232278636466852  31.697893972403776 0.2020174201977076  31.517792302106024 0.1212104506736834  Z M 19.541031227305737 58.24162154870488  C 17.5298958517281 59.25170859912048  15.48874364560639 59.75675218212592  13.41757443718228 59.75675218212592  C 13.38755749123808 59.75675218212592  13.350036310820625 59.75675218212592  13.305010893246186 59.75675218212592  C 13.259985475671748 59.75675218212592  13.207455823624056 59.75675218212592  13.147421931735657 59.75675218212592  C 11.58654073190239 59.75675218212592  10.123214746612348 59.36281821743645  8.75744371822803 58.57495028805751  C 7.3916726898437135 57.78708235867857  6.213507625272331 56.706289134973126  5.222948438634713 55.332570732536475  C 4.502541757443717 54.362887127147005  3.8796901619771984 53.28209390344156  3.35439360929557 52.09019117701544  C 2.829097056613941 50.89828845058932  2.431372549019607 49.635679550873355  2.1612200435729845 48.30236459346284  C 2.1612200435729845 48.30236459346284  2.1612200435729845 48.181154142789154  2.1612200435729845 48.181154142789154  C 1.9811183732752355 47.45389143874706  1.8535463550251812 46.68622523188118  1.7785039941902685 45.87815557998917  C 1.7034616333553558 45.070085928097164  1.6659404502541757 44.24181449589444  1.6659404502541757 43.39334134117866  C 1.6659404502541757 43.352937856416645  1.6659404502541757 43.3024335031734  1.6659404502541757 43.24182827783656  C 1.6659404502541757 43.18122305249972  1.6659404502541757 43.110516958681636  1.6659404502541757 43.02970998915762  C 1.695957396198375 40.403483634958  2.251270878721859 37.6358449341787  3.3318809005083514 34.7267941180103  C 4.412490922294843 31.858146862463318  6.003388952672177 28.84808726033665  8.104575163398692 25.69661554282088  C 10.205761374125206 22.54514382530511  12.847252595744967 19.272461657115663  16.029048656499636 15.878569038252527  C 19.180827886710237 12.444272858767969  22.87291212781409 8.868564563894306  27.105301379811184 5.1514441536315445  C 27.37545388525781 4.909023252284177  27.63810216159862 4.696904963605232  27.893246187363832 4.515089287594707  C 28.148390213129044 4.333273611584182  28.39603000978845 4.141357059867712  28.636165577342044 3.939339646894711  C 28.936335020681696 3.737322233921709  29.401597676107475 3.4039934801196683  30.0319535221496 2.9393534288368226  C 30.66230936819172 2.4747133775539774  30.97748729121278 2.2423933374631426  30.97748729121278 2.2423933374631426  C 30.97748729121278 2.2423933374631426  31.01500847431396 2.2625950780379727  31.090050835148876 2.3029985627999845  C 31.165093195983786 2.3434020475619968  31.217622850715205 2.3636037881368264  31.247639796659403 2.3636037881368264  C 31.277656742603604 2.404007272898838  31.570321970256064 2.6262264408960814  32.12563543936093 3.030261266842085  C 32.680948908465794 3.4342960927880886  33.09368191721133 3.737322233921709  33.363834422657945 3.939339646894711  C 33.63398692810457 4.141357059867712  33.881626724763976 4.333273611584182  34.106753812636164 4.515089287594707  C 34.331880900508345 4.696904963605232  34.594529176849164 4.929225003696066  34.89469862018881 5.212049378968387  C 39.12708787218591 8.92916978923115  42.83418070032012 12.48467641938939  46.015976761074796 15.878569038252527  C 49.167755991285404 19.272461657115663  51.80174291938997 22.54514382530511  53.917937545388526 25.69661554282088  C 56.03413217138707 28.84808726033665  57.617525994128385 31.858146862463318  58.66811909949165 34.7267941180103  C 59.74872912127813 37.6358449341787  60.31905107543186 40.403483634958  60.37908496732026 43.02970998915762  C 60.37908496732026 43.070113473919626  60.37908496732026 43.12061782716287  60.37908496732026 43.18122305249972  C 60.37908496732026 43.24182827783656  60.37908496732026 43.312534371654635  60.37908496732026 43.39334134117866  C 60.37908496732026 44.24181449589444  60.334059549745824 45.08018676045487  60.244008714596944 45.90845819265759  C 60.15395787944807 46.73672962486031  60.01888162672476 47.534698386596965  59.838779956427004 48.30236459346284  C 59.838779956427004 48.30236459346284  59.883805374001454 48.181154142789154  59.883805374001454 48.181154142789154  C 59.5836359306618 49.554872545225805  59.17090294338606 50.83768322525248  58.64560639070443 52.0295859516786  C 58.1203098380228 53.22148867810472  57.512466700767895 54.30228190181016  56.82207697893973 55.27196550719963  C 54.480755265068986 58.4234372247154  51.854272458721255 59.91836612117397  48.942628903413215 59.75675218212592  C 46.03098534810517 59.595138243077876  43.29193899782135 58.79716940909416  40.72549019607843 57.36284578132067  C 38.1590413943355 55.928522153547185  36.005325644277704 54.3426853468363  34.2643427741467 52.6053355923786  C 32.493343073471614 50.867985837920905  31.577826193994422 49.979109162319574  31.517792302106024 49.93870567755756  C 31.457758410217625 49.857898708033545  31.38271604938272 49.79729348630905  31.292665214233836 49.75689000154704  C 31.20261437908496 49.716486516785025  31.11256354393609 49.6962847762102  31.022512708787215 49.6962847762102  C 30.902444925010418 49.6962847762102  30.79738562091503 49.716486516785025  30.707334785766154 49.75689000154704  C 30.617283950617278 49.79729348630905  30.54224158978237 49.857898708033545  30.482207697893973 49.93870567755756  C 30.45219075194977 49.979109162319574  29.926894185849523 50.504354485899846  28.90631808278867 51.51444153631545  C 27.91575889615105 52.564932147352465  26.617526080007558 53.69622964844176  25.011619462599853 54.90833415517858  C 23.40571284519215 56.120438661915415  21.582183433427442 57.23153449828928  19.541031227305737 58.24162154870488  Z " fill-rule="nonzero" fill="rgba(0, 0, 0, 1)" stroke="none" transform="matrix(1 0 0 1 1513 181 )" class="fill" />
    <path d="M 31.517792302106024 0.1212104506736834  C 31.33769063180827 0.04040348114965918  31.15758896151053 0  30.97748729121278 0  C 30.97748729121278 0  30.969983055397662 0  30.954974582425564 0  C 30.93996610945346 0  30.93246187363834 0  30.93246187363834 0  C 30.81239408986154 0  30.68482207697894 0.02020174057482959  30.549745824255627 0.0606052253368417  C 30.414669571532315 0.1010087100988538  30.28709755864971 0.1616139318233426  30.16702977487291 0.2424209013473668  C 30.16702977487291 0.2424209013473668  29.85185185185185 0.4848418026947336  29.22149600580973 0.9696836053894672  C 28.591140159767605 1.454525408084201  28.12587750434183 1.7979550231427741  27.825708061002178 1.999972436115776  C 27.585572493448584 2.2019898490887777  27.33042846768337 2.4040072765111913  27.060275962236744 2.6060246894841934  C 26.790123456790123 2.808042102457195  26.504962471662086 3.0504630182539736  26.204793028322438 3.3332873935262937  C 21.79230210602759 7.212021815084163  17.950133025170064 10.908940560631505  14.678286129266521 14.424043630168326  C 11.436456063907043 17.97955026032657  8.734931009440814 21.383543595952123  6.5737109658678285 24.636024099426155  C 4.412490922294844 27.888504602900184  2.7915758896151055 31.050077037178372  1.7109658678286128 34.12074186464188  C 0.6303558460421206 37.15100313148397  0.060033891888398916 40.10045750827379  0 42.96910476382077  C 0 43.04991173334479  0 43.12061782716287  0 43.18122305249972  C 0 43.24182827783656  0 43.29233263107981  0 43.33273611584182  C 0 44.30241972123129  0.05252965741514205 45.251901604107694  0.15758896151053012 46.18118170667338  C 0.26264826560591825 47.11046180923906  0.40522875816993464 47.99933846677863  0.5853304284676834 48.847811621494415  C 0.5853304284676834 48.847811621494415  0.5403050108932461 48.726601170820736  0.5403050108932461 48.726601170820736  C 0.8704914135957162 50.342740474604746  1.3357540690214977 51.82756849535737  1.9360929557007986 53.1810852330786  C 2.5364318423800998 54.53460197079982  3.2418300653594767 55.75680730989436  4.052287581699346 56.84770136595752  C 6.423626297872484 60.03957664409471  9.020091930159468 61.736522881279214  11.841684822076978 61.93854029425222  C 14.663277713994487 62.14055770722522  17.364802768460716 61.655715947878726  19.946259985475667 60.48401488616802  C 22.527717202490624 59.31231382445731  24.824013498786922 57.837586751657696  26.83514887436456 56.05983343657857  C 28.87630108048626 54.28208012149945  30.27208911117299 53.009370447223425  31.022512708787215 52.24170424035755  C 31.772936306401448 53.04977389224956  33.15371575005779 54.34268534683629  35.16485112563544 56.120438661915415  C 37.175986501213075 57.85778841637311  39.47978691926621 59.322414772410326  42.07625272331154 60.51431749883644  C 44.67271852735687 61.70622022526256  47.381747703579954 62.18096119559958  50.20334059549746 61.93854029425222  C 53.02493348741496 61.736522881279214  55.60639070442992 60.03957664409471  57.94771241830065 56.84770136595752  C 58.75816993464052 55.75680730989436  59.463568157619896 54.54470280315753  60.0639070442992 53.21138784574701  C 60.6642459309785 51.8780728883365  61.11450012819266 50.44374926056301  61.41466957153231 48.90841684683125  C 61.41466957153231 48.90841684683125  61.45969498910675 48.78720639615757  61.45969498910675 48.78720639615757  C 61.6397966594045 47.97913674426557  61.774872912127805 47.12056269939442  61.86492374727668 46.21148431934179  C 61.95497458242556 45.30240593928917  61.99999999999999 44.38322666908119  61.99999999999999 43.453946566515505  C 61.99999999999999 43.37313959699148  61.99999999999999 43.29233263469216  61.99999999999999 43.21152566516813  C 61.99999999999999 43.13071869564411  61.99999999999999 43.070113473919626  61.99999999999999 43.02970998915762  C 61.93996610811159 40.12065917298921  61.36964415395788 37.15100313148397  60.28903413217139 34.12074186464188  C 59.20842411038489 31.090480597799797  57.59501337122034 27.939008880284025  55.448801742919386 24.66632671209457  C 53.30259011461843 21.393644543905122  50.59356076663702 17.97955026032657  47.321713870733475 14.424043630168326  C 44.049866974829925 10.908940560631505  40.2076978939724 7.212021815084163  35.79520697167756 3.3332873935262937  C 35.58508836348678 3.1312699805532915  35.337448566827376 2.9191516918743456  35.052287581699346 2.696932527489456  C 34.76712659657131 2.4747133631045655  34.459452924125856 2.2423933374631426  34.12926652142338 1.999972436115776  C 33.88913095386978 1.8383584970677276  33.483902217169636 1.5454332460894635  32.913580246913575 1.1211966687315713  C 32.343258276657515 0.6969600913736794  32.05809731299927 0.4848418026947336  32.05809731299927 0.4848418026947336  C 31.87799564270152 0.3232278636466852  31.697893972403776 0.2020174201977076  31.517792302106024 0.1212104506736834  Z " stroke-width="0" stroke-dasharray="0" stroke="rgba(121, 121, 121, 1)" fill="none" transform="matrix(1 0 0 1 1513 181 )" class="stroke" mask="url(#Clip14)" />
    <path d="M 19.541031227305737 58.24162154870488  C 17.5298958517281 59.25170859912048  15.48874364560639 59.75675218212592  13.41757443718228 59.75675218212592  C 13.38755749123808 59.75675218212592  13.350036310820625 59.75675218212592  13.305010893246186 59.75675218212592  C 13.259985475671748 59.75675218212592  13.207455823624056 59.75675218212592  13.147421931735657 59.75675218212592  C 11.58654073190239 59.75675218212592  10.123214746612348 59.36281821743645  8.75744371822803 58.57495028805751  C 7.3916726898437135 57.78708235867857  6.213507625272331 56.706289134973126  5.222948438634713 55.332570732536475  C 4.502541757443717 54.362887127147005  3.8796901619771984 53.28209390344156  3.35439360929557 52.09019117701544  C 2.829097056613941 50.89828845058932  2.431372549019607 49.635679550873355  2.1612200435729845 48.30236459346284  C 2.1612200435729845 48.30236459346284  2.1612200435729845 48.181154142789154  2.1612200435729845 48.181154142789154  C 1.9811183732752355 47.45389143874706  1.8535463550251812 46.68622523188118  1.7785039941902685 45.87815557998917  C 1.7034616333553558 45.070085928097164  1.6659404502541757 44.24181449589444  1.6659404502541757 43.39334134117866  C 1.6659404502541757 43.352937856416645  1.6659404502541757 43.3024335031734  1.6659404502541757 43.24182827783656  C 1.6659404502541757 43.18122305249972  1.6659404502541757 43.110516958681636  1.6659404502541757 43.02970998915762  C 1.695957396198375 40.403483634958  2.251270878721859 37.6358449341787  3.3318809005083514 34.7267941180103  C 4.412490922294843 31.858146862463318  6.003388952672177 28.84808726033665  8.104575163398692 25.69661554282088  C 10.205761374125206 22.54514382530511  12.847252595744967 19.272461657115663  16.029048656499636 15.878569038252527  C 19.180827886710237 12.444272858767969  22.87291212781409 8.868564563894306  27.105301379811184 5.1514441536315445  C 27.37545388525781 4.909023252284177  27.63810216159862 4.696904963605232  27.893246187363832 4.515089287594707  C 28.148390213129044 4.333273611584182  28.39603000978845 4.141357059867712  28.636165577342044 3.939339646894711  C 28.936335020681696 3.737322233921709  29.401597676107475 3.4039934801196683  30.0319535221496 2.9393534288368226  C 30.66230936819172 2.4747133775539774  30.97748729121278 2.2423933374631426  30.97748729121278 2.2423933374631426  C 30.97748729121278 2.2423933374631426  31.01500847431396 2.2625950780379727  31.090050835148876 2.3029985627999845  C 31.165093195983786 2.3434020475619968  31.217622850715205 2.3636037881368264  31.247639796659403 2.3636037881368264  C 31.277656742603604 2.404007272898838  31.570321970256064 2.6262264408960814  32.12563543936093 3.030261266842085  C 32.680948908465794 3.4342960927880886  33.09368191721133 3.737322233921709  33.363834422657945 3.939339646894711  C 33.63398692810457 4.141357059867712  33.881626724763976 4.333273611584182  34.106753812636164 4.515089287594707  C 34.331880900508345 4.696904963605232  34.594529176849164 4.929225003696066  34.89469862018881 5.212049378968387  C 39.12708787218591 8.92916978923115  42.83418070032012 12.48467641938939  46.015976761074796 15.878569038252527  C 49.167755991285404 19.272461657115663  51.80174291938997 22.54514382530511  53.917937545388526 25.69661554282088  C 56.03413217138707 28.84808726033665  57.617525994128385 31.858146862463318  58.66811909949165 34.7267941180103  C 59.74872912127813 37.6358449341787  60.31905107543186 40.403483634958  60.37908496732026 43.02970998915762  C 60.37908496732026 43.070113473919626  60.37908496732026 43.12061782716287  60.37908496732026 43.18122305249972  C 60.37908496732026 43.24182827783656  60.37908496732026 43.312534371654635  60.37908496732026 43.39334134117866  C 60.37908496732026 44.24181449589444  60.334059549745824 45.08018676045487  60.244008714596944 45.90845819265759  C 60.15395787944807 46.73672962486031  60.01888162672476 47.534698386596965  59.838779956427004 48.30236459346284  C 59.838779956427004 48.30236459346284  59.883805374001454 48.181154142789154  59.883805374001454 48.181154142789154  C 59.5836359306618 49.554872545225805  59.17090294338606 50.83768322525248  58.64560639070443 52.0295859516786  C 58.1203098380228 53.22148867810472  57.512466700767895 54.30228190181016  56.82207697893973 55.27196550719963  C 54.480755265068986 58.4234372247154  51.854272458721255 59.91836612117397  48.942628903413215 59.75675218212592  C 46.03098534810517 59.595138243077876  43.29193899782135 58.79716940909416  40.72549019607843 57.36284578132067  C 38.1590413943355 55.928522153547185  36.005325644277704 54.3426853468363  34.2643427741467 52.6053355923786  C 32.493343073471614 50.867985837920905  31.577826193994422 49.979109162319574  31.517792302106024 49.93870567755756  C 31.457758410217625 49.857898708033545  31.38271604938272 49.79729348630905  31.292665214233836 49.75689000154704  C 31.20261437908496 49.716486516785025  31.11256354393609 49.6962847762102  31.022512708787215 49.6962847762102  C 30.902444925010418 49.6962847762102  30.79738562091503 49.716486516785025  30.707334785766154 49.75689000154704  C 30.617283950617278 49.79729348630905  30.54224158978237 49.857898708033545  30.482207697893973 49.93870567755756  C 30.45219075194977 49.979109162319574  29.926894185849523 50.504354485899846  28.90631808278867 51.51444153631545  C 27.91575889615105 52.564932147352465  26.617526080007558 53.69622964844176  25.011619462599853 54.90833415517858  C 23.40571284519215 56.120438661915415  21.582183433427442 57.23153449828928  19.541031227305737 58.24162154870488  Z " stroke-width="0" stroke-dasharray="0" stroke="rgba(121, 121, 121, 1)" fill="none" transform="matrix(1 0 0 1 1513 181 )" class="stroke" mask="url(#Clip14)" />
  </g>
</svg>