<?xml version="1.0" encoding="utf-8"?>
<svg version="1.1" xmlns:xlink="http://www.w3.org/1999/xlink" width="17px" height="18px" xmlns="http://www.w3.org/2000/svg">
  <defs>
    <pattern id="BGPattern" patternUnits="userSpaceOnUse" alignment="0 0" imageRepeat="None" />
    <mask fill="white" id="Clip18">
      <path d="M 11.74725600588637 0.6244424237369186  C 10.717105326972137 0.2084696935625799  9.613640276609571 -0.0037087305720869767  8.499999307159673 4.905352915721278E-05  C 7.386358337709774 -0.0037087305720869767  6.282893287347212 0.2084696935625799  5.252742608432976 0.6244424237369186  C 4.222591929518739 1.0404151539112576  3.2859760803805638 1.6520186448113372  2.496486606703646 2.4242565939963794  C 1.7069971330267286 3.1964945431814216  1.0801302314640964 4.114210340162581  0.6517548952633279 5.1248926930129315  C 0.2233795590625593 6.135575045863282  0.0019036430746019286 7.219386646810111  0 8.314312780396506  C 0 8.314312780396506  0 16.714289801450096  0 16.714289801450096  C 0 17.0552815000408  0.1377747198500139 17.38230748566427  0.38301460368840473 17.623425022558877  C 0.6282544875267956 17.864542559453486  0.9608701970576456 17.999999999999996  1.3076917747382102 18  C 1.3076917747382102 18  4.358974430034905 18  4.358974430034905 18  C 4.70579600771547 18  5.038411717246319 17.864542559453486  5.283651601084711 17.623425022558877  C 5.5288914849231015 17.38230748566427  5.666666204773116 17.0552815000408  5.666666204773116 16.714289801450096  C 5.666666204773116 16.714289801450096  5.666666204773116 8.314312780396506  5.666666204773116 8.314312780396506  C 5.666380467763921 7.924886906647802  5.7495717813756215 7.539772863597549  5.910816207475192 7.184076952525467  C 6.072060633574765 6.828381041453383  6.3077381733888345 6.510088410758355  6.602485633955826 6.24994872122466  C 6.89723309452282 5.989809031690964  7.244433244488109 5.793662766713966  7.621451445057069 5.674296141096181  C 7.998469645626029 5.554929515478395  8.396842181019778 5.515022623400954  8.790598711039857 5.5571770833601395  C 9.49676261696877 5.644628021540339  10.145728570102277 5.983839068205238  10.614414958699788 6.5104768403857864  C 11.0831013472973 7.037114612566335  11.338913428502385 7.714554062172128  11.333333795226883 8.414312068927151  C 11.333333795226883 8.414312068927151  11.333333795226883 16.714289801450096  11.333333795226883 16.714289801450096  C 11.333333795226883 17.0552815000408  11.471107129396245 17.38230748566427  11.716347013234637 17.623425022558877  C 11.961586897073026 17.864542559453486  12.29420399228453 17.999999999999996  12.641025569965096 18  C 12.641025569965096 18  15.692308225261792 18  15.692308225261792 18  C 16.039129802942355 18  16.37174689815386 17.864542559453486  16.61698678199225 17.623425022558877  C 16.86222666583064 17.38230748566427  16.999999999999996 17.0552815000408  17 16.714289801450096  C 17 16.714289801450096  17 8.314312780396506  17 8.314312780396506  C 16.998096356925398 7.219386646810111  16.776620440937442 6.135575045863282  16.348245104736673 5.1248926930129315  C 15.919869768535904 4.114210340162581  15.293002866973271 3.1964945431814216  14.503513393296354 2.4242565939963794  C 13.71402391961944 1.6520186448113372  12.777406684800606 1.0404151539112576  11.74725600588637 0.6244424237369186  Z " fill-rule="evenodd" />
    </mask>
  </defs>
  <g transform="matrix(1 0 0 1 -81 -9 )">
    <path d="M 11.74725600588637 0.6244424237369186  C 10.717105326972137 0.2084696935625799  9.613640276609571 -0.0037087305720869767  8.499999307159673 4.905352915721278E-05  C 7.386358337709774 -0.0037087305720869767  6.282893287347212 0.2084696935625799  5.252742608432976 0.6244424237369186  C 4.222591929518739 1.0404151539112576  3.2859760803805638 1.6520186448113372  2.496486606703646 2.4242565939963794  C 1.7069971330267286 3.1964945431814216  1.0801302314640964 4.114210340162581  0.6517548952633279 5.1248926930129315  C 0.2233795590625593 6.135575045863282  0.0019036430746019286 7.219386646810111  0 8.314312780396506  C 0 8.314312780396506  0 16.714289801450096  0 16.714289801450096  C 0 17.0552815000408  0.1377747198500139 17.38230748566427  0.38301460368840473 17.623425022558877  C 0.6282544875267956 17.864542559453486  0.9608701970576456 17.999999999999996  1.3076917747382102 18  C 1.3076917747382102 18  4.358974430034905 18  4.358974430034905 18  C 4.70579600771547 18  5.038411717246319 17.864542559453486  5.283651601084711 17.623425022558877  C 5.5288914849231015 17.38230748566427  5.666666204773116 17.0552815000408  5.666666204773116 16.714289801450096  C 5.666666204773116 16.714289801450096  5.666666204773116 8.314312780396506  5.666666204773116 8.314312780396506  C 5.666380467763921 7.924886906647802  5.7495717813756215 7.539772863597549  5.910816207475192 7.184076952525467  C 6.072060633574765 6.828381041453383  6.3077381733888345 6.510088410758355  6.602485633955826 6.24994872122466  C 6.89723309452282 5.989809031690964  7.244433244488109 5.793662766713966  7.621451445057069 5.674296141096181  C 7.998469645626029 5.554929515478395  8.396842181019778 5.515022623400954  8.790598711039857 5.5571770833601395  C 9.49676261696877 5.644628021540339  10.145728570102277 5.983839068205238  10.614414958699788 6.5104768403857864  C 11.0831013472973 7.037114612566335  11.338913428502385 7.714554062172128  11.333333795226883 8.414312068927151  C 11.333333795226883 8.414312068927151  11.333333795226883 16.714289801450096  11.333333795226883 16.714289801450096  C 11.333333795226883 17.0552815000408  11.471107129396245 17.38230748566427  11.716347013234637 17.623425022558877  C 11.961586897073026 17.864542559453486  12.29420399228453 17.999999999999996  12.641025569965096 18  C 12.641025569965096 18  15.692308225261792 18  15.692308225261792 18  C 16.039129802942355 18  16.37174689815386 17.864542559453486  16.61698678199225 17.623425022558877  C 16.86222666583064 17.38230748566427  16.999999999999996 17.0552815000408  17 16.714289801450096  C 17 16.714289801450096  17 8.314312780396506  17 8.314312780396506  C 16.998096356925398 7.219386646810111  16.776620440937442 6.135575045863282  16.348245104736673 5.1248926930129315  C 15.919869768535904 4.114210340162581  15.293002866973271 3.1964945431814216  14.503513393296354 2.4242565939963794  C 13.71402391961944 1.6520186448113372  12.777406684800606 1.0404151539112576  11.74725600588637 0.6244424237369186  Z " fill-rule="nonzero" fill="rgba(35, 31, 32, 1)" stroke="none" transform="matrix(1 0 0 1 81 9 )" class="fill" />
    <path d="M 11.74725600588637 0.6244424237369186  C 10.717105326972137 0.2084696935625799  9.613640276609571 -0.0037087305720869767  8.499999307159673 4.905352915721278E-05  C 7.386358337709774 -0.0037087305720869767  6.282893287347212 0.2084696935625799  5.252742608432976 0.6244424237369186  C 4.222591929518739 1.0404151539112576  3.2859760803805638 1.6520186448113372  2.496486606703646 2.4242565939963794  C 1.7069971330267286 3.1964945431814216  1.0801302314640964 4.114210340162581  0.6517548952633279 5.1248926930129315  C 0.2233795590625593 6.135575045863282  0.0019036430746019286 7.219386646810111  0 8.314312780396506  C 0 8.314312780396506  0 16.714289801450096  0 16.714289801450096  C 0 17.0552815000408  0.1377747198500139 17.38230748566427  0.38301460368840473 17.623425022558877  C 0.6282544875267956 17.864542559453486  0.9608701970576456 17.999999999999996  1.3076917747382102 18  C 1.3076917747382102 18  4.358974430034905 18  4.358974430034905 18  C 4.70579600771547 18  5.038411717246319 17.864542559453486  5.283651601084711 17.623425022558877  C 5.5288914849231015 17.38230748566427  5.666666204773116 17.0552815000408  5.666666204773116 16.714289801450096  C 5.666666204773116 16.714289801450096  5.666666204773116 8.314312780396506  5.666666204773116 8.314312780396506  C 5.666380467763921 7.924886906647802  5.7495717813756215 7.539772863597549  5.910816207475192 7.184076952525467  C 6.072060633574765 6.828381041453383  6.3077381733888345 6.510088410758355  6.602485633955826 6.24994872122466  C 6.89723309452282 5.989809031690964  7.244433244488109 5.793662766713966  7.621451445057069 5.674296141096181  C 7.998469645626029 5.554929515478395  8.396842181019778 5.515022623400954  8.790598711039857 5.5571770833601395  C 9.49676261696877 5.644628021540339  10.145728570102277 5.983839068205238  10.614414958699788 6.5104768403857864  C 11.0831013472973 7.037114612566335  11.338913428502385 7.714554062172128  11.333333795226883 8.414312068927151  C 11.333333795226883 8.414312068927151  11.333333795226883 16.714289801450096  11.333333795226883 16.714289801450096  C 11.333333795226883 17.0552815000408  11.471107129396245 17.38230748566427  11.716347013234637 17.623425022558877  C 11.961586897073026 17.864542559453486  12.29420399228453 17.999999999999996  12.641025569965096 18  C 12.641025569965096 18  15.692308225261792 18  15.692308225261792 18  C 16.039129802942355 18  16.37174689815386 17.864542559453486  16.61698678199225 17.623425022558877  C 16.86222666583064 17.38230748566427  16.999999999999996 17.0552815000408  17 16.714289801450096  C 17 16.714289801450096  17 8.314312780396506  17 8.314312780396506  C 16.998096356925398 7.219386646810111  16.776620440937442 6.135575045863282  16.348245104736673 5.1248926930129315  C 15.919869768535904 4.114210340162581  15.293002866973271 3.1964945431814216  14.503513393296354 2.4242565939963794  C 13.71402391961944 1.6520186448113372  12.777406684800606 1.0404151539112576  11.74725600588637 0.6244424237369186  Z " stroke-width="0" stroke-dasharray="0" stroke="rgba(121, 121, 121, 1)" fill="none" transform="matrix(1 0 0 1 81 9 )" class="stroke" mask="url(#Clip18)" />
  </g>
</svg>