<?xml version="1.0" encoding="utf-8"?>
<svg version="1.1" xmlns:xlink="http://www.w3.org/1999/xlink" width="49px" height="62px" xmlns="http://www.w3.org/2000/svg">
  <defs>
    <pattern id="BGPattern" patternUnits="userSpaceOnUse" alignment="0 0" imageRepeat="None" />
    <mask fill="white" id="Clip15">
      <path d="M 25.04669420108778 61.97980579249092  C 23.99380162703959 62.02019667397651  23.183884311404665 62.000001235039335  22.616942196253195 61.91921947206815  C 20.632644648398546 61.59609242018346  18.800206716705656 60.828665704458345  17.11962828531493 59.616939296003004  C 15.439049853924212 58.405212887547655  14.133057166518984 56.89055487697846  13.201652250642326 55.07296526429545  C 12.796693592824862 54.22475677837671  12.47272664919195 53.315961972035204  12.22975144870849 52.34658084527093  C 11.98677624822503 51.37719971850665  11.865288647983302 50.46840491216514  11.865288647983302 49.620196426246395  C 11.865288647983302 49.620196426246395  11.865288647983302 48.953746901595956  11.865288647983302 48.953746901595956  L 4.7582644972805435 48.89316058117319  C 4.7582644972805435 48.89316058117319  4.211570296192761 48.52964265863658  4.211570296192761 48.52964265863658  C 3.725619895225843 48.20651560675189  3.3915287628418787 47.33811172884191  3.2092973624792847 45.92443088045759  C 3.02706596211669 44.51075003207328  2.4904958628852563 38.169381866343386  1.599586775135973 26.900326267708667  C 1.3161157175602378 23.345928725866834  1.073140444664526 20.2560263843057  0.8706611157557939 17.630619243025276  C 0.6681817868470616 15.045602827947715  0.49607437248121217 12.884690771388762  0.3543388436933447 11.147882957789179  C 0.21260331490547707 9.411075144189594  0.12148760386234211 8.078176037109099  0.08099173590822807 7.1491858098865375  C 0 6.220195582663979  -0.020247933977057018 5.654723234643311  0.020247933977057018 5.452768838049055  C 0.020247933977057018 4.927687375125199  0.05061983584779571 4.543974031707545  0.11136363596866043 4.3016287500164765  C 0.1721074360895252 4.059283468325407  0.30371898612187315 3.7361564164407124  0.5061983150306054 3.3322476232522003  C 0.7491735155140644 2.807166160328345  1.0933884311404662 2.302280176065157  1.5388429750151082 1.8175896126830182  C 1.9842975188897498 1.3328990493008799  2.4499998609684748 0.9693811267642763  2.935950261935393 0.7270358450732073  C 3.624379977328592 0.36351792253660364  4.738016525287054 0.1514658010569182  6.276859500302162 0.09087948063415091  C 7.81570247531727 0.030293160211383636  13.86983497884867 0  24.439256199879136 0  C 27.557437862177125 0  30.33140295784935 0  32.76115496268394 0  C 35.19090696751852 0  37.25619617162793 0.010097719468590194  38.95702257501214 0.030293160211383636  C 40.65784897839635 0.05048860095417708  41.97396466699169 0.06058632042276727  42.90536958286835 0.06058632042276727  C 43.83677449874501 0.10097720190835416  44.342972849981734 0.12117264084553454  44.42396458588996 0.12117264084553454  C 45.27437778758207 0.2827361667878821  46.07417117515006 0.6563517853201062  46.82334469066412 1.242019568666729  C 47.57251820617819 1.8276873520133519  48.12933639326271 2.524430036875176  48.4937991939879 3.3322476232522003  C 48.696278522896634 3.7361564164407124  48.82789009465266 4.059283468325407  48.88863389477353 4.3016287500164765  C 48.949377694894395 4.543974031707545  48.979749594954825 4.927687375125199  48.979749594954825 5.452768838049055  C 49.02024546290893 5.654723234643311  48.99999753074219 6.220195582663979  48.91900579483396 7.1491858098865375  C 48.87850992687984 8.078176037109099  48.78739422307793 9.411075144189594  48.64565869429006 11.147882957789179  C 48.503923165502194 12.884690771388762  48.33181572217145 15.045602827947715  48.12933639326272 17.630619243025276  C 47.92685706435399 20.2560263843057  47.68388184938808 23.345928725866834  47.40041079181234 26.900326267708667  C 46.509501704063055 38.169381866343386  45.972931488972016 44.51075003207328  45.79070008860942 45.92443088045759  C 45.60846868824683 47.33811172884191  45.27437778758207 48.20651560675189  44.788427386615155 48.52964265863658  C 44.788427386615155 48.52964265863658  44.24173318552738 48.89316058117319  44.24173318552738 48.89316058117319  L 37.1347085713862 48.953746901595956  C 37.1347085713862 48.953746901595956  37.1347085713862 49.68078274666917  37.1347085713862 49.68078274666917  C 37.1347085713862 49.842346272611515  37.11446063921945 50.104886989628525  37.07396477126533 50.46840491216514  C 37.03346890331122 50.83192283470174  36.99297303897772 51.15504988658643  36.95247717102361 51.43778603892941  C 36.54751851320614 53.901629813161435  35.48450204005591 56.0625418697204  33.76342766467821 57.92052232416552  C 32.0423532893005 59.77850277861063  29.946694154743938 61.03062008660769  27.476446205922368 61.676874190377085  C 26.9095040907709 61.838437716319426  26.09958677513597 61.93941491100534  25.04669420108778 61.97980579249092  Z M 24.803719000604325 57.64788388226306  C 25.694628088353607 57.62768844152026  26.464049517931358 57.49641808120615  27.111983405197186 57.25407279951508  C 28.731818036467043 56.72899133659122  30.047933782992178 55.800001109368665  31.060330413053393 54.46710206006778  C 32.072727043114604 53.134203010766896  32.639667362442204 51.659935841959815  32.76115496268394 50.04430066920577  C 32.76115496268394 50.04430066920577  32.82189876280481 49  32.82189876280481 49  L 16.2388431835624 49  C 16.2388431835624 49  16.2388431835624 49.74136906709193  16.2388431835624 49.74136906709193  C 16.2388431835624 49.943323463686184  16.259091115729145 50.205864180703216  16.29958698368326 50.528991232587906  C 16.340082851637373 50.8521182844726  16.400826648137627 51.15504988658643  16.48181838404585 51.43778603892941  C 16.846281184771044 52.93224857083793  17.55495881422793 54.20456129971605  18.60785138827612 55.25472422556375  C 19.660743962324307 56.30488715141146  20.936363764862467 57.03192296759486  22.4347107958906 57.43583176078337  C 23.123140511283797 57.59739528672572  23.91280991285504 57.668079323005855  24.803719000604325 57.64788388226306  Z M 11.865288647983302 44.591531831156715  C 11.865288647983302 44.591531831156715  11.865288647983302 39.01759035226212  11.865288647983302 39.01759035226212  C 11.865288647983302 37.2000007395791  11.875412614066676 35.78631989119479  11.895660548043733 34.77654792266842  C 11.915908482020791 33.76677595414204  11.946280380270917 33.22149903422488  11.98677624822503 33.1407172712537  C 12.067767984133258 32.938762874659446  12.219627477194194 32.71661302829433  12.442354749131514 32.47426774660325  C 12.665082021068836 32.23192246491218  12.877685321491864 32.05016350364389  13.080164650400596 31.928990862798354  C 13.282643979309329 31.807818221952818  13.576239008399357 31.74723190153005  13.960949752153134 31.74723190153005  C 14.345660495906913 31.74723190153005  14.679751396571667 31.807818221952818  14.963222454147402 31.928990862798354  C 15.206197654630861 32.00977262576953  15.43904981047686 32.18143385492995  15.66177708241418 32.443974586391874  C 15.8845043543515 32.70651531785381  16.03636384741244 32.9993491806373  16.117355583320663 33.322476232522  C 16.157851451274777 33.443648873367536  16.188223349524907 34.02931659893454  16.208471283501964 35.07947952478225  C 16.22871921747902 36.12964245062996  16.2388431835624 37.50293234169295  16.2388431835624 39.19934931353043  C 16.2388431835624 39.19934931353043  16.2388431835624 44  16.2388431835624 44  L 32.76115496268394 44  C 32.76115496268394 44  32.76115496268394 39.19934931353043  32.76115496268394 39.19934931353043  C 32.76115496268394 37.50293234169295  32.771278928767316 36.12964245062996  32.79152686274437 35.07947952478225  C 32.81177479672142 34.02931659893454  32.84214669497155 33.443648873367536  32.88264256292567 33.322476232522  C 32.963634298833895 32.9993491806373  33.115493791894835 32.70651531785381  33.33822106383215 32.443974586391874  C 33.56094833576947 32.18143385492995  33.79379956473864 32.00977262576953  34.0367747652221 31.928990862798354  C 34.32024582279783 31.807818221952818  34.64421276643074 31.74723190153005  35.00867556715593 31.74723190153005  C 35.373138367881126 31.74723190153005  35.67685736848545 31.807818221952818  35.9198325689689 31.928990862798354  C 36.12231189787763 32.05016350364389  36.33491519830066 32.221824740026754  36.55764247023799 32.443974586391874  C 36.780369742175296 32.666124432756995  36.932229235236235 32.89837198956263  37.01322097114446 33.1407172712537  C 37.053716839098584 33.22149903422488  37.084088737348715 33.76677595414204  37.10433667132577 34.77654792266842  C 37.12458460530282 35.78631989119479  37.1347085713862 37.2000007395791  37.1347085713862 39.01759035226212  C 37.1347085713862 39.01759035226212  37.1347085713862 44.591531831156715  37.1347085713862 44.591531831156715  C 37.1347085713862 44.591531831156715  39.38222917585819 44.591531831156715  39.38222917585819 44.591531831156715  C 40.2326423775503 44.591531831156715  40.819832435730355 44.581434111688125  41.143799379363266 44.56123867094532  C 41.467766322996184 44.54104323020253  41.62974978033019 44.51075007179676  41.62974978033019 44.47035919031118  C 41.62974978033019 44.42996830882559  41.670245644663694 43.88469146474417  41.75123738057192 42.834528538896464  C 41.83222911648015 41.82475657037009  41.94359275244881 40.43127120064644  42.08532828123668 38.654072429725524  C 42.227063810024546 36.8768736588046  42.3991712533553 34.81693887998974  42.60165058226403 32.47426774660325  C 42.80412991117275 30.0912058870139  43.00660925456395 27.566775792359106  43.20908858347267 24.900977693757348  C 43.45206378395613 21.790879989094783  43.67479105589346 19.02410461274893  43.87727038480219 16.600651795838235  C 44.07974971371091 14.177198978927542  44.241733185527366 12.137459563214122  44.3632207857691 10.481433433138738  C 44.48470838601084 8.825407303063354  44.56570011829845 7.55309463196486  44.606195986252565 6.6644952465044005  C 44.64669185420668 5.775895861043941  44.66693978637342 5.31140075826634  44.66693978637342 5.271009876780753  C 44.62644391841931 5.190228113809578  44.565700121919065 5.0993486331754285  44.48470838601084 4.9983714348783  C 44.4037166501026 4.897394236581172  44.30247698564824 4.786319313398614  44.18098938540651 4.66514667255308  C 44.18098938540651 4.66514667255308  43.81652658468132 5  43.81652658468132 5  L 5.183471098126597 5  C 5.183471098126597 5  4.819008297401409 4.66514667255308  4.819008297401409 4.66514667255308  C 4.697520697159679 4.786319313398614  4.5962810327053125 4.897394236581172  4.515289296797084 4.9983714348783  C 4.434297560888856 5.0993486331754285  4.373553764388605 5.190228113809578  4.33305789643449 5.271009876780753  C 4.33305789643449 5.31140075826634  4.35330582860124 5.775895861043941  4.393801696555355 6.6644952465044005  C 4.434297564509468 7.55309463196486  4.515289296797084 8.825407303063354  4.636776897038813 10.481433433138738  C 4.7582644972805435 12.137459563214122  4.920247969097 14.177198978927542  5.122727298005732 16.600651795838235  C 5.325206626914463 19.02410461274893  5.547933898851785 21.790879989094783  5.790909099335244 24.900977693757348  C 5.993388428243977 27.566775792359106  6.195867771635159 30.0912058870139  6.398347100543892 32.47426774660325  C 6.600826429452622 34.81693887998974  6.772933872783374 36.8768736588046  6.914669401571242 38.654072429725524  C 7.056404930359109 40.43127120064644  7.167768566327769 41.82475657037009  7.248760302235997 42.834528538896464  C 7.3297520381442265 43.88469146474417  7.370247902477727 44.42996830882559  7.370247902477727 44.47035919031118  C 7.370247902477727 44.51075007179676  7.532230896373316 44.54104323020253  7.856197840006228 44.56123867094532  C 8.180164783639139 44.581434111688125  8.7673548418192 44.591531831156715  9.617768043511306 44.591531831156715  C 9.617768043511306 44.591531831156715  11.865288647983302 44.591531831156715  11.865288647983302 44.591531831156715  Z " fill-rule="evenodd" />
    </mask>
  </defs>
  <g transform="matrix(1 0 0 1 -1645 -181 )">
    <path d="M 25.04669420108778 61.97980579249092  C 23.99380162703959 62.02019667397651  23.183884311404665 62.000001235039335  22.616942196253195 61.91921947206815  C 20.632644648398546 61.59609242018346  18.800206716705656 60.828665704458345  17.11962828531493 59.616939296003004  C 15.439049853924212 58.405212887547655  14.133057166518984 56.89055487697846  13.201652250642326 55.07296526429545  C 12.796693592824862 54.22475677837671  12.47272664919195 53.315961972035204  12.22975144870849 52.34658084527093  C 11.98677624822503 51.37719971850665  11.865288647983302 50.46840491216514  11.865288647983302 49.620196426246395  C 11.865288647983302 49.620196426246395  11.865288647983302 48.953746901595956  11.865288647983302 48.953746901595956  L 4.7582644972805435 48.89316058117319  C 4.7582644972805435 48.89316058117319  4.211570296192761 48.52964265863658  4.211570296192761 48.52964265863658  C 3.725619895225843 48.20651560675189  3.3915287628418787 47.33811172884191  3.2092973624792847 45.92443088045759  C 3.02706596211669 44.51075003207328  2.4904958628852563 38.169381866343386  1.599586775135973 26.900326267708667  C 1.3161157175602378 23.345928725866834  1.073140444664526 20.2560263843057  0.8706611157557939 17.630619243025276  C 0.6681817868470616 15.045602827947715  0.49607437248121217 12.884690771388762  0.3543388436933447 11.147882957789179  C 0.21260331490547707 9.411075144189594  0.12148760386234211 8.078176037109099  0.08099173590822807 7.1491858098865375  C 0 6.220195582663979  -0.020247933977057018 5.654723234643311  0.020247933977057018 5.452768838049055  C 0.020247933977057018 4.927687375125199  0.05061983584779571 4.543974031707545  0.11136363596866043 4.3016287500164765  C 0.1721074360895252 4.059283468325407  0.30371898612187315 3.7361564164407124  0.5061983150306054 3.3322476232522003  C 0.7491735155140644 2.807166160328345  1.0933884311404662 2.302280176065157  1.5388429750151082 1.8175896126830182  C 1.9842975188897498 1.3328990493008799  2.4499998609684748 0.9693811267642763  2.935950261935393 0.7270358450732073  C 3.624379977328592 0.36351792253660364  4.738016525287054 0.1514658010569182  6.276859500302162 0.09087948063415091  C 7.81570247531727 0.030293160211383636  13.86983497884867 0  24.439256199879136 0  C 27.557437862177125 0  30.33140295784935 0  32.76115496268394 0  C 35.19090696751852 0  37.25619617162793 0.010097719468590194  38.95702257501214 0.030293160211383636  C 40.65784897839635 0.05048860095417708  41.97396466699169 0.06058632042276727  42.90536958286835 0.06058632042276727  C 43.83677449874501 0.10097720190835416  44.342972849981734 0.12117264084553454  44.42396458588996 0.12117264084553454  C 45.27437778758207 0.2827361667878821  46.07417117515006 0.6563517853201062  46.82334469066412 1.242019568666729  C 47.57251820617819 1.8276873520133519  48.12933639326271 2.524430036875176  48.4937991939879 3.3322476232522003  C 48.696278522896634 3.7361564164407124  48.82789009465266 4.059283468325407  48.88863389477353 4.3016287500164765  C 48.949377694894395 4.543974031707545  48.979749594954825 4.927687375125199  48.979749594954825 5.452768838049055  C 49.02024546290893 5.654723234643311  48.99999753074219 6.220195582663979  48.91900579483396 7.1491858098865375  C 48.87850992687984 8.078176037109099  48.78739422307793 9.411075144189594  48.64565869429006 11.147882957789179  C 48.503923165502194 12.884690771388762  48.33181572217145 15.045602827947715  48.12933639326272 17.630619243025276  C 47.92685706435399 20.2560263843057  47.68388184938808 23.345928725866834  47.40041079181234 26.900326267708667  C 46.509501704063055 38.169381866343386  45.972931488972016 44.51075003207328  45.79070008860942 45.92443088045759  C 45.60846868824683 47.33811172884191  45.27437778758207 48.20651560675189  44.788427386615155 48.52964265863658  C 44.788427386615155 48.52964265863658  44.24173318552738 48.89316058117319  44.24173318552738 48.89316058117319  L 37.1347085713862 48.953746901595956  C 37.1347085713862 48.953746901595956  37.1347085713862 49.68078274666917  37.1347085713862 49.68078274666917  C 37.1347085713862 49.842346272611515  37.11446063921945 50.104886989628525  37.07396477126533 50.46840491216514  C 37.03346890331122 50.83192283470174  36.99297303897772 51.15504988658643  36.95247717102361 51.43778603892941  C 36.54751851320614 53.901629813161435  35.48450204005591 56.0625418697204  33.76342766467821 57.92052232416552  C 32.0423532893005 59.77850277861063  29.946694154743938 61.03062008660769  27.476446205922368 61.676874190377085  C 26.9095040907709 61.838437716319426  26.09958677513597 61.93941491100534  25.04669420108778 61.97980579249092  Z M 24.803719000604325 57.64788388226306  C 25.694628088353607 57.62768844152026  26.464049517931358 57.49641808120615  27.111983405197186 57.25407279951508  C 28.731818036467043 56.72899133659122  30.047933782992178 55.800001109368665  31.060330413053393 54.46710206006778  C 32.072727043114604 53.134203010766896  32.639667362442204 51.659935841959815  32.76115496268394 50.04430066920577  C 32.76115496268394 50.04430066920577  32.82189876280481 49  32.82189876280481 49  L 16.2388431835624 49  C 16.2388431835624 49  16.2388431835624 49.74136906709193  16.2388431835624 49.74136906709193  C 16.2388431835624 49.943323463686184  16.259091115729145 50.205864180703216  16.29958698368326 50.528991232587906  C 16.340082851637373 50.8521182844726  16.400826648137627 51.15504988658643  16.48181838404585 51.43778603892941  C 16.846281184771044 52.93224857083793  17.55495881422793 54.20456129971605  18.60785138827612 55.25472422556375  C 19.660743962324307 56.30488715141146  20.936363764862467 57.03192296759486  22.4347107958906 57.43583176078337  C 23.123140511283797 57.59739528672572  23.91280991285504 57.668079323005855  24.803719000604325 57.64788388226306  Z M 11.865288647983302 44.591531831156715  C 11.865288647983302 44.591531831156715  11.865288647983302 39.01759035226212  11.865288647983302 39.01759035226212  C 11.865288647983302 37.2000007395791  11.875412614066676 35.78631989119479  11.895660548043733 34.77654792266842  C 11.915908482020791 33.76677595414204  11.946280380270917 33.22149903422488  11.98677624822503 33.1407172712537  C 12.067767984133258 32.938762874659446  12.219627477194194 32.71661302829433  12.442354749131514 32.47426774660325  C 12.665082021068836 32.23192246491218  12.877685321491864 32.05016350364389  13.080164650400596 31.928990862798354  C 13.282643979309329 31.807818221952818  13.576239008399357 31.74723190153005  13.960949752153134 31.74723190153005  C 14.345660495906913 31.74723190153005  14.679751396571667 31.807818221952818  14.963222454147402 31.928990862798354  C 15.206197654630861 32.00977262576953  15.43904981047686 32.18143385492995  15.66177708241418 32.443974586391874  C 15.8845043543515 32.70651531785381  16.03636384741244 32.9993491806373  16.117355583320663 33.322476232522  C 16.157851451274777 33.443648873367536  16.188223349524907 34.02931659893454  16.208471283501964 35.07947952478225  C 16.22871921747902 36.12964245062996  16.2388431835624 37.50293234169295  16.2388431835624 39.19934931353043  C 16.2388431835624 39.19934931353043  16.2388431835624 44  16.2388431835624 44  L 32.76115496268394 44  C 32.76115496268394 44  32.76115496268394 39.19934931353043  32.76115496268394 39.19934931353043  C 32.76115496268394 37.50293234169295  32.771278928767316 36.12964245062996  32.79152686274437 35.07947952478225  C 32.81177479672142 34.02931659893454  32.84214669497155 33.443648873367536  32.88264256292567 33.322476232522  C 32.963634298833895 32.9993491806373  33.115493791894835 32.70651531785381  33.33822106383215 32.443974586391874  C 33.56094833576947 32.18143385492995  33.79379956473864 32.00977262576953  34.0367747652221 31.928990862798354  C 34.32024582279783 31.807818221952818  34.64421276643074 31.74723190153005  35.00867556715593 31.74723190153005  C 35.373138367881126 31.74723190153005  35.67685736848545 31.807818221952818  35.9198325689689 31.928990862798354  C 36.12231189787763 32.05016350364389  36.33491519830066 32.221824740026754  36.55764247023799 32.443974586391874  C 36.780369742175296 32.666124432756995  36.932229235236235 32.89837198956263  37.01322097114446 33.1407172712537  C 37.053716839098584 33.22149903422488  37.084088737348715 33.76677595414204  37.10433667132577 34.77654792266842  C 37.12458460530282 35.78631989119479  37.1347085713862 37.2000007395791  37.1347085713862 39.01759035226212  C 37.1347085713862 39.01759035226212  37.1347085713862 44.591531831156715  37.1347085713862 44.591531831156715  C 37.1347085713862 44.591531831156715  39.38222917585819 44.591531831156715  39.38222917585819 44.591531831156715  C 40.2326423775503 44.591531831156715  40.819832435730355 44.581434111688125  41.143799379363266 44.56123867094532  C 41.467766322996184 44.54104323020253  41.62974978033019 44.51075007179676  41.62974978033019 44.47035919031118  C 41.62974978033019 44.42996830882559  41.670245644663694 43.88469146474417  41.75123738057192 42.834528538896464  C 41.83222911648015 41.82475657037009  41.94359275244881 40.43127120064644  42.08532828123668 38.654072429725524  C 42.227063810024546 36.8768736588046  42.3991712533553 34.81693887998974  42.60165058226403 32.47426774660325  C 42.80412991117275 30.0912058870139  43.00660925456395 27.566775792359106  43.20908858347267 24.900977693757348  C 43.45206378395613 21.790879989094783  43.67479105589346 19.02410461274893  43.87727038480219 16.600651795838235  C 44.07974971371091 14.177198978927542  44.241733185527366 12.137459563214122  44.3632207857691 10.481433433138738  C 44.48470838601084 8.825407303063354  44.56570011829845 7.55309463196486  44.606195986252565 6.6644952465044005  C 44.64669185420668 5.775895861043941  44.66693978637342 5.31140075826634  44.66693978637342 5.271009876780753  C 44.62644391841931 5.190228113809578  44.565700121919065 5.0993486331754285  44.48470838601084 4.9983714348783  C 44.4037166501026 4.897394236581172  44.30247698564824 4.786319313398614  44.18098938540651 4.66514667255308  C 44.18098938540651 4.66514667255308  43.81652658468132 5  43.81652658468132 5  L 5.183471098126597 5  C 5.183471098126597 5  4.819008297401409 4.66514667255308  4.819008297401409 4.66514667255308  C 4.697520697159679 4.786319313398614  4.5962810327053125 4.897394236581172  4.515289296797084 4.9983714348783  C 4.434297560888856 5.0993486331754285  4.373553764388605 5.190228113809578  4.33305789643449 5.271009876780753  C 4.33305789643449 5.31140075826634  4.35330582860124 5.775895861043941  4.393801696555355 6.6644952465044005  C 4.434297564509468 7.55309463196486  4.515289296797084 8.825407303063354  4.636776897038813 10.481433433138738  C 4.7582644972805435 12.137459563214122  4.920247969097 14.177198978927542  5.122727298005732 16.600651795838235  C 5.325206626914463 19.02410461274893  5.547933898851785 21.790879989094783  5.790909099335244 24.900977693757348  C 5.993388428243977 27.566775792359106  6.195867771635159 30.0912058870139  6.398347100543892 32.47426774660325  C 6.600826429452622 34.81693887998974  6.772933872783374 36.8768736588046  6.914669401571242 38.654072429725524  C 7.056404930359109 40.43127120064644  7.167768566327769 41.82475657037009  7.248760302235997 42.834528538896464  C 7.3297520381442265 43.88469146474417  7.370247902477727 44.42996830882559  7.370247902477727 44.47035919031118  C 7.370247902477727 44.51075007179676  7.532230896373316 44.54104323020253  7.856197840006228 44.56123867094532  C 8.180164783639139 44.581434111688125  8.7673548418192 44.591531831156715  9.617768043511306 44.591531831156715  C 9.617768043511306 44.591531831156715  11.865288647983302 44.591531831156715  11.865288647983302 44.591531831156715  Z " fill-rule="nonzero" fill="rgba(0, 0, 0, 1)" stroke="none" transform="matrix(1 0 0 1 1645 181 )" class="fill" />
    <path d="M 25.04669420108778 61.97980579249092  C 23.99380162703959 62.02019667397651  23.183884311404665 62.000001235039335  22.616942196253195 61.91921947206815  C 20.632644648398546 61.59609242018346  18.800206716705656 60.828665704458345  17.11962828531493 59.616939296003004  C 15.439049853924212 58.405212887547655  14.133057166518984 56.89055487697846  13.201652250642326 55.07296526429545  C 12.796693592824862 54.22475677837671  12.47272664919195 53.315961972035204  12.22975144870849 52.34658084527093  C 11.98677624822503 51.37719971850665  11.865288647983302 50.46840491216514  11.865288647983302 49.620196426246395  C 11.865288647983302 49.620196426246395  11.865288647983302 48.953746901595956  11.865288647983302 48.953746901595956  L 4.7582644972805435 48.89316058117319  C 4.7582644972805435 48.89316058117319  4.211570296192761 48.52964265863658  4.211570296192761 48.52964265863658  C 3.725619895225843 48.20651560675189  3.3915287628418787 47.33811172884191  3.2092973624792847 45.92443088045759  C 3.02706596211669 44.51075003207328  2.4904958628852563 38.169381866343386  1.599586775135973 26.900326267708667  C 1.3161157175602378 23.345928725866834  1.073140444664526 20.2560263843057  0.8706611157557939 17.630619243025276  C 0.6681817868470616 15.045602827947715  0.49607437248121217 12.884690771388762  0.3543388436933447 11.147882957789179  C 0.21260331490547707 9.411075144189594  0.12148760386234211 8.078176037109099  0.08099173590822807 7.1491858098865375  C 0 6.220195582663979  -0.020247933977057018 5.654723234643311  0.020247933977057018 5.452768838049055  C 0.020247933977057018 4.927687375125199  0.05061983584779571 4.543974031707545  0.11136363596866043 4.3016287500164765  C 0.1721074360895252 4.059283468325407  0.30371898612187315 3.7361564164407124  0.5061983150306054 3.3322476232522003  C 0.7491735155140644 2.807166160328345  1.0933884311404662 2.302280176065157  1.5388429750151082 1.8175896126830182  C 1.9842975188897498 1.3328990493008799  2.4499998609684748 0.9693811267642763  2.935950261935393 0.7270358450732073  C 3.624379977328592 0.36351792253660364  4.738016525287054 0.1514658010569182  6.276859500302162 0.09087948063415091  C 7.81570247531727 0.030293160211383636  13.86983497884867 0  24.439256199879136 0  C 27.557437862177125 0  30.33140295784935 0  32.76115496268394 0  C 35.19090696751852 0  37.25619617162793 0.010097719468590194  38.95702257501214 0.030293160211383636  C 40.65784897839635 0.05048860095417708  41.97396466699169 0.06058632042276727  42.90536958286835 0.06058632042276727  C 43.83677449874501 0.10097720190835416  44.342972849981734 0.12117264084553454  44.42396458588996 0.12117264084553454  C 45.27437778758207 0.2827361667878821  46.07417117515006 0.6563517853201062  46.82334469066412 1.242019568666729  C 47.57251820617819 1.8276873520133519  48.12933639326271 2.524430036875176  48.4937991939879 3.3322476232522003  C 48.696278522896634 3.7361564164407124  48.82789009465266 4.059283468325407  48.88863389477353 4.3016287500164765  C 48.949377694894395 4.543974031707545  48.979749594954825 4.927687375125199  48.979749594954825 5.452768838049055  C 49.02024546290893 5.654723234643311  48.99999753074219 6.220195582663979  48.91900579483396 7.1491858098865375  C 48.87850992687984 8.078176037109099  48.78739422307793 9.411075144189594  48.64565869429006 11.147882957789179  C 48.503923165502194 12.884690771388762  48.33181572217145 15.045602827947715  48.12933639326272 17.630619243025276  C 47.92685706435399 20.2560263843057  47.68388184938808 23.345928725866834  47.40041079181234 26.900326267708667  C 46.509501704063055 38.169381866343386  45.972931488972016 44.51075003207328  45.79070008860942 45.92443088045759  C 45.60846868824683 47.33811172884191  45.27437778758207 48.20651560675189  44.788427386615155 48.52964265863658  C 44.788427386615155 48.52964265863658  44.24173318552738 48.89316058117319  44.24173318552738 48.89316058117319  L 37.1347085713862 48.953746901595956  C 37.1347085713862 48.953746901595956  37.1347085713862 49.68078274666917  37.1347085713862 49.68078274666917  C 37.1347085713862 49.842346272611515  37.11446063921945 50.104886989628525  37.07396477126533 50.46840491216514  C 37.03346890331122 50.83192283470174  36.99297303897772 51.15504988658643  36.95247717102361 51.43778603892941  C 36.54751851320614 53.901629813161435  35.48450204005591 56.0625418697204  33.76342766467821 57.92052232416552  C 32.0423532893005 59.77850277861063  29.946694154743938 61.03062008660769  27.476446205922368 61.676874190377085  C 26.9095040907709 61.838437716319426  26.09958677513597 61.93941491100534  25.04669420108778 61.97980579249092  Z " stroke-width="0" stroke-dasharray="0" stroke="rgba(121, 121, 121, 1)" fill="none" transform="matrix(1 0 0 1 1645 181 )" class="stroke" mask="url(#Clip15)" />
    <path d="M 24.803719000604325 57.64788388226306  C 25.694628088353607 57.62768844152026  26.464049517931358 57.49641808120615  27.111983405197186 57.25407279951508  C 28.731818036467043 56.72899133659122  30.047933782992178 55.800001109368665  31.060330413053393 54.46710206006778  C 32.072727043114604 53.134203010766896  32.639667362442204 51.659935841959815  32.76115496268394 50.04430066920577  C 32.76115496268394 50.04430066920577  32.82189876280481 49  32.82189876280481 49  L 16.2388431835624 49  C 16.2388431835624 49  16.2388431835624 49.74136906709193  16.2388431835624 49.74136906709193  C 16.2388431835624 49.943323463686184  16.259091115729145 50.205864180703216  16.29958698368326 50.528991232587906  C 16.340082851637373 50.8521182844726  16.400826648137627 51.15504988658643  16.48181838404585 51.43778603892941  C 16.846281184771044 52.93224857083793  17.55495881422793 54.20456129971605  18.60785138827612 55.25472422556375  C 19.660743962324307 56.30488715141146  20.936363764862467 57.03192296759486  22.4347107958906 57.43583176078337  C 23.123140511283797 57.59739528672572  23.91280991285504 57.668079323005855  24.803719000604325 57.64788388226306  Z " stroke-width="0" stroke-dasharray="0" stroke="rgba(121, 121, 121, 1)" fill="none" transform="matrix(1 0 0 1 1645 181 )" class="stroke" mask="url(#Clip15)" />
    <path d="M 11.865288647983302 44.591531831156715  C 11.865288647983302 44.591531831156715  11.865288647983302 39.01759035226212  11.865288647983302 39.01759035226212  C 11.865288647983302 37.2000007395791  11.875412614066676 35.78631989119479  11.895660548043733 34.77654792266842  C 11.915908482020791 33.76677595414204  11.946280380270917 33.22149903422488  11.98677624822503 33.1407172712537  C 12.067767984133258 32.938762874659446  12.219627477194194 32.71661302829433  12.442354749131514 32.47426774660325  C 12.665082021068836 32.23192246491218  12.877685321491864 32.05016350364389  13.080164650400596 31.928990862798354  C 13.282643979309329 31.807818221952818  13.576239008399357 31.74723190153005  13.960949752153134 31.74723190153005  C 14.345660495906913 31.74723190153005  14.679751396571667 31.807818221952818  14.963222454147402 31.928990862798354  C 15.206197654630861 32.00977262576953  15.43904981047686 32.18143385492995  15.66177708241418 32.443974586391874  C 15.8845043543515 32.70651531785381  16.03636384741244 32.9993491806373  16.117355583320663 33.322476232522  C 16.157851451274777 33.443648873367536  16.188223349524907 34.02931659893454  16.208471283501964 35.07947952478225  C 16.22871921747902 36.12964245062996  16.2388431835624 37.50293234169295  16.2388431835624 39.19934931353043  C 16.2388431835624 39.19934931353043  16.2388431835624 44  16.2388431835624 44  L 32.76115496268394 44  C 32.76115496268394 44  32.76115496268394 39.19934931353043  32.76115496268394 39.19934931353043  C 32.76115496268394 37.50293234169295  32.771278928767316 36.12964245062996  32.79152686274437 35.07947952478225  C 32.81177479672142 34.02931659893454  32.84214669497155 33.443648873367536  32.88264256292567 33.322476232522  C 32.963634298833895 32.9993491806373  33.115493791894835 32.70651531785381  33.33822106383215 32.443974586391874  C 33.56094833576947 32.18143385492995  33.79379956473864 32.00977262576953  34.0367747652221 31.928990862798354  C 34.32024582279783 31.807818221952818  34.64421276643074 31.74723190153005  35.00867556715593 31.74723190153005  C 35.373138367881126 31.74723190153005  35.67685736848545 31.807818221952818  35.9198325689689 31.928990862798354  C 36.12231189787763 32.05016350364389  36.33491519830066 32.221824740026754  36.55764247023799 32.443974586391874  C 36.780369742175296 32.666124432756995  36.932229235236235 32.89837198956263  37.01322097114446 33.1407172712537  C 37.053716839098584 33.22149903422488  37.084088737348715 33.76677595414204  37.10433667132577 34.77654792266842  C 37.12458460530282 35.78631989119479  37.1347085713862 37.2000007395791  37.1347085713862 39.01759035226212  C 37.1347085713862 39.01759035226212  37.1347085713862 44.591531831156715  37.1347085713862 44.591531831156715  C 37.1347085713862 44.591531831156715  39.38222917585819 44.591531831156715  39.38222917585819 44.591531831156715  C 40.2326423775503 44.591531831156715  40.819832435730355 44.581434111688125  41.143799379363266 44.56123867094532  C 41.467766322996184 44.54104323020253  41.62974978033019 44.51075007179676  41.62974978033019 44.47035919031118  C 41.62974978033019 44.42996830882559  41.670245644663694 43.88469146474417  41.75123738057192 42.834528538896464  C 41.83222911648015 41.82475657037009  41.94359275244881 40.43127120064644  42.08532828123668 38.654072429725524  C 42.227063810024546 36.8768736588046  42.3991712533553 34.81693887998974  42.60165058226403 32.47426774660325  C 42.80412991117275 30.0912058870139  43.00660925456395 27.566775792359106  43.20908858347267 24.900977693757348  C 43.45206378395613 21.790879989094783  43.67479105589346 19.02410461274893  43.87727038480219 16.600651795838235  C 44.07974971371091 14.177198978927542  44.241733185527366 12.137459563214122  44.3632207857691 10.481433433138738  C 44.48470838601084 8.825407303063354  44.56570011829845 7.55309463196486  44.606195986252565 6.6644952465044005  C 44.64669185420668 5.775895861043941  44.66693978637342 5.31140075826634  44.66693978637342 5.271009876780753  C 44.62644391841931 5.190228113809578  44.565700121919065 5.0993486331754285  44.48470838601084 4.9983714348783  C 44.4037166501026 4.897394236581172  44.30247698564824 4.786319313398614  44.18098938540651 4.66514667255308  C 44.18098938540651 4.66514667255308  43.81652658468132 5  43.81652658468132 5  L 5.183471098126597 5  C 5.183471098126597 5  4.819008297401409 4.66514667255308  4.819008297401409 4.66514667255308  C 4.697520697159679 4.786319313398614  4.5962810327053125 4.897394236581172  4.515289296797084 4.9983714348783  C 4.434297560888856 5.0993486331754285  4.373553764388605 5.190228113809578  4.33305789643449 5.271009876780753  C 4.33305789643449 5.31140075826634  4.35330582860124 5.775895861043941  4.393801696555355 6.6644952465044005  C 4.434297564509468 7.55309463196486  4.515289296797084 8.825407303063354  4.636776897038813 10.481433433138738  C 4.7582644972805435 12.137459563214122  4.920247969097 14.177198978927542  5.122727298005732 16.600651795838235  C 5.325206626914463 19.02410461274893  5.547933898851785 21.790879989094783  5.790909099335244 24.900977693757348  C 5.993388428243977 27.566775792359106  6.195867771635159 30.0912058870139  6.398347100543892 32.47426774660325  C 6.600826429452622 34.81693887998974  6.772933872783374 36.8768736588046  6.914669401571242 38.654072429725524  C 7.056404930359109 40.43127120064644  7.167768566327769 41.82475657037009  7.248760302235997 42.834528538896464  C 7.3297520381442265 43.88469146474417  7.370247902477727 44.42996830882559  7.370247902477727 44.47035919031118  C 7.370247902477727 44.51075007179676  7.532230896373316 44.54104323020253  7.856197840006228 44.56123867094532  C 8.180164783639139 44.581434111688125  8.7673548418192 44.591531831156715  9.617768043511306 44.591531831156715  C 9.617768043511306 44.591531831156715  11.865288647983302 44.591531831156715  11.865288647983302 44.591531831156715  Z " stroke-width="0" stroke-dasharray="0" stroke="rgba(121, 121, 121, 1)" fill="none" transform="matrix(1 0 0 1 1645 181 )" class="stroke" mask="url(#Clip15)" />
  </g>
</svg>