<?xml version="1.0" encoding="utf-8"?>
<svg version="1.1" xmlns:xlink="http://www.w3.org/1999/xlink" width="32px" height="32px" xmlns="http://www.w3.org/2000/svg">
  <defs>
    <pattern id="BGPattern" patternUnits="userSpaceOnUse" alignment="0 0" imageRepeat="None" />
    <mask fill="white" id="Clip13">
      <path d="M 20.25255997017363 31.829560440273184  C 18.790281271966144 32.036760330109345  17.49860173197391 32.05504267384298  16.3775214199238 31.884407471474113  C 15.01272801474807 31.66501934667039  13.721048405028952 31.262807784530235  12.502482869673972 30.677772785053648  C 11.283917334318991 30.09273778557706  10.187208240936497 29.361444036231326  9.212355798707138 28.48389153701644  C 8.237503356477777 27.606339037801554  7.396693105008474 26.59471604112049  6.689925044299231 25.449022477231633  C 5.983156983589987 24.303328913342778  5.45917379502012 23.060129609196633  5.117975443726188 21.719424355568375  C 4.874262333168847 20.744366046354596  4.74631294162828 19.659613674738956  4.734127285446723 18.465167170979846  C 4.721941629265166 17.27072066722074  4.83770536571366 16.1859682956051  5.081418476271001 15.21090998639132  C 5.252017651917966 14.430863297175332  5.532287729930494 13.608157829161378  5.922228727740303 12.74279358234946  C 6.3121697255501115 11.877429335537542  6.738667655951667 11.115664990055198  7.20172258867185 10.457500615644033  C 7.20172258867185 10.457500615644033  7.82319103541003 9.543383428961862  7.82319103541003 9.543383428961862  C 7.82319103541003 9.543383428961862  3.911595517705015 5.630961869962172  3.911595517705015 5.630961869962172  C 2.205603656645031 3.9002333763383326  1.1271731515804537 2.7850103737152807  0.6763038979209605 2.2852929667054265  C 0.22543464426146714 1.7855755596955722  0 1.438211046191749  0 1.243199373887752  C 0 0.9263054042143318  0.12794938609315468 0.6398820306775194  0.38384815827946406 0.3839292184065117  C 0.6397469304657735 0.1279764061355039  0.926109830576925 0  1.2429368934763598 0  C 1.4379073923812642 0  1.7851985657738207 0.2254822510052032  2.284810465949191 0.6764467181448063  C 2.784422366124561 1.1274111852844093  3.8994099083712066 2.2060694306985678  5.629772988098805 3.9124215589996902  C 5.629772988098805 3.9124215589996902  9.54136850580382 7.8248431179993805  9.54136850580382 7.8248431179993805  C 9.54136850580382 7.8248431179993805  10.455292692183498 7.203243431055505  10.455292692183498 7.203243431055505  C 11.113318106376864 6.740090711512937  11.874921618268889 6.31350271430846  12.740103158132689 5.923479369700466  C 13.605284697996488 5.533456025092471  14.427816465738196 5.25312676032174  15.207698461357813 5.082491557952869  C 16.182550903587174 4.838726980649423  17.267074248182098 4.722938797494644  18.461268564869464 4.735127027013644  C 19.655462881556826 4.747315256532644  20.739986226151746 4.875291668116711  21.71483866838111 5.119056245420156  C 22.8602903385526 5.41157374515845  23.93262800408683 5.838161777233731  24.93185180443757 6.398820306775194  C 25.931075604788308 6.935102401252336  26.838906916774203 7.587172649462018  27.655345879849005 8.35503108627504  C 28.47178484292381 9.122889523088064  29.18464570829996 9.982159678569303  29.79392847597745 10.932841552718761  C 30.403211243654937 11.88352342686822  30.890637499633062 12.90733467595225  31.256207174184933 14.004275299970855  C 31.816747330209985 15.66187441866012  32.060460458199046 17.33166185949396  31.987346523288668 19.01363748298915  C 31.889861273836217 20.695613106484345  31.518198751038142 22.28617701131132  30.872359015905467 23.78532919747008  C 30.22651928077279 25.28448138362884  29.318687899060016 26.64346898099074  28.148864940494033 27.862291850072562  C 26.97904198192805 29.08111471915439  25.602062827964744 30.05617309810977  24.017927618057893 30.78746684745551  C 22.969961240918156 31.274996002062398  21.714838668381113 31.622360550437026  20.25255997017363 31.829560440273184  Z M 18.772002788238552 29.58083216103504  C 19.905268779349353 29.532079242959043  20.813100161062124 29.39800872369861  21.495496863649986 29.178620598894888  C 22.47034930587935 28.886103099156593  23.32334523640934 28.514362098282245  24.05448458551308 28.06339763114264  C 24.785623934616822 27.612433164003036  25.52894896278125 27.021304038324967  26.284459600279494 26.29001028897923  C 27.356797335540605 25.217446100024944  28.154957780024375 24.083940858280663  28.678940968594244 22.889494354521553  C 29.20292415716411 21.695047850762446  29.513658389249063 20.354342736617404  29.611143638701513 18.867378733120002  C 29.684257573611887 17.331661859493956  29.464915768880765 15.869074360802482  28.953118224508145 14.479616237045583  C 28.44132068013553 13.114534618094613  27.710181331031784 11.901805770601863  26.759700177196923 10.841429834050544  C 25.80921902336206 9.781053897499227  24.67595303225126 8.921783742017986  23.35990220386453 8.263619367606822  C 22.043851375477796 7.581078558131337  20.60594403539169 7.17886696983808  19.046180044152454 7.056984681186358  C 18.315040695048715 7.008231763110358  17.559530057550475 7.050890563702576  16.779648061930857 7.184961087321861  C 15.999766066311238 7.319031610941146  15.195512782297126 7.532325618261087  14.366888209888513 7.8248431179993805  C 13.026466023380399 8.336748742541397  11.844457455480606 9.055854239484168  10.820862366735367 9.982159678569303  C 9.79726727799013 10.90846511765444  8.97473551024842 11.968840984464151  8.353267063510241 13.163287488223258  C 7.731798616772061 14.357733991982366  7.335764796863629 15.649686235998761  7.165165621216663 17.03914435975566  C 6.970195122311758 18.40422597870663  7.043309074653853 19.769307737140817  7.384507425947785 21.134389356091788  C 7.676963165589281 22.158200605175818  8.091275451793587 23.121070731728242  8.627444319424145 24.022999666007447  C 9.1636131870547 24.924928600286652  9.803360082657035 25.735445885639248  10.546685110821466 26.45455138258202  C 11.290010138985895 27.173656879524792  12.136913195122101 27.789162475137985  13.087394348956966 28.301068099680002  C 14.013504214397331 28.81297372422202  15.01272794502119 29.19080883386245  16.0850656802823 29.434573411165896  C 16.74309109447567 29.58083216103504  17.638736797127756 29.629585079111042  18.772002788238552 29.58083216103504  Z M 19.92354726307694 27.185845131927756  C 18.97306610924208 27.368668569264187  18.290669371790777 27.362574460498113  17.87635708558647 27.167562788194115  C 17.29144560630348 26.92379821089067  17.072103801572354 26.50330432245227  17.218331671393102 25.906081070572718  C 17.364559541213847 25.308857818693163  17.75450050416022 25.01024622762419  18.38815462995909 25.01024622762419  C 19.87480468628795 25.01024622762419  21.239598091463677 24.492246511751496  22.482534984940038 23.4562470102645  C 23.725471878416396 22.420247508777503  24.505353839172574 21.146577538753146  24.82218090207201 19.635237169933028  C 24.870923526798236 19.415849045129306  24.91357332070998 19.178178576591943  24.950130288165166 18.922225764320935  C 24.986687255620353 18.666272952049926  25.004965739347945 18.47735539722971  25.004965739347945 18.35547310857799  C 25.004965739347945 17.916696858970546  25.19993622082113 17.587614671764964  25.58987721863094 17.368226546961242  C 25.979818216440748 17.14883842215752  26.381944858447806 17.14883842215752  26.79625714465211 17.368226546961242  C 27.015598949383232 17.490108835612965  27.16182681920398 17.72168520410195  27.234940754114355 18.062955608839694  C 27.30805468902473 18.404226013577436  27.30805468902473 18.891755168184325  27.234940754114355 19.525543107531167  C 27.039970255209447 20.988130606222636  26.528172693405114 22.310553516117253  25.6995481209965 23.49281169773179  C 24.870923548587886 24.675069879346324  23.78640020399296 25.631845914568064  22.44597801748485 26.363139663913802  C 21.71483866838111 26.72878653858667  20.874028416911806 27.00302169459132  19.92354726307694 27.185845131927756  Z " fill-rule="evenodd" />
    </mask>
  </defs>
  <g transform="matrix(1 0 0 1 -1675 -13 )">
    <path d="M 20.25255997017363 31.829560440273184  C 18.790281271966144 32.036760330109345  17.49860173197391 32.05504267384298  16.3775214199238 31.884407471474113  C 15.01272801474807 31.66501934667039  13.721048405028952 31.262807784530235  12.502482869673972 30.677772785053648  C 11.283917334318991 30.09273778557706  10.187208240936497 29.361444036231326  9.212355798707138 28.48389153701644  C 8.237503356477777 27.606339037801554  7.396693105008474 26.59471604112049  6.689925044299231 25.449022477231633  C 5.983156983589987 24.303328913342778  5.45917379502012 23.060129609196633  5.117975443726188 21.719424355568375  C 4.874262333168847 20.744366046354596  4.74631294162828 19.659613674738956  4.734127285446723 18.465167170979846  C 4.721941629265166 17.27072066722074  4.83770536571366 16.1859682956051  5.081418476271001 15.21090998639132  C 5.252017651917966 14.430863297175332  5.532287729930494 13.608157829161378  5.922228727740303 12.74279358234946  C 6.3121697255501115 11.877429335537542  6.738667655951667 11.115664990055198  7.20172258867185 10.457500615644033  C 7.20172258867185 10.457500615644033  7.82319103541003 9.543383428961862  7.82319103541003 9.543383428961862  C 7.82319103541003 9.543383428961862  3.911595517705015 5.630961869962172  3.911595517705015 5.630961869962172  C 2.205603656645031 3.9002333763383326  1.1271731515804537 2.7850103737152807  0.6763038979209605 2.2852929667054265  C 0.22543464426146714 1.7855755596955722  0 1.438211046191749  0 1.243199373887752  C 0 0.9263054042143318  0.12794938609315468 0.6398820306775194  0.38384815827946406 0.3839292184065117  C 0.6397469304657735 0.1279764061355039  0.926109830576925 0  1.2429368934763598 0  C 1.4379073923812642 0  1.7851985657738207 0.2254822510052032  2.284810465949191 0.6764467181448063  C 2.784422366124561 1.1274111852844093  3.8994099083712066 2.2060694306985678  5.629772988098805 3.9124215589996902  C 5.629772988098805 3.9124215589996902  9.54136850580382 7.8248431179993805  9.54136850580382 7.8248431179993805  C 9.54136850580382 7.8248431179993805  10.455292692183498 7.203243431055505  10.455292692183498 7.203243431055505  C 11.113318106376864 6.740090711512937  11.874921618268889 6.31350271430846  12.740103158132689 5.923479369700466  C 13.605284697996488 5.533456025092471  14.427816465738196 5.25312676032174  15.207698461357813 5.082491557952869  C 16.182550903587174 4.838726980649423  17.267074248182098 4.722938797494644  18.461268564869464 4.735127027013644  C 19.655462881556826 4.747315256532644  20.739986226151746 4.875291668116711  21.71483866838111 5.119056245420156  C 22.8602903385526 5.41157374515845  23.93262800408683 5.838161777233731  24.93185180443757 6.398820306775194  C 25.931075604788308 6.935102401252336  26.838906916774203 7.587172649462018  27.655345879849005 8.35503108627504  C 28.47178484292381 9.122889523088064  29.18464570829996 9.982159678569303  29.79392847597745 10.932841552718761  C 30.403211243654937 11.88352342686822  30.890637499633062 12.90733467595225  31.256207174184933 14.004275299970855  C 31.816747330209985 15.66187441866012  32.060460458199046 17.33166185949396  31.987346523288668 19.01363748298915  C 31.889861273836217 20.695613106484345  31.518198751038142 22.28617701131132  30.872359015905467 23.78532919747008  C 30.22651928077279 25.28448138362884  29.318687899060016 26.64346898099074  28.148864940494033 27.862291850072562  C 26.97904198192805 29.08111471915439  25.602062827964744 30.05617309810977  24.017927618057893 30.78746684745551  C 22.969961240918156 31.274996002062398  21.714838668381113 31.622360550437026  20.25255997017363 31.829560440273184  Z M 18.772002788238552 29.58083216103504  C 19.905268779349353 29.532079242959043  20.813100161062124 29.39800872369861  21.495496863649986 29.178620598894888  C 22.47034930587935 28.886103099156593  23.32334523640934 28.514362098282245  24.05448458551308 28.06339763114264  C 24.785623934616822 27.612433164003036  25.52894896278125 27.021304038324967  26.284459600279494 26.29001028897923  C 27.356797335540605 25.217446100024944  28.154957780024375 24.083940858280663  28.678940968594244 22.889494354521553  C 29.20292415716411 21.695047850762446  29.513658389249063 20.354342736617404  29.611143638701513 18.867378733120002  C 29.684257573611887 17.331661859493956  29.464915768880765 15.869074360802482  28.953118224508145 14.479616237045583  C 28.44132068013553 13.114534618094613  27.710181331031784 11.901805770601863  26.759700177196923 10.841429834050544  C 25.80921902336206 9.781053897499227  24.67595303225126 8.921783742017986  23.35990220386453 8.263619367606822  C 22.043851375477796 7.581078558131337  20.60594403539169 7.17886696983808  19.046180044152454 7.056984681186358  C 18.315040695048715 7.008231763110358  17.559530057550475 7.050890563702576  16.779648061930857 7.184961087321861  C 15.999766066311238 7.319031610941146  15.195512782297126 7.532325618261087  14.366888209888513 7.8248431179993805  C 13.026466023380399 8.336748742541397  11.844457455480606 9.055854239484168  10.820862366735367 9.982159678569303  C 9.79726727799013 10.90846511765444  8.97473551024842 11.968840984464151  8.353267063510241 13.163287488223258  C 7.731798616772061 14.357733991982366  7.335764796863629 15.649686235998761  7.165165621216663 17.03914435975566  C 6.970195122311758 18.40422597870663  7.043309074653853 19.769307737140817  7.384507425947785 21.134389356091788  C 7.676963165589281 22.158200605175818  8.091275451793587 23.121070731728242  8.627444319424145 24.022999666007447  C 9.1636131870547 24.924928600286652  9.803360082657035 25.735445885639248  10.546685110821466 26.45455138258202  C 11.290010138985895 27.173656879524792  12.136913195122101 27.789162475137985  13.087394348956966 28.301068099680002  C 14.013504214397331 28.81297372422202  15.01272794502119 29.19080883386245  16.0850656802823 29.434573411165896  C 16.74309109447567 29.58083216103504  17.638736797127756 29.629585079111042  18.772002788238552 29.58083216103504  Z M 19.92354726307694 27.185845131927756  C 18.97306610924208 27.368668569264187  18.290669371790777 27.362574460498113  17.87635708558647 27.167562788194115  C 17.29144560630348 26.92379821089067  17.072103801572354 26.50330432245227  17.218331671393102 25.906081070572718  C 17.364559541213847 25.308857818693163  17.75450050416022 25.01024622762419  18.38815462995909 25.01024622762419  C 19.87480468628795 25.01024622762419  21.239598091463677 24.492246511751496  22.482534984940038 23.4562470102645  C 23.725471878416396 22.420247508777503  24.505353839172574 21.146577538753146  24.82218090207201 19.635237169933028  C 24.870923526798236 19.415849045129306  24.91357332070998 19.178178576591943  24.950130288165166 18.922225764320935  C 24.986687255620353 18.666272952049926  25.004965739347945 18.47735539722971  25.004965739347945 18.35547310857799  C 25.004965739347945 17.916696858970546  25.19993622082113 17.587614671764964  25.58987721863094 17.368226546961242  C 25.979818216440748 17.14883842215752  26.381944858447806 17.14883842215752  26.79625714465211 17.368226546961242  C 27.015598949383232 17.490108835612965  27.16182681920398 17.72168520410195  27.234940754114355 18.062955608839694  C 27.30805468902473 18.404226013577436  27.30805468902473 18.891755168184325  27.234940754114355 19.525543107531167  C 27.039970255209447 20.988130606222636  26.528172693405114 22.310553516117253  25.6995481209965 23.49281169773179  C 24.870923548587886 24.675069879346324  23.78640020399296 25.631845914568064  22.44597801748485 26.363139663913802  C 21.71483866838111 26.72878653858667  20.874028416911806 27.00302169459132  19.92354726307694 27.185845131927756  Z " fill-rule="nonzero" fill="rgba(0, 0, 0, 1)" stroke="none" transform="matrix(1 0 0 1 1675 13 )" class="fill" />
    <path d="M 20.25255997017363 31.829560440273184  C 18.790281271966144 32.036760330109345  17.49860173197391 32.05504267384298  16.3775214199238 31.884407471474113  C 15.01272801474807 31.66501934667039  13.721048405028952 31.262807784530235  12.502482869673972 30.677772785053648  C 11.283917334318991 30.09273778557706  10.187208240936497 29.361444036231326  9.212355798707138 28.48389153701644  C 8.237503356477777 27.606339037801554  7.396693105008474 26.59471604112049  6.689925044299231 25.449022477231633  C 5.983156983589987 24.303328913342778  5.45917379502012 23.060129609196633  5.117975443726188 21.719424355568375  C 4.874262333168847 20.744366046354596  4.74631294162828 19.659613674738956  4.734127285446723 18.465167170979846  C 4.721941629265166 17.27072066722074  4.83770536571366 16.1859682956051  5.081418476271001 15.21090998639132  C 5.252017651917966 14.430863297175332  5.532287729930494 13.608157829161378  5.922228727740303 12.74279358234946  C 6.3121697255501115 11.877429335537542  6.738667655951667 11.115664990055198  7.20172258867185 10.457500615644033  C 7.20172258867185 10.457500615644033  7.82319103541003 9.543383428961862  7.82319103541003 9.543383428961862  C 7.82319103541003 9.543383428961862  3.911595517705015 5.630961869962172  3.911595517705015 5.630961869962172  C 2.205603656645031 3.9002333763383326  1.1271731515804537 2.7850103737152807  0.6763038979209605 2.2852929667054265  C 0.22543464426146714 1.7855755596955722  0 1.438211046191749  0 1.243199373887752  C 0 0.9263054042143318  0.12794938609315468 0.6398820306775194  0.38384815827946406 0.3839292184065117  C 0.6397469304657735 0.1279764061355039  0.926109830576925 0  1.2429368934763598 0  C 1.4379073923812642 0  1.7851985657738207 0.2254822510052032  2.284810465949191 0.6764467181448063  C 2.784422366124561 1.1274111852844093  3.8994099083712066 2.2060694306985678  5.629772988098805 3.9124215589996902  C 5.629772988098805 3.9124215589996902  9.54136850580382 7.8248431179993805  9.54136850580382 7.8248431179993805  C 9.54136850580382 7.8248431179993805  10.455292692183498 7.203243431055505  10.455292692183498 7.203243431055505  C 11.113318106376864 6.740090711512937  11.874921618268889 6.31350271430846  12.740103158132689 5.923479369700466  C 13.605284697996488 5.533456025092471  14.427816465738196 5.25312676032174  15.207698461357813 5.082491557952869  C 16.182550903587174 4.838726980649423  17.267074248182098 4.722938797494644  18.461268564869464 4.735127027013644  C 19.655462881556826 4.747315256532644  20.739986226151746 4.875291668116711  21.71483866838111 5.119056245420156  C 22.8602903385526 5.41157374515845  23.93262800408683 5.838161777233731  24.93185180443757 6.398820306775194  C 25.931075604788308 6.935102401252336  26.838906916774203 7.587172649462018  27.655345879849005 8.35503108627504  C 28.47178484292381 9.122889523088064  29.18464570829996 9.982159678569303  29.79392847597745 10.932841552718761  C 30.403211243654937 11.88352342686822  30.890637499633062 12.90733467595225  31.256207174184933 14.004275299970855  C 31.816747330209985 15.66187441866012  32.060460458199046 17.33166185949396  31.987346523288668 19.01363748298915  C 31.889861273836217 20.695613106484345  31.518198751038142 22.28617701131132  30.872359015905467 23.78532919747008  C 30.22651928077279 25.28448138362884  29.318687899060016 26.64346898099074  28.148864940494033 27.862291850072562  C 26.97904198192805 29.08111471915439  25.602062827964744 30.05617309810977  24.017927618057893 30.78746684745551  C 22.969961240918156 31.274996002062398  21.714838668381113 31.622360550437026  20.25255997017363 31.829560440273184  Z " stroke-width="0" stroke-dasharray="0" stroke="rgba(121, 121, 121, 1)" fill="none" transform="matrix(1 0 0 1 1675 13 )" class="stroke" mask="url(#Clip13)" />
    <path d="M 18.772002788238552 29.58083216103504  C 19.905268779349353 29.532079242959043  20.813100161062124 29.39800872369861  21.495496863649986 29.178620598894888  C 22.47034930587935 28.886103099156593  23.32334523640934 28.514362098282245  24.05448458551308 28.06339763114264  C 24.785623934616822 27.612433164003036  25.52894896278125 27.021304038324967  26.284459600279494 26.29001028897923  C 27.356797335540605 25.217446100024944  28.154957780024375 24.083940858280663  28.678940968594244 22.889494354521553  C 29.20292415716411 21.695047850762446  29.513658389249063 20.354342736617404  29.611143638701513 18.867378733120002  C 29.684257573611887 17.331661859493956  29.464915768880765 15.869074360802482  28.953118224508145 14.479616237045583  C 28.44132068013553 13.114534618094613  27.710181331031784 11.901805770601863  26.759700177196923 10.841429834050544  C 25.80921902336206 9.781053897499227  24.67595303225126 8.921783742017986  23.35990220386453 8.263619367606822  C 22.043851375477796 7.581078558131337  20.60594403539169 7.17886696983808  19.046180044152454 7.056984681186358  C 18.315040695048715 7.008231763110358  17.559530057550475 7.050890563702576  16.779648061930857 7.184961087321861  C 15.999766066311238 7.319031610941146  15.195512782297126 7.532325618261087  14.366888209888513 7.8248431179993805  C 13.026466023380399 8.336748742541397  11.844457455480606 9.055854239484168  10.820862366735367 9.982159678569303  C 9.79726727799013 10.90846511765444  8.97473551024842 11.968840984464151  8.353267063510241 13.163287488223258  C 7.731798616772061 14.357733991982366  7.335764796863629 15.649686235998761  7.165165621216663 17.03914435975566  C 6.970195122311758 18.40422597870663  7.043309074653853 19.769307737140817  7.384507425947785 21.134389356091788  C 7.676963165589281 22.158200605175818  8.091275451793587 23.121070731728242  8.627444319424145 24.022999666007447  C 9.1636131870547 24.924928600286652  9.803360082657035 25.735445885639248  10.546685110821466 26.45455138258202  C 11.290010138985895 27.173656879524792  12.136913195122101 27.789162475137985  13.087394348956966 28.301068099680002  C 14.013504214397331 28.81297372422202  15.01272794502119 29.19080883386245  16.0850656802823 29.434573411165896  C 16.74309109447567 29.58083216103504  17.638736797127756 29.629585079111042  18.772002788238552 29.58083216103504  Z " stroke-width="0" stroke-dasharray="0" stroke="rgba(121, 121, 121, 1)" fill="none" transform="matrix(1 0 0 1 1675 13 )" class="stroke" mask="url(#Clip13)" />
    <path d="M 19.92354726307694 27.185845131927756  C 18.97306610924208 27.368668569264187  18.290669371790777 27.362574460498113  17.87635708558647 27.167562788194115  C 17.29144560630348 26.92379821089067  17.072103801572354 26.50330432245227  17.218331671393102 25.906081070572718  C 17.364559541213847 25.308857818693163  17.75450050416022 25.01024622762419  18.38815462995909 25.01024622762419  C 19.87480468628795 25.01024622762419  21.239598091463677 24.492246511751496  22.482534984940038 23.4562470102645  C 23.725471878416396 22.420247508777503  24.505353839172574 21.146577538753146  24.82218090207201 19.635237169933028  C 24.870923526798236 19.415849045129306  24.91357332070998 19.178178576591943  24.950130288165166 18.922225764320935  C 24.986687255620353 18.666272952049926  25.004965739347945 18.47735539722971  25.004965739347945 18.35547310857799  C 25.004965739347945 17.916696858970546  25.19993622082113 17.587614671764964  25.58987721863094 17.368226546961242  C 25.979818216440748 17.14883842215752  26.381944858447806 17.14883842215752  26.79625714465211 17.368226546961242  C 27.015598949383232 17.490108835612965  27.16182681920398 17.72168520410195  27.234940754114355 18.062955608839694  C 27.30805468902473 18.404226013577436  27.30805468902473 18.891755168184325  27.234940754114355 19.525543107531167  C 27.039970255209447 20.988130606222636  26.528172693405114 22.310553516117253  25.6995481209965 23.49281169773179  C 24.870923548587886 24.675069879346324  23.78640020399296 25.631845914568064  22.44597801748485 26.363139663913802  C 21.71483866838111 26.72878653858667  20.874028416911806 27.00302169459132  19.92354726307694 27.185845131927756  Z " stroke-width="0" stroke-dasharray="0" stroke="rgba(121, 121, 121, 1)" fill="none" transform="matrix(1 0 0 1 1675 13 )" class="stroke" mask="url(#Clip13)" />
  </g>
</svg>