<?xml version="1.0" encoding="utf-8"?>
<svg version="1.1" xmlns:xlink="http://www.w3.org/1999/xlink" width="56px" height="57px" xmlns="http://www.w3.org/2000/svg">
  <defs>
    <pattern id="BGPattern" patternUnits="userSpaceOnUse" alignment="0 0" imageRepeat="None" />
    <mask fill="white" id="Clip16">
      <path d="M 26.711423930698427 56.98988879801817  C 26.105035192203573 56.969668861705784  25.660350107669057 56.93933895994892  25.377368706009744 56.89889908732415  C 25.134813210611803 56.858459214699394  24.760873469263398 56.76746950038977  24.255549539794263 56.625929955242114  C 23.750225610325124 56.48439041009445  23.275221088865866 56.3327408922711  22.830536004331346 56.17098140177204  C 20.32412929565892 55.32174410196122  18.171449158342707 53.956898441551004  16.372495939361126 52.07644442054136  C 14.573542720379542 50.19599039953171  13.269806874785864 47.92124763218133  12.4612885760693 45.25221611849021  C 12.25915900139016 44.56473832364088  12.127774769897131 43.98847012698727  12.067135896047645 43.52341161530393  C 12.006497022198158 43.05835310362058  11.976177585273415 42.1990057877468  11.976177585273415 40.94536981230683  C 11.976177585273415 39.73217366971996  12.006497022198158 38.903156315260546  12.067135896047645 38.45831772000375  C 12.127774769897131 38.013479124746944  12.25915900139016 37.44732091523146  12.4612885760693 36.759843120382136  C 12.946399566865185 35.223127967872294  13.50225592976205 33.908832185302984  14.128857606930158 32.816955656974805  C 14.755459284098263 31.725079128646623  15.594297019739567 30.653422574594693  16.645370871683813 29.6019858791196  C 18.221981591770437 28.024830893756672  20.000721814249033 26.8520746418726  21.98159177043855 26.083717065617684  C 23.92203573362209 25.274919656509674  25.923118570655113 24.880630890283108  27.98484028153763 24.900850826595487  C 30.046561992420138 24.92107076290787  32.06785771029668 25.315359489362766  34.048727666486194 26.083717065617684  C 35.989171629669734 26.8520746418726  37.747698971304814 28.024830893756672  39.32430969139144 29.6019858791196  C 40.90092041147807 31.179140864482534  42.073271953291545 32.95849512981034  42.841364374661616 34.94004890650183  C 43.64988267337818 36.921602683193306  44.05414185165133 38.93348613205067  44.05414185165133 40.9756997158715  C 44.05414185165133 43.017913299692324  43.670095669881164 45.02979674854969  42.9020032485111 47.01135052524118  C 42.09348494979453 48.99290430193266  40.92113340798106 50.75203859298421  39.38494856524093 52.28875374549405  C 37.848763722500806 53.825468898003884  36.181194691639945 54.97800517561172  34.382241472658365 55.746362751866634  C 32.583288253676784 56.51472032812155  30.632737850071486 56.91911902182874  28.530590146183002 56.9595588944535  C 27.924201407688145 56.99999876707827  27.317812669193284 57.01010873433055  26.711423930698427 56.98988879801817  Z M 25.680563075257176 52.59205278114077  C 27.2167479179973 52.91557176213889  28.793358638083927 52.91557176213889  30.41039523551705 52.59205278114077  C 32.22956145100163 52.22809393836471  33.876917485359485 51.45973641995949  35.352463454250135 50.28698011022572  C 36.82800942314078 49.11422380049195  37.97004152802951 47.67860840366396  38.778559826746076 45.98013380404234  C 39.70835587316161 43.95814031019715  40.04186970824865 41.84515687425916  39.779101245262595 39.641183959025945  C 39.516332782276535 37.43721104379273  38.71792095289659 35.44554733781282  37.3838657282079 33.66619295678561  C 36.332791876263656 32.291237367086964  34.94820433380672 31.179140864482534  33.230102869518134 30.329903564671724  C 31.51200140522955 29.48066626486092  29.763580619675697 29.05604761495551  27.98484028153763 29.05604761495551  C 26.206099943399558 29.05604761495551  24.457679157845703 29.48066626486092  22.73957769355712 30.329903564671724  C 21.021476229268536 31.179140864482534  19.636888686811595 32.291237367086964  18.58581483486735 33.66619295678561  C 17.534740982923108 35.081588495036755  16.817181023895643 36.628413576835015  16.43313481321061 38.30666820218039  C 16.04908860252558 39.98492282752576  16.018769165600837 41.67328749785895  16.34217650243638 43.37176209748056  C 16.706009745533297 44.98935691569659  17.3326114227014 46.44519228680083  18.221981591770437 47.7392682107933  C 19.111351760839472 48.99290418623326  20.192744991878723 50.03423089457022  21.466161342717918 50.863248277954476  C 22.73957769355712 51.692265661338745  24.14437823251705 52.268533800142656  25.680563075257176 52.59205278114077  Z M 29.652409312398483 19.198828956437204  C 27.853456093416902 19.299928632575707  26.12524818870656 19.269598736242244  24.46778559826746 19.10783924574319  C 22.082656637294008 18.82476015544787  19.758166318851092 18.278821862358924  17.49431510557661 17.470024453250915  C 15.190037899296154 16.661227044142898  13.027251321558186 15.619900335805939  11.005955603681647 14.346044386089726  C 8.984659885805108 13.072188436373514  7.125067677314563 11.586023161704597  5.4271792095289655 9.887548562082982  C 3.729290741743367 8.189073962461366  2.2335318920092124 6.308619941451719  0.9399025446670277 4.246186499054041  C 0.4143656186949064 3.4778289227991244  0.11117127113362937 2.87123088043054  0.03031943692474283 2.426392285173738  C -0.050532397284143736 1.9815536899169364  0.03031943692474284 1.536715123584984  0.27287493232268545 1.0918765283281822  C 0.43457860074045856 0.7279176855521213  0.677134081680967 0.4549485534700759  1.0005414185165133 0.27296913208204554  C 1.3239487553520597 0.09098971069401517  1.7079949371222232 0  2.152680021656741 0  C 2.637791012452626 0  3.0218372231376582 0.11120964158298799  3.3048186247969684 0.333628939211389  C 3.5878000264562786 0.55604823683979  3.9112073632918247 0.9907768304960429  4.275040606388739 1.6378147924922732  C 5.204836652804273 3.1745299450021074  6.346868757693008 4.670805148959445  7.701136978884678 6.126640520063688  C 9.055405200076349 7.582475891167931  10.460205739036274 8.836111866607895  11.915538711423931 9.887548562082982  C 12.885760693015701 10.575026356932307  14.138964047351916 11.313054029622553  15.675148890092043 12.101631522304018  C 17.211333732832166 12.890209014985484  18.504962964514878 13.446257237362847  19.55603681645912 13.769776218360963  C 21.132647536545747 14.25505467539571  22.47680920165619 14.5785736419314  23.588521927449918 14.74033313243046  C 24.700234653243644 14.902092622929517  26.165674066053057 14.982972360947832  27.98484028153763 14.982972360947832  C 29.399747376578784 14.982972360947832  30.430608174190308 14.952642457383162  31.077422847861396 14.891982650253818  C 31.724237521532494 14.831322843124473  32.43169101122332 14.720113201541485  33.19978343259339 14.558353711042429  C 35.584912393566846 14.073075254007682  37.808337845154306 13.335047639167135  39.870059556036814 12.344270750821392  C 41.93178126691932 11.35349386247565  43.87222523010287 10.130187790600358  45.69139144558744 8.674352419496113  C 46.78289117487819 7.784675228982509  47.88449734459068 6.6927987585040265  48.99621007038441 5.398722834511567  C 50.10792279617814 4.104646910519106  51.00739940566893 2.891450767932237  51.694639956686515 1.75913440675096  C 52.01804729352206 1.11209644475473  52.36166756903086 0.6571479202095041  52.72550081212777 0.3942887463407324  C 53.08933405522469 0.1314295724719608  53.51380617217109 0  53.99891716296697 0  C 54.32232449980252 0  54.56487998074303 0.04043986900915813  54.7265836491608 0.1213196142586869  C 54.88828731757857 0.2021993595082157  55.11062985984583 0.3639588427760607  55.39361126150514 0.6065980712934345  C 55.63616675690309 0.8492372998108084  55.79787041809214 1.0615466247635101  55.87872225230103 1.2435260461515407  C 55.959574086509924 1.425505467539571  56 1.678254654270219  56 2.001773635268334  C 56 2.325292616266449  55.93936112615051 2.628591651913166  55.81808337845154 2.9116707422084853  C 55.69680563075258 3.194749832503805  55.43403716776651 3.6598083441871547  55.02977801840822 4.306846306183385  C 53.897852411770984 6.086200687210593  52.60422306442881 7.744235338279714  51.14889009204115 9.280950490789548  C 49.69355711965349 10.817665643299383  48.10683995914511 12.192621232998034  46.388738494856526 13.405817375584903  C 44.67063703056794 14.619013518171773  42.8615773711646 15.65023023937061  40.96155928532756 16.499467539181417  C 39.02111532214402 17.348704838992226  37.02003248511099 17.995742772063608  34.95831077422848 18.440581367320412  C 33.21999642909638 18.844980071874417  31.451362531380067 19.0977292802987  29.652409312398483 19.198828956437204  Z " fill-rule="evenodd" />
    </mask>
  </defs>
  <g transform="matrix(1 0 0 1 -1764 -183 )">
    <path d="M 26.711423930698427 56.98988879801817  C 26.105035192203573 56.969668861705784  25.660350107669057 56.93933895994892  25.377368706009744 56.89889908732415  C 25.134813210611803 56.858459214699394  24.760873469263398 56.76746950038977  24.255549539794263 56.625929955242114  C 23.750225610325124 56.48439041009445  23.275221088865866 56.3327408922711  22.830536004331346 56.17098140177204  C 20.32412929565892 55.32174410196122  18.171449158342707 53.956898441551004  16.372495939361126 52.07644442054136  C 14.573542720379542 50.19599039953171  13.269806874785864 47.92124763218133  12.4612885760693 45.25221611849021  C 12.25915900139016 44.56473832364088  12.127774769897131 43.98847012698727  12.067135896047645 43.52341161530393  C 12.006497022198158 43.05835310362058  11.976177585273415 42.1990057877468  11.976177585273415 40.94536981230683  C 11.976177585273415 39.73217366971996  12.006497022198158 38.903156315260546  12.067135896047645 38.45831772000375  C 12.127774769897131 38.013479124746944  12.25915900139016 37.44732091523146  12.4612885760693 36.759843120382136  C 12.946399566865185 35.223127967872294  13.50225592976205 33.908832185302984  14.128857606930158 32.816955656974805  C 14.755459284098263 31.725079128646623  15.594297019739567 30.653422574594693  16.645370871683813 29.6019858791196  C 18.221981591770437 28.024830893756672  20.000721814249033 26.8520746418726  21.98159177043855 26.083717065617684  C 23.92203573362209 25.274919656509674  25.923118570655113 24.880630890283108  27.98484028153763 24.900850826595487  C 30.046561992420138 24.92107076290787  32.06785771029668 25.315359489362766  34.048727666486194 26.083717065617684  C 35.989171629669734 26.8520746418726  37.747698971304814 28.024830893756672  39.32430969139144 29.6019858791196  C 40.90092041147807 31.179140864482534  42.073271953291545 32.95849512981034  42.841364374661616 34.94004890650183  C 43.64988267337818 36.921602683193306  44.05414185165133 38.93348613205067  44.05414185165133 40.9756997158715  C 44.05414185165133 43.017913299692324  43.670095669881164 45.02979674854969  42.9020032485111 47.01135052524118  C 42.09348494979453 48.99290430193266  40.92113340798106 50.75203859298421  39.38494856524093 52.28875374549405  C 37.848763722500806 53.825468898003884  36.181194691639945 54.97800517561172  34.382241472658365 55.746362751866634  C 32.583288253676784 56.51472032812155  30.632737850071486 56.91911902182874  28.530590146183002 56.9595588944535  C 27.924201407688145 56.99999876707827  27.317812669193284 57.01010873433055  26.711423930698427 56.98988879801817  Z M 25.680563075257176 52.59205278114077  C 27.2167479179973 52.91557176213889  28.793358638083927 52.91557176213889  30.41039523551705 52.59205278114077  C 32.22956145100163 52.22809393836471  33.876917485359485 51.45973641995949  35.352463454250135 50.28698011022572  C 36.82800942314078 49.11422380049195  37.97004152802951 47.67860840366396  38.778559826746076 45.98013380404234  C 39.70835587316161 43.95814031019715  40.04186970824865 41.84515687425916  39.779101245262595 39.641183959025945  C 39.516332782276535 37.43721104379273  38.71792095289659 35.44554733781282  37.3838657282079 33.66619295678561  C 36.332791876263656 32.291237367086964  34.94820433380672 31.179140864482534  33.230102869518134 30.329903564671724  C 31.51200140522955 29.48066626486092  29.763580619675697 29.05604761495551  27.98484028153763 29.05604761495551  C 26.206099943399558 29.05604761495551  24.457679157845703 29.48066626486092  22.73957769355712 30.329903564671724  C 21.021476229268536 31.179140864482534  19.636888686811595 32.291237367086964  18.58581483486735 33.66619295678561  C 17.534740982923108 35.081588495036755  16.817181023895643 36.628413576835015  16.43313481321061 38.30666820218039  C 16.04908860252558 39.98492282752576  16.018769165600837 41.67328749785895  16.34217650243638 43.37176209748056  C 16.706009745533297 44.98935691569659  17.3326114227014 46.44519228680083  18.221981591770437 47.7392682107933  C 19.111351760839472 48.99290418623326  20.192744991878723 50.03423089457022  21.466161342717918 50.863248277954476  C 22.73957769355712 51.692265661338745  24.14437823251705 52.268533800142656  25.680563075257176 52.59205278114077  Z M 29.652409312398483 19.198828956437204  C 27.853456093416902 19.299928632575707  26.12524818870656 19.269598736242244  24.46778559826746 19.10783924574319  C 22.082656637294008 18.82476015544787  19.758166318851092 18.278821862358924  17.49431510557661 17.470024453250915  C 15.190037899296154 16.661227044142898  13.027251321558186 15.619900335805939  11.005955603681647 14.346044386089726  C 8.984659885805108 13.072188436373514  7.125067677314563 11.586023161704597  5.4271792095289655 9.887548562082982  C 3.729290741743367 8.189073962461366  2.2335318920092124 6.308619941451719  0.9399025446670277 4.246186499054041  C 0.4143656186949064 3.4778289227991244  0.11117127113362937 2.87123088043054  0.03031943692474283 2.426392285173738  C -0.050532397284143736 1.9815536899169364  0.03031943692474284 1.536715123584984  0.27287493232268545 1.0918765283281822  C 0.43457860074045856 0.7279176855521213  0.677134081680967 0.4549485534700759  1.0005414185165133 0.27296913208204554  C 1.3239487553520597 0.09098971069401517  1.7079949371222232 0  2.152680021656741 0  C 2.637791012452626 0  3.0218372231376582 0.11120964158298799  3.3048186247969684 0.333628939211389  C 3.5878000264562786 0.55604823683979  3.9112073632918247 0.9907768304960429  4.275040606388739 1.6378147924922732  C 5.204836652804273 3.1745299450021074  6.346868757693008 4.670805148959445  7.701136978884678 6.126640520063688  C 9.055405200076349 7.582475891167931  10.460205739036274 8.836111866607895  11.915538711423931 9.887548562082982  C 12.885760693015701 10.575026356932307  14.138964047351916 11.313054029622553  15.675148890092043 12.101631522304018  C 17.211333732832166 12.890209014985484  18.504962964514878 13.446257237362847  19.55603681645912 13.769776218360963  C 21.132647536545747 14.25505467539571  22.47680920165619 14.5785736419314  23.588521927449918 14.74033313243046  C 24.700234653243644 14.902092622929517  26.165674066053057 14.982972360947832  27.98484028153763 14.982972360947832  C 29.399747376578784 14.982972360947832  30.430608174190308 14.952642457383162  31.077422847861396 14.891982650253818  C 31.724237521532494 14.831322843124473  32.43169101122332 14.720113201541485  33.19978343259339 14.558353711042429  C 35.584912393566846 14.073075254007682  37.808337845154306 13.335047639167135  39.870059556036814 12.344270750821392  C 41.93178126691932 11.35349386247565  43.87222523010287 10.130187790600358  45.69139144558744 8.674352419496113  C 46.78289117487819 7.784675228982509  47.88449734459068 6.6927987585040265  48.99621007038441 5.398722834511567  C 50.10792279617814 4.104646910519106  51.00739940566893 2.891450767932237  51.694639956686515 1.75913440675096  C 52.01804729352206 1.11209644475473  52.36166756903086 0.6571479202095041  52.72550081212777 0.3942887463407324  C 53.08933405522469 0.1314295724719608  53.51380617217109 0  53.99891716296697 0  C 54.32232449980252 0  54.56487998074303 0.04043986900915813  54.7265836491608 0.1213196142586869  C 54.88828731757857 0.2021993595082157  55.11062985984583 0.3639588427760607  55.39361126150514 0.6065980712934345  C 55.63616675690309 0.8492372998108084  55.79787041809214 1.0615466247635101  55.87872225230103 1.2435260461515407  C 55.959574086509924 1.425505467539571  56 1.678254654270219  56 2.001773635268334  C 56 2.325292616266449  55.93936112615051 2.628591651913166  55.81808337845154 2.9116707422084853  C 55.69680563075258 3.194749832503805  55.43403716776651 3.6598083441871547  55.02977801840822 4.306846306183385  C 53.897852411770984 6.086200687210593  52.60422306442881 7.744235338279714  51.14889009204115 9.280950490789548  C 49.69355711965349 10.817665643299383  48.10683995914511 12.192621232998034  46.388738494856526 13.405817375584903  C 44.67063703056794 14.619013518171773  42.8615773711646 15.65023023937061  40.96155928532756 16.499467539181417  C 39.02111532214402 17.348704838992226  37.02003248511099 17.995742772063608  34.95831077422848 18.440581367320412  C 33.21999642909638 18.844980071874417  31.451362531380067 19.0977292802987  29.652409312398483 19.198828956437204  Z " fill-rule="nonzero" fill="rgba(0, 0, 0, 1)" stroke="none" transform="matrix(1 0 0 1 1764 183 )" class="fill" />
    <path d="M 26.711423930698427 56.98988879801817  C 26.105035192203573 56.969668861705784  25.660350107669057 56.93933895994892  25.377368706009744 56.89889908732415  C 25.134813210611803 56.858459214699394  24.760873469263398 56.76746950038977  24.255549539794263 56.625929955242114  C 23.750225610325124 56.48439041009445  23.275221088865866 56.3327408922711  22.830536004331346 56.17098140177204  C 20.32412929565892 55.32174410196122  18.171449158342707 53.956898441551004  16.372495939361126 52.07644442054136  C 14.573542720379542 50.19599039953171  13.269806874785864 47.92124763218133  12.4612885760693 45.25221611849021  C 12.25915900139016 44.56473832364088  12.127774769897131 43.98847012698727  12.067135896047645 43.52341161530393  C 12.006497022198158 43.05835310362058  11.976177585273415 42.1990057877468  11.976177585273415 40.94536981230683  C 11.976177585273415 39.73217366971996  12.006497022198158 38.903156315260546  12.067135896047645 38.45831772000375  C 12.127774769897131 38.013479124746944  12.25915900139016 37.44732091523146  12.4612885760693 36.759843120382136  C 12.946399566865185 35.223127967872294  13.50225592976205 33.908832185302984  14.128857606930158 32.816955656974805  C 14.755459284098263 31.725079128646623  15.594297019739567 30.653422574594693  16.645370871683813 29.6019858791196  C 18.221981591770437 28.024830893756672  20.000721814249033 26.8520746418726  21.98159177043855 26.083717065617684  C 23.92203573362209 25.274919656509674  25.923118570655113 24.880630890283108  27.98484028153763 24.900850826595487  C 30.046561992420138 24.92107076290787  32.06785771029668 25.315359489362766  34.048727666486194 26.083717065617684  C 35.989171629669734 26.8520746418726  37.747698971304814 28.024830893756672  39.32430969139144 29.6019858791196  C 40.90092041147807 31.179140864482534  42.073271953291545 32.95849512981034  42.841364374661616 34.94004890650183  C 43.64988267337818 36.921602683193306  44.05414185165133 38.93348613205067  44.05414185165133 40.9756997158715  C 44.05414185165133 43.017913299692324  43.670095669881164 45.02979674854969  42.9020032485111 47.01135052524118  C 42.09348494979453 48.99290430193266  40.92113340798106 50.75203859298421  39.38494856524093 52.28875374549405  C 37.848763722500806 53.825468898003884  36.181194691639945 54.97800517561172  34.382241472658365 55.746362751866634  C 32.583288253676784 56.51472032812155  30.632737850071486 56.91911902182874  28.530590146183002 56.9595588944535  C 27.924201407688145 56.99999876707827  27.317812669193284 57.01010873433055  26.711423930698427 56.98988879801817  Z " stroke-width="0" stroke-dasharray="0" stroke="rgba(121, 121, 121, 1)" fill="none" transform="matrix(1 0 0 1 1764 183 )" class="stroke" mask="url(#Clip16)" />
    <path d="M 25.680563075257176 52.59205278114077  C 27.2167479179973 52.91557176213889  28.793358638083927 52.91557176213889  30.41039523551705 52.59205278114077  C 32.22956145100163 52.22809393836471  33.876917485359485 51.45973641995949  35.352463454250135 50.28698011022572  C 36.82800942314078 49.11422380049195  37.97004152802951 47.67860840366396  38.778559826746076 45.98013380404234  C 39.70835587316161 43.95814031019715  40.04186970824865 41.84515687425916  39.779101245262595 39.641183959025945  C 39.516332782276535 37.43721104379273  38.71792095289659 35.44554733781282  37.3838657282079 33.66619295678561  C 36.332791876263656 32.291237367086964  34.94820433380672 31.179140864482534  33.230102869518134 30.329903564671724  C 31.51200140522955 29.48066626486092  29.763580619675697 29.05604761495551  27.98484028153763 29.05604761495551  C 26.206099943399558 29.05604761495551  24.457679157845703 29.48066626486092  22.73957769355712 30.329903564671724  C 21.021476229268536 31.179140864482534  19.636888686811595 32.291237367086964  18.58581483486735 33.66619295678561  C 17.534740982923108 35.081588495036755  16.817181023895643 36.628413576835015  16.43313481321061 38.30666820218039  C 16.04908860252558 39.98492282752576  16.018769165600837 41.67328749785895  16.34217650243638 43.37176209748056  C 16.706009745533297 44.98935691569659  17.3326114227014 46.44519228680083  18.221981591770437 47.7392682107933  C 19.111351760839472 48.99290418623326  20.192744991878723 50.03423089457022  21.466161342717918 50.863248277954476  C 22.73957769355712 51.692265661338745  24.14437823251705 52.268533800142656  25.680563075257176 52.59205278114077  Z " stroke-width="0" stroke-dasharray="0" stroke="rgba(121, 121, 121, 1)" fill="none" transform="matrix(1 0 0 1 1764 183 )" class="stroke" mask="url(#Clip16)" />
    <path d="M 29.652409312398483 19.198828956437204  C 27.853456093416902 19.299928632575707  26.12524818870656 19.269598736242244  24.46778559826746 19.10783924574319  C 22.082656637294008 18.82476015544787  19.758166318851092 18.278821862358924  17.49431510557661 17.470024453250915  C 15.190037899296154 16.661227044142898  13.027251321558186 15.619900335805939  11.005955603681647 14.346044386089726  C 8.984659885805108 13.072188436373514  7.125067677314563 11.586023161704597  5.4271792095289655 9.887548562082982  C 3.729290741743367 8.189073962461366  2.2335318920092124 6.308619941451719  0.9399025446670277 4.246186499054041  C 0.4143656186949064 3.4778289227991244  0.11117127113362937 2.87123088043054  0.03031943692474283 2.426392285173738  C -0.050532397284143736 1.9815536899169364  0.03031943692474284 1.536715123584984  0.27287493232268545 1.0918765283281822  C 0.43457860074045856 0.7279176855521213  0.677134081680967 0.4549485534700759  1.0005414185165133 0.27296913208204554  C 1.3239487553520597 0.09098971069401517  1.7079949371222232 0  2.152680021656741 0  C 2.637791012452626 0  3.0218372231376582 0.11120964158298799  3.3048186247969684 0.333628939211389  C 3.5878000264562786 0.55604823683979  3.9112073632918247 0.9907768304960429  4.275040606388739 1.6378147924922732  C 5.204836652804273 3.1745299450021074  6.346868757693008 4.670805148959445  7.701136978884678 6.126640520063688  C 9.055405200076349 7.582475891167931  10.460205739036274 8.836111866607895  11.915538711423931 9.887548562082982  C 12.885760693015701 10.575026356932307  14.138964047351916 11.313054029622553  15.675148890092043 12.101631522304018  C 17.211333732832166 12.890209014985484  18.504962964514878 13.446257237362847  19.55603681645912 13.769776218360963  C 21.132647536545747 14.25505467539571  22.47680920165619 14.5785736419314  23.588521927449918 14.74033313243046  C 24.700234653243644 14.902092622929517  26.165674066053057 14.982972360947832  27.98484028153763 14.982972360947832  C 29.399747376578784 14.982972360947832  30.430608174190308 14.952642457383162  31.077422847861396 14.891982650253818  C 31.724237521532494 14.831322843124473  32.43169101122332 14.720113201541485  33.19978343259339 14.558353711042429  C 35.584912393566846 14.073075254007682  37.808337845154306 13.335047639167135  39.870059556036814 12.344270750821392  C 41.93178126691932 11.35349386247565  43.87222523010287 10.130187790600358  45.69139144558744 8.674352419496113  C 46.78289117487819 7.784675228982509  47.88449734459068 6.6927987585040265  48.99621007038441 5.398722834511567  C 50.10792279617814 4.104646910519106  51.00739940566893 2.891450767932237  51.694639956686515 1.75913440675096  C 52.01804729352206 1.11209644475473  52.36166756903086 0.6571479202095041  52.72550081212777 0.3942887463407324  C 53.08933405522469 0.1314295724719608  53.51380617217109 0  53.99891716296697 0  C 54.32232449980252 0  54.56487998074303 0.04043986900915813  54.7265836491608 0.1213196142586869  C 54.88828731757857 0.2021993595082157  55.11062985984583 0.3639588427760607  55.39361126150514 0.6065980712934345  C 55.63616675690309 0.8492372998108084  55.79787041809214 1.0615466247635101  55.87872225230103 1.2435260461515407  C 55.959574086509924 1.425505467539571  56 1.678254654270219  56 2.001773635268334  C 56 2.325292616266449  55.93936112615051 2.628591651913166  55.81808337845154 2.9116707422084853  C 55.69680563075258 3.194749832503805  55.43403716776651 3.6598083441871547  55.02977801840822 4.306846306183385  C 53.897852411770984 6.086200687210593  52.60422306442881 7.744235338279714  51.14889009204115 9.280950490789548  C 49.69355711965349 10.817665643299383  48.10683995914511 12.192621232998034  46.388738494856526 13.405817375584903  C 44.67063703056794 14.619013518171773  42.8615773711646 15.65023023937061  40.96155928532756 16.499467539181417  C 39.02111532214402 17.348704838992226  37.02003248511099 17.995742772063608  34.95831077422848 18.440581367320412  C 33.21999642909638 18.844980071874417  31.451362531380067 19.0977292802987  29.652409312398483 19.198828956437204  Z " stroke-width="0" stroke-dasharray="0" stroke="rgba(121, 121, 121, 1)" fill="none" transform="matrix(1 0 0 1 1764 183 )" class="stroke" mask="url(#Clip16)" />
  </g>
</svg>