<?xml version="1.0" encoding="utf-8"?>
<svg version="1.1" xmlns:xlink="http://www.w3.org/1999/xlink" width="6px" height="17px" xmlns="http://www.w3.org/2000/svg">
  <defs>
    <pattern id="BGPattern" patternUnits="userSpaceOnUse" alignment="0 0" imageRepeat="None" />
    <mask fill="white" id="Clip19">
      <path d="M 0 1.3076917747382102  C 0 0.5854732428530056  0.5372584263483684 0  1.2000001271565754 0  C 1.2000001271565754 0  4.799999872843424 0  4.799999872843424 0  C 5.462741573651631 0  6 0.5854732428530056  6 1.3076917747382102  C 6 1.3076917747382102  6 15.692308225261792  6 15.692308225261792  C 6 16.414526757146994  5.462741573651631 17  4.799999872843424 17  C 4.799999872843424 17  1.2000001271565754 17  1.2000001271565754 17  C 0.5372584263483684 17  0 16.414526757146994  0 15.692308225261792  C 0 15.692308225261792  0 1.3076917747382102  0 1.3076917747382102  Z " fill-rule="evenodd" />
    </mask>
  </defs>
  <g transform="matrix(1 0 0 1 -72 -10 )">
    <path d="M 0 1.3076917747382102  C 0 0.5854732428530056  0.5372584263483684 0  1.2000001271565754 0  C 1.2000001271565754 0  4.799999872843424 0  4.799999872843424 0  C 5.462741573651631 0  6 0.5854732428530056  6 1.3076917747382102  C 6 1.3076917747382102  6 15.692308225261792  6 15.692308225261792  C 6 16.414526757146994  5.462741573651631 17  4.799999872843424 17  C 4.799999872843424 17  1.2000001271565754 17  1.2000001271565754 17  C 0.5372584263483684 17  0 16.414526757146994  0 15.692308225261792  C 0 15.692308225261792  0 1.3076917747382102  0 1.3076917747382102  Z " fill-rule="nonzero" fill="rgba(35, 31, 32, 1)" stroke="none" transform="matrix(1 0 0 1 72 10 )" class="fill" />
    <path d="M 0 1.3076917747382102  C 0 0.5854732428530056  0.5372584263483684 0  1.2000001271565754 0  C 1.2000001271565754 0  4.799999872843424 0  4.799999872843424 0  C 5.462741573651631 0  6 0.5854732428530056  6 1.3076917747382102  C 6 1.3076917747382102  6 15.692308225261792  6 15.692308225261792  C 6 16.414526757146994  5.462741573651631 17  4.799999872843424 17  C 4.799999872843424 17  1.2000001271565754 17  1.2000001271565754 17  C 0.5372584263483684 17  0 16.414526757146994  0 15.692308225261792  C 0 15.692308225261792  0 1.3076917747382102  0 1.3076917747382102  Z " stroke-width="0" stroke-dasharray="0" stroke="rgba(121, 121, 121, 1)" fill="none" transform="matrix(1 0 0 1 72 10 )" class="stroke" mask="url(#Clip19)" />
  </g>
</svg>