<?xml version="1.0" encoding="utf-8"?>
<svg version="1.1" xmlns:xlink="http://www.w3.org/1999/xlink" width="39px" height="49px" xmlns="http://www.w3.org/2000/svg">
  <defs>
    <pattern id="BGPattern" patternUnits="userSpaceOnUse" alignment="0 0" imageRepeat="None" />
    <mask fill="white" id="Clip24">
      <path d="M 19.935123955967825 48.98404006180734  C 19.097107417439677 49.01596188749756  18.45247934989351 49.00000097607946  18.00123970722193 48.936157324699025  C 16.421900842602923 48.680782719177245  14.963429835745321 48.07426805674934  13.625826594434336 47.11661331458301  C 12.288223353123353 46.15895857241669  11.248759785596743 44.961890144708796  10.507437505613279 43.52540803145931  C 10.185123471840194 42.85504971194288  9.927272230989512 42.13680865531814  9.733883806114921 41.37068486158509  C 9.540495381240332 40.60456106785203  9.443801168803034 39.88632001122728  9.443801168803034 39.21596169171086  C 9.443801168803034 39.21596169171086  9.443801168803034 38.68925158351938  9.443801168803034 38.68925158351938  L 3.7871901100804326 38.641368846411076  C 3.7871901100804326 38.641368846411076  3.3520661541126056 38.35407242376118  3.3520661541126056 38.35407242376118  C 2.9652893043634263 38.0986978182394  2.6993800357312914 37.41237862440732  2.554338717075349 36.295114728103584  C 2.4092973984194064 35.177850831799844  1.9822314010719388 30.166124378239125  1.2731404944959783 21.259935276092335  C 1.0475206731601892 18.450814638185076  0.8541321906513577 16.008795045660957  0.6929751737648157 13.933876498519975  C 0.5318181568782736 11.890879654345776  0.3948347046279036 10.18306206125886  0.282024793960009 8.810423627930156  C 0.16921488329211443 7.437785194601454  0.09669421531900697 6.384364932553964  0.06446281021267132 5.650162978781297  C 0 4.915961025008628  -0.01611570255316783 4.469055459637456  0.01611570255316783 4.309446339748447  C 0.01611570255316783 3.8944626029215286  0.0402892571033476 3.591205283123706  0.08863636332199507 3.3996743346904417  C 0.1369834695406425 3.208143386257177  0.2417355195663889 2.9527687807354015  0.40289253645293094 2.633550540957384  C 0.5962809613275207 2.218566804130466  0.8702479349893507 1.8195440101160107  1.224793388277331 1.436482113249482  C 1.5793388415653113 1.0534202163829536  1.9499998893422557 0.7661237937330572  2.336776739091435 0.5745928452997928  C 2.8847105942003086 0.2872964226498964  3.7710743772692887 0.11970684277079018  4.995867765546619 0.0718241056624741  C 6.22066115382395 0.02394136855415803  11.039256411736698 0  19.451652893781354 0  C 21.93347095152873 0  24.141320721553566 0  26.075204970299463 0  C 28.009089219045364 0  29.652890830479375 0.00798045570904709  31.006609804601503 0.023941368554158036  C 32.36032877872363 0.039902281399268984  33.407849428830126 0.04788273710831607  34.14917170881359 0.04788273710831607  C 34.89049398879705 0.07980456279853797  35.293386554067105 0.09576547421663215  35.35784936427977 0.09576547421663215  C 36.03470885134084 0.22345277697751967  36.671279098588826 0.5187296367852451  37.26756005991635 0.9815961107204794  C 37.86384102124387 1.4444625846557138  38.30702284361727 1.9951140614013483  38.59710548092915 2.633550540957384  C 38.75826249781569 2.9527687807354015  38.86301456513171 3.208143386257177  38.911361671350356 3.3996743346904417  C 38.959708777569006 3.591205283123706  38.983882330678334 3.8944626029215286  38.983882330678334 4.309446339748447  C 39.01611373578467 4.469055459637456  38.99999803467236 4.915961025008628  38.935535224459684 5.650162978781297  C 38.903303819353354 6.384364932553964  38.83078315714367 7.437785194601454  38.71797324647577 8.810423627930156  C 38.60516333580787 10.18306206125886  38.46817986050381 11.890879654345776  38.30702284361727 13.933876498519975  C 38.14586582673072 16.008795045660957  37.952477390329285 18.450814638185076  37.726857568993495 21.259935276092335  C 37.017766662417536 30.166124378239125  36.59070057285529 35.177850831799844  36.44565925419934 36.295114728103584  C 36.30061793554339 37.41237862440732  36.03470885134084 38.0986978182394  35.647932001591656 38.35407242376118  C 35.647932001591656 38.35407242376118  35.212808045623824 38.641368846411076  35.212808045623824 38.641368846411076  L 29.55619661804208 38.68925158351938  C 29.55619661804208 38.68925158351938  29.55619661804208 39.263844428819176  29.55619661804208 39.263844428819176  C 29.55619661804208 39.39153173158006  29.540080916929767 39.59902358857739  29.507849511823434 39.88632001122728  C 29.4756181067171 40.173616433877186  29.44338670449247 40.42899103939896  29.411155299386134 40.65244380496034  C 29.088841265613055 42.59967517491791  28.242766929840418 44.307492768004835  26.872932222907146 45.775896675550165  C 25.503097515973874 47.244300583095495  23.835123919081916 48.23387716522221  21.869008204713726 48.74462637626576  C 21.41776856204215 48.87231367902665  20.773140494495976 48.952118236117116  19.935123955967825 48.98404006180734  Z M 19.741735531093237 45.56042435856274  C 20.4508264376692 45.54446344571763  21.063223085700475 45.44071751579195  21.578925567401843 45.24918656735869  C 22.86818170249418 44.83420283053177  23.915702398708063 44.1000008767591  24.721487471613923 43.04658066037615  C 25.527272544519786 41.9931604439932  25.978510757862168 40.82801381058114  26.075204970299463 39.55114085146907  C 26.075204970299463 39.55114085146907  26.12355207651811 38  26.12355207651811 38  L 12.924793554263948 38  C 12.924793554263948 38  12.924793554263948 39.31172716592749  12.924793554263948 39.31172716592749  C 12.924793554263948 39.4713362858165  12.94090925537626 39.67882814281383  12.973140660482597 39.9342027483356  C 13.005372065588931 40.18957735385737  13.053719168925866 40.42899103939896  13.118181979138539 40.65244380496034  C 13.408264616450422 41.83355128985578  13.972314158263048 42.83908876913041  14.8103306967912 43.66905624278425  C 15.648347235319353 44.499023716438096  16.663636465910947 45.07361653890562  17.85619838856599 45.392834778683635  C 18.404132243674862 45.52052208144452  19.03264462451728 45.57638527140785  19.741735531093237 45.56042435856274  Z M 9.443801168803034 35.241694511720624  C 9.443801168803034 35.241694511720624  9.443801168803034 30.836482697755546  9.443801168803034 30.836482697755546  C 9.443801168803034 29.400000584506067  9.451859019359194 28.282736688202334  9.467974721912361 27.48469110017343  C 9.484090424465528 26.686645512144516  9.508263976133996 26.25570084962933  9.540495381240332 26.191857198248893  C 9.604958191453003 26.03224807835988  9.725825951236198 25.856678038490678  9.903098677880187 25.665147090057417  C 10.080371404524177 25.47361614162415  10.249586276289442 25.329967930299198  10.410743293175985 25.23420245608257  C 10.571900310062526 25.138436981865937  10.805577986277042 25.09055424475762  11.111776333346373 25.09055424475762  C 11.417974680415705 25.09055424475762  11.683883764618269 25.138436981865937  11.909503585954056 25.23420245608257  C 12.102892010828647 25.298046107463016  12.288223318542808 25.433713853089795  12.465496045186798 25.641205721503255  C 12.642768771830788 25.848697589916718  12.763636531613981 26.080130804052065  12.828099341826652 26.335505409573837  C 12.86033074693299 26.43127088379047  12.884504298601456 26.894137312061172  12.900620001154623 27.724104785715006  C 12.916735703707793 28.554072259368844  12.924793554263948 29.639414270047645  12.924793554263948 30.980130909080497  C 12.924793554263948 30.980130909080497  12.924793554263948 35  12.924793554263948 35  L 26.075204970299463 35  C 26.075204970299463 35  26.075204970299463 30.980130909080497  26.075204970299463 30.980130909080497  C 26.075204970299463 29.639414270047645  26.08326282085562 28.554072259368844  26.099378523408788 27.724104785715006  C 26.115494225961953 26.894137312061172  26.13966777763042 26.43127088379047  26.171899182736755 26.335505409573837  C 26.236361992949426 26.080130804052065  26.357229752732625 25.848697589916718  26.534502479376616 25.641205721503255  C 26.711775206020604 25.433713853089795  26.897105776016474 25.298046107463016  27.09049420089106 25.23420245608257  C 27.316114022226845 25.138436981865937  27.573965263077536 25.09055424475762  27.86404790038942 25.09055424475762  C 28.154130537701302 25.09055424475762  28.39586606879454 25.138436981865937  28.589254493669127 25.23420245608257  C 28.750411510555672 25.329967930299198  28.91962638232094 25.46563568163405  29.09689910896493 25.641205721503255  C 29.27417183560892 25.81677576137246  29.395039595392113 26.000326249815625  29.45950240560478 26.191857198248893  C 29.491733810711114 26.25570084962933  29.515907362379586 26.686645512144516  29.532023064932755 27.48469110017343  C 29.548138767485923 28.282736688202334  29.55619661804208 29.400000584506067  29.55619661804208 30.836482697755546  C 29.55619661804208 30.836482697755546  29.55619661804208 35.241694511720624  29.55619661804208 35.241694511720624  C 29.55619661804208 35.241694511720624  31.345039548132036 35.241694511720624  31.345039548132036 35.241694511720624  C 32.0218990351931 35.241694511720624  32.489254387622125 35.23371405601158  32.747105628472816 35.21775314316647  C 33.0049568693235 35.20179223032136  33.13388247822199 35.177850863194216  33.13388247822199 35.14592903750399  C 33.13388247822199 35.11400721181377  33.16611388044661 34.6830626092333  33.230576690659284 33.853095135579466  C 33.29503950087195 33.05504954755055  33.38367586419395 31.95374659405928  33.496485774861846 30.54918627510565  C 33.609295685529744 29.144625956152023  33.74627916083381 27.516612985798353  33.90743617772035 25.665147090057417  C 34.0685931946069 23.781759491349696  34.22975022302028 21.786645384283812  34.390907239906824 19.679804951517905  C 34.584295664781415 17.221824507510398  34.7615683914254 15.035179452011246  34.92272540831194 13.119869967678605  C 35.08388242519849 11.204560483345961  35.21280804562384 9.592508364475677  35.30950225806113 8.28371351973868  C 35.406196470498415 6.974918675001683  35.47065927782938 5.9693812413915825  35.50289068293571 5.267101081914768  C 35.53512208804205 4.564820922437953  35.551237789154364 4.19771995411372  35.551237789154364 4.165798128423498  C 35.51900638404803 4.101954477043055  35.47065928071109 4.03013037138058  35.406196470498415 3.950325811436076  C 35.34173366028575 3.8705212514915712  35.26115515184247 3.7827362315569695  35.16446093940518 3.6869707573403376  C 35.16446093940518 3.6869707573403376  34.8743783020933 4  34.8743783020933 4  L 4.1256198536109645 4  C 4.1256198536109645 4  3.8355372162990804 3.6869707573403376  3.8355372162990804 3.6869707573403376  C 3.7388430038617853 3.7827362315569695  3.658264495418514 3.8705212514915712  3.593801685205843 3.950325811436076  C 3.529338874993172 4.03013037138058  3.480991771656236 4.101954477043055  3.4487603665499007 4.165798128423498  C 3.4487603665499007 4.19771995411372  3.464876067662212 4.564820922437953  3.4971074727685476 5.267101081914768  C 3.529338877874883 5.9693812413915825  3.593801685205843 6.974918675001683  3.690495897643138 8.28371351973868  C 3.787190110080432 9.592508364475677  3.9161157305057754 11.204560483345961  4.077272747392318 13.119869967678605  C 4.23842976427886 15.035179452011246  4.41570249092285 17.221824507510398  4.60909091579744 19.679804951517905  C 4.770247932683982 21.786645384283812  4.931404961097371 23.781759491349696  5.092561977983913 25.665147090057417  C 5.253718994870456 27.516612985798353  5.3907024701745225 29.144625956152023  5.503512380842417 30.54918627510565  C 5.616322291510311 31.95374659405928  5.704958654832308 33.05504954755055  5.769421465044979 33.853095135579466  C 5.83388427525765 34.6830626092333  5.866115677482273 35.11400721181377  5.866115677482273 35.14592903750399  C 5.866115677482273 35.177850863194216  5.995040917521619 35.20179223032136  6.252892158372305 35.21775314316647  C 6.5107433992229895 35.23371405601158  6.978098751652017 35.241694511720624  7.654958238713081 35.241694511720624  C 7.654958238713081 35.241694511720624  9.443801168803034 35.241694511720624  9.443801168803034 35.241694511720624  Z " fill-rule="evenodd" />
    </mask>
  </defs>
  <g transform="matrix(1 0 0 1 -1582 -187 )">
    <path d="M 19.935123955967825 48.98404006180734  C 19.097107417439677 49.01596188749756  18.45247934989351 49.00000097607946  18.00123970722193 48.936157324699025  C 16.421900842602923 48.680782719177245  14.963429835745321 48.07426805674934  13.625826594434336 47.11661331458301  C 12.288223353123353 46.15895857241669  11.248759785596743 44.961890144708796  10.507437505613279 43.52540803145931  C 10.185123471840194 42.85504971194288  9.927272230989512 42.13680865531814  9.733883806114921 41.37068486158509  C 9.540495381240332 40.60456106785203  9.443801168803034 39.88632001122728  9.443801168803034 39.21596169171086  C 9.443801168803034 39.21596169171086  9.443801168803034 38.68925158351938  9.443801168803034 38.68925158351938  L 3.7871901100804326 38.641368846411076  C 3.7871901100804326 38.641368846411076  3.3520661541126056 38.35407242376118  3.3520661541126056 38.35407242376118  C 2.9652893043634263 38.0986978182394  2.6993800357312914 37.41237862440732  2.554338717075349 36.295114728103584  C 2.4092973984194064 35.177850831799844  1.9822314010719388 30.166124378239125  1.2731404944959783 21.259935276092335  C 1.0475206731601892 18.450814638185076  0.8541321906513577 16.008795045660957  0.6929751737648157 13.933876498519975  C 0.5318181568782736 11.890879654345776  0.3948347046279036 10.18306206125886  0.282024793960009 8.810423627930156  C 0.16921488329211443 7.437785194601454  0.09669421531900697 6.384364932553964  0.06446281021267132 5.650162978781297  C 0 4.915961025008628  -0.01611570255316783 4.469055459637456  0.01611570255316783 4.309446339748447  C 0.01611570255316783 3.8944626029215286  0.0402892571033476 3.591205283123706  0.08863636332199507 3.3996743346904417  C 0.1369834695406425 3.208143386257177  0.2417355195663889 2.9527687807354015  0.40289253645293094 2.633550540957384  C 0.5962809613275207 2.218566804130466  0.8702479349893507 1.8195440101160107  1.224793388277331 1.436482113249482  C 1.5793388415653113 1.0534202163829536  1.9499998893422557 0.7661237937330572  2.336776739091435 0.5745928452997928  C 2.8847105942003086 0.2872964226498964  3.7710743772692887 0.11970684277079018  4.995867765546619 0.0718241056624741  C 6.22066115382395 0.02394136855415803  11.039256411736698 0  19.451652893781354 0  C 21.93347095152873 0  24.141320721553566 0  26.075204970299463 0  C 28.009089219045364 0  29.652890830479375 0.00798045570904709  31.006609804601503 0.023941368554158036  C 32.36032877872363 0.039902281399268984  33.407849428830126 0.04788273710831607  34.14917170881359 0.04788273710831607  C 34.89049398879705 0.07980456279853797  35.293386554067105 0.09576547421663215  35.35784936427977 0.09576547421663215  C 36.03470885134084 0.22345277697751967  36.671279098588826 0.5187296367852451  37.26756005991635 0.9815961107204794  C 37.86384102124387 1.4444625846557138  38.30702284361727 1.9951140614013483  38.59710548092915 2.633550540957384  C 38.75826249781569 2.9527687807354015  38.86301456513171 3.208143386257177  38.911361671350356 3.3996743346904417  C 38.959708777569006 3.591205283123706  38.983882330678334 3.8944626029215286  38.983882330678334 4.309446339748447  C 39.01611373578467 4.469055459637456  38.99999803467236 4.915961025008628  38.935535224459684 5.650162978781297  C 38.903303819353354 6.384364932553964  38.83078315714367 7.437785194601454  38.71797324647577 8.810423627930156  C 38.60516333580787 10.18306206125886  38.46817986050381 11.890879654345776  38.30702284361727 13.933876498519975  C 38.14586582673072 16.008795045660957  37.952477390329285 18.450814638185076  37.726857568993495 21.259935276092335  C 37.017766662417536 30.166124378239125  36.59070057285529 35.177850831799844  36.44565925419934 36.295114728103584  C 36.30061793554339 37.41237862440732  36.03470885134084 38.0986978182394  35.647932001591656 38.35407242376118  C 35.647932001591656 38.35407242376118  35.212808045623824 38.641368846411076  35.212808045623824 38.641368846411076  L 29.55619661804208 38.68925158351938  C 29.55619661804208 38.68925158351938  29.55619661804208 39.263844428819176  29.55619661804208 39.263844428819176  C 29.55619661804208 39.39153173158006  29.540080916929767 39.59902358857739  29.507849511823434 39.88632001122728  C 29.4756181067171 40.173616433877186  29.44338670449247 40.42899103939896  29.411155299386134 40.65244380496034  C 29.088841265613055 42.59967517491791  28.242766929840418 44.307492768004835  26.872932222907146 45.775896675550165  C 25.503097515973874 47.244300583095495  23.835123919081916 48.23387716522221  21.869008204713726 48.74462637626576  C 21.41776856204215 48.87231367902665  20.773140494495976 48.952118236117116  19.935123955967825 48.98404006180734  Z M 19.741735531093237 45.56042435856274  C 20.4508264376692 45.54446344571763  21.063223085700475 45.44071751579195  21.578925567401843 45.24918656735869  C 22.86818170249418 44.83420283053177  23.915702398708063 44.1000008767591  24.721487471613923 43.04658066037615  C 25.527272544519786 41.9931604439932  25.978510757862168 40.82801381058114  26.075204970299463 39.55114085146907  C 26.075204970299463 39.55114085146907  26.12355207651811 38  26.12355207651811 38  L 12.924793554263948 38  C 12.924793554263948 38  12.924793554263948 39.31172716592749  12.924793554263948 39.31172716592749  C 12.924793554263948 39.4713362858165  12.94090925537626 39.67882814281383  12.973140660482597 39.9342027483356  C 13.005372065588931 40.18957735385737  13.053719168925866 40.42899103939896  13.118181979138539 40.65244380496034  C 13.408264616450422 41.83355128985578  13.972314158263048 42.83908876913041  14.8103306967912 43.66905624278425  C 15.648347235319353 44.499023716438096  16.663636465910947 45.07361653890562  17.85619838856599 45.392834778683635  C 18.404132243674862 45.52052208144452  19.03264462451728 45.57638527140785  19.741735531093237 45.56042435856274  Z M 9.443801168803034 35.241694511720624  C 9.443801168803034 35.241694511720624  9.443801168803034 30.836482697755546  9.443801168803034 30.836482697755546  C 9.443801168803034 29.400000584506067  9.451859019359194 28.282736688202334  9.467974721912361 27.48469110017343  C 9.484090424465528 26.686645512144516  9.508263976133996 26.25570084962933  9.540495381240332 26.191857198248893  C 9.604958191453003 26.03224807835988  9.725825951236198 25.856678038490678  9.903098677880187 25.665147090057417  C 10.080371404524177 25.47361614162415  10.249586276289442 25.329967930299198  10.410743293175985 25.23420245608257  C 10.571900310062526 25.138436981865937  10.805577986277042 25.09055424475762  11.111776333346373 25.09055424475762  C 11.417974680415705 25.09055424475762  11.683883764618269 25.138436981865937  11.909503585954056 25.23420245608257  C 12.102892010828647 25.298046107463016  12.288223318542808 25.433713853089795  12.465496045186798 25.641205721503255  C 12.642768771830788 25.848697589916718  12.763636531613981 26.080130804052065  12.828099341826652 26.335505409573837  C 12.86033074693299 26.43127088379047  12.884504298601456 26.894137312061172  12.900620001154623 27.724104785715006  C 12.916735703707793 28.554072259368844  12.924793554263948 29.639414270047645  12.924793554263948 30.980130909080497  C 12.924793554263948 30.980130909080497  12.924793554263948 35  12.924793554263948 35  L 26.075204970299463 35  C 26.075204970299463 35  26.075204970299463 30.980130909080497  26.075204970299463 30.980130909080497  C 26.075204970299463 29.639414270047645  26.08326282085562 28.554072259368844  26.099378523408788 27.724104785715006  C 26.115494225961953 26.894137312061172  26.13966777763042 26.43127088379047  26.171899182736755 26.335505409573837  C 26.236361992949426 26.080130804052065  26.357229752732625 25.848697589916718  26.534502479376616 25.641205721503255  C 26.711775206020604 25.433713853089795  26.897105776016474 25.298046107463016  27.09049420089106 25.23420245608257  C 27.316114022226845 25.138436981865937  27.573965263077536 25.09055424475762  27.86404790038942 25.09055424475762  C 28.154130537701302 25.09055424475762  28.39586606879454 25.138436981865937  28.589254493669127 25.23420245608257  C 28.750411510555672 25.329967930299198  28.91962638232094 25.46563568163405  29.09689910896493 25.641205721503255  C 29.27417183560892 25.81677576137246  29.395039595392113 26.000326249815625  29.45950240560478 26.191857198248893  C 29.491733810711114 26.25570084962933  29.515907362379586 26.686645512144516  29.532023064932755 27.48469110017343  C 29.548138767485923 28.282736688202334  29.55619661804208 29.400000584506067  29.55619661804208 30.836482697755546  C 29.55619661804208 30.836482697755546  29.55619661804208 35.241694511720624  29.55619661804208 35.241694511720624  C 29.55619661804208 35.241694511720624  31.345039548132036 35.241694511720624  31.345039548132036 35.241694511720624  C 32.0218990351931 35.241694511720624  32.489254387622125 35.23371405601158  32.747105628472816 35.21775314316647  C 33.0049568693235 35.20179223032136  33.13388247822199 35.177850863194216  33.13388247822199 35.14592903750399  C 33.13388247822199 35.11400721181377  33.16611388044661 34.6830626092333  33.230576690659284 33.853095135579466  C 33.29503950087195 33.05504954755055  33.38367586419395 31.95374659405928  33.496485774861846 30.54918627510565  C 33.609295685529744 29.144625956152023  33.74627916083381 27.516612985798353  33.90743617772035 25.665147090057417  C 34.0685931946069 23.781759491349696  34.22975022302028 21.786645384283812  34.390907239906824 19.679804951517905  C 34.584295664781415 17.221824507510398  34.7615683914254 15.035179452011246  34.92272540831194 13.119869967678605  C 35.08388242519849 11.204560483345961  35.21280804562384 9.592508364475677  35.30950225806113 8.28371351973868  C 35.406196470498415 6.974918675001683  35.47065927782938 5.9693812413915825  35.50289068293571 5.267101081914768  C 35.53512208804205 4.564820922437953  35.551237789154364 4.19771995411372  35.551237789154364 4.165798128423498  C 35.51900638404803 4.101954477043055  35.47065928071109 4.03013037138058  35.406196470498415 3.950325811436076  C 35.34173366028575 3.8705212514915712  35.26115515184247 3.7827362315569695  35.16446093940518 3.6869707573403376  C 35.16446093940518 3.6869707573403376  34.8743783020933 4  34.8743783020933 4  L 4.1256198536109645 4  C 4.1256198536109645 4  3.8355372162990804 3.6869707573403376  3.8355372162990804 3.6869707573403376  C 3.7388430038617853 3.7827362315569695  3.658264495418514 3.8705212514915712  3.593801685205843 3.950325811436076  C 3.529338874993172 4.03013037138058  3.480991771656236 4.101954477043055  3.4487603665499007 4.165798128423498  C 3.4487603665499007 4.19771995411372  3.464876067662212 4.564820922437953  3.4971074727685476 5.267101081914768  C 3.529338877874883 5.9693812413915825  3.593801685205843 6.974918675001683  3.690495897643138 8.28371351973868  C 3.787190110080432 9.592508364475677  3.9161157305057754 11.204560483345961  4.077272747392318 13.119869967678605  C 4.23842976427886 15.035179452011246  4.41570249092285 17.221824507510398  4.60909091579744 19.679804951517905  C 4.770247932683982 21.786645384283812  4.931404961097371 23.781759491349696  5.092561977983913 25.665147090057417  C 5.253718994870456 27.516612985798353  5.3907024701745225 29.144625956152023  5.503512380842417 30.54918627510565  C 5.616322291510311 31.95374659405928  5.704958654832308 33.05504954755055  5.769421465044979 33.853095135579466  C 5.83388427525765 34.6830626092333  5.866115677482273 35.11400721181377  5.866115677482273 35.14592903750399  C 5.866115677482273 35.177850863194216  5.995040917521619 35.20179223032136  6.252892158372305 35.21775314316647  C 6.5107433992229895 35.23371405601158  6.978098751652017 35.241694511720624  7.654958238713081 35.241694511720624  C 7.654958238713081 35.241694511720624  9.443801168803034 35.241694511720624  9.443801168803034 35.241694511720624  Z " fill-rule="nonzero" fill="rgba(0, 0, 0, 1)" stroke="none" transform="matrix(1 0 0 1 1582 187 )" class="fill" />
    <path d="M 19.935123955967825 48.98404006180734  C 19.097107417439677 49.01596188749756  18.45247934989351 49.00000097607946  18.00123970722193 48.936157324699025  C 16.421900842602923 48.680782719177245  14.963429835745321 48.07426805674934  13.625826594434336 47.11661331458301  C 12.288223353123353 46.15895857241669  11.248759785596743 44.961890144708796  10.507437505613279 43.52540803145931  C 10.185123471840194 42.85504971194288  9.927272230989512 42.13680865531814  9.733883806114921 41.37068486158509  C 9.540495381240332 40.60456106785203  9.443801168803034 39.88632001122728  9.443801168803034 39.21596169171086  C 9.443801168803034 39.21596169171086  9.443801168803034 38.68925158351938  9.443801168803034 38.68925158351938  L 3.7871901100804326 38.641368846411076  C 3.7871901100804326 38.641368846411076  3.3520661541126056 38.35407242376118  3.3520661541126056 38.35407242376118  C 2.9652893043634263 38.0986978182394  2.6993800357312914 37.41237862440732  2.554338717075349 36.295114728103584  C 2.4092973984194064 35.177850831799844  1.9822314010719388 30.166124378239125  1.2731404944959783 21.259935276092335  C 1.0475206731601892 18.450814638185076  0.8541321906513577 16.008795045660957  0.6929751737648157 13.933876498519975  C 0.5318181568782736 11.890879654345776  0.3948347046279036 10.18306206125886  0.282024793960009 8.810423627930156  C 0.16921488329211443 7.437785194601454  0.09669421531900697 6.384364932553964  0.06446281021267132 5.650162978781297  C 0 4.915961025008628  -0.01611570255316783 4.469055459637456  0.01611570255316783 4.309446339748447  C 0.01611570255316783 3.8944626029215286  0.0402892571033476 3.591205283123706  0.08863636332199507 3.3996743346904417  C 0.1369834695406425 3.208143386257177  0.2417355195663889 2.9527687807354015  0.40289253645293094 2.633550540957384  C 0.5962809613275207 2.218566804130466  0.8702479349893507 1.8195440101160107  1.224793388277331 1.436482113249482  C 1.5793388415653113 1.0534202163829536  1.9499998893422557 0.7661237937330572  2.336776739091435 0.5745928452997928  C 2.8847105942003086 0.2872964226498964  3.7710743772692887 0.11970684277079018  4.995867765546619 0.0718241056624741  C 6.22066115382395 0.02394136855415803  11.039256411736698 0  19.451652893781354 0  C 21.93347095152873 0  24.141320721553566 0  26.075204970299463 0  C 28.009089219045364 0  29.652890830479375 0.00798045570904709  31.006609804601503 0.023941368554158036  C 32.36032877872363 0.039902281399268984  33.407849428830126 0.04788273710831607  34.14917170881359 0.04788273710831607  C 34.89049398879705 0.07980456279853797  35.293386554067105 0.09576547421663215  35.35784936427977 0.09576547421663215  C 36.03470885134084 0.22345277697751967  36.671279098588826 0.5187296367852451  37.26756005991635 0.9815961107204794  C 37.86384102124387 1.4444625846557138  38.30702284361727 1.9951140614013483  38.59710548092915 2.633550540957384  C 38.75826249781569 2.9527687807354015  38.86301456513171 3.208143386257177  38.911361671350356 3.3996743346904417  C 38.959708777569006 3.591205283123706  38.983882330678334 3.8944626029215286  38.983882330678334 4.309446339748447  C 39.01611373578467 4.469055459637456  38.99999803467236 4.915961025008628  38.935535224459684 5.650162978781297  C 38.903303819353354 6.384364932553964  38.83078315714367 7.437785194601454  38.71797324647577 8.810423627930156  C 38.60516333580787 10.18306206125886  38.46817986050381 11.890879654345776  38.30702284361727 13.933876498519975  C 38.14586582673072 16.008795045660957  37.952477390329285 18.450814638185076  37.726857568993495 21.259935276092335  C 37.017766662417536 30.166124378239125  36.59070057285529 35.177850831799844  36.44565925419934 36.295114728103584  C 36.30061793554339 37.41237862440732  36.03470885134084 38.0986978182394  35.647932001591656 38.35407242376118  C 35.647932001591656 38.35407242376118  35.212808045623824 38.641368846411076  35.212808045623824 38.641368846411076  L 29.55619661804208 38.68925158351938  C 29.55619661804208 38.68925158351938  29.55619661804208 39.263844428819176  29.55619661804208 39.263844428819176  C 29.55619661804208 39.39153173158006  29.540080916929767 39.59902358857739  29.507849511823434 39.88632001122728  C 29.4756181067171 40.173616433877186  29.44338670449247 40.42899103939896  29.411155299386134 40.65244380496034  C 29.088841265613055 42.59967517491791  28.242766929840418 44.307492768004835  26.872932222907146 45.775896675550165  C 25.503097515973874 47.244300583095495  23.835123919081916 48.23387716522221  21.869008204713726 48.74462637626576  C 21.41776856204215 48.87231367902665  20.773140494495976 48.952118236117116  19.935123955967825 48.98404006180734  Z " stroke-width="0" stroke-dasharray="0" stroke="rgba(121, 121, 121, 1)" fill="none" transform="matrix(1 0 0 1 1582 187 )" class="stroke" mask="url(#Clip24)" />
    <path d="M 19.741735531093237 45.56042435856274  C 20.4508264376692 45.54446344571763  21.063223085700475 45.44071751579195  21.578925567401843 45.24918656735869  C 22.86818170249418 44.83420283053177  23.915702398708063 44.1000008767591  24.721487471613923 43.04658066037615  C 25.527272544519786 41.9931604439932  25.978510757862168 40.82801381058114  26.075204970299463 39.55114085146907  C 26.075204970299463 39.55114085146907  26.12355207651811 38  26.12355207651811 38  L 12.924793554263948 38  C 12.924793554263948 38  12.924793554263948 39.31172716592749  12.924793554263948 39.31172716592749  C 12.924793554263948 39.4713362858165  12.94090925537626 39.67882814281383  12.973140660482597 39.9342027483356  C 13.005372065588931 40.18957735385737  13.053719168925866 40.42899103939896  13.118181979138539 40.65244380496034  C 13.408264616450422 41.83355128985578  13.972314158263048 42.83908876913041  14.8103306967912 43.66905624278425  C 15.648347235319353 44.499023716438096  16.663636465910947 45.07361653890562  17.85619838856599 45.392834778683635  C 18.404132243674862 45.52052208144452  19.03264462451728 45.57638527140785  19.741735531093237 45.56042435856274  Z " stroke-width="0" stroke-dasharray="0" stroke="rgba(121, 121, 121, 1)" fill="none" transform="matrix(1 0 0 1 1582 187 )" class="stroke" mask="url(#Clip24)" />
    <path d="M 9.443801168803034 35.241694511720624  C 9.443801168803034 35.241694511720624  9.443801168803034 30.836482697755546  9.443801168803034 30.836482697755546  C 9.443801168803034 29.400000584506067  9.451859019359194 28.282736688202334  9.467974721912361 27.48469110017343  C 9.484090424465528 26.686645512144516  9.508263976133996 26.25570084962933  9.540495381240332 26.191857198248893  C 9.604958191453003 26.03224807835988  9.725825951236198 25.856678038490678  9.903098677880187 25.665147090057417  C 10.080371404524177 25.47361614162415  10.249586276289442 25.329967930299198  10.410743293175985 25.23420245608257  C 10.571900310062526 25.138436981865937  10.805577986277042 25.09055424475762  11.111776333346373 25.09055424475762  C 11.417974680415705 25.09055424475762  11.683883764618269 25.138436981865937  11.909503585954056 25.23420245608257  C 12.102892010828647 25.298046107463016  12.288223318542808 25.433713853089795  12.465496045186798 25.641205721503255  C 12.642768771830788 25.848697589916718  12.763636531613981 26.080130804052065  12.828099341826652 26.335505409573837  C 12.86033074693299 26.43127088379047  12.884504298601456 26.894137312061172  12.900620001154623 27.724104785715006  C 12.916735703707793 28.554072259368844  12.924793554263948 29.639414270047645  12.924793554263948 30.980130909080497  C 12.924793554263948 30.980130909080497  12.924793554263948 35  12.924793554263948 35  L 26.075204970299463 35  C 26.075204970299463 35  26.075204970299463 30.980130909080497  26.075204970299463 30.980130909080497  C 26.075204970299463 29.639414270047645  26.08326282085562 28.554072259368844  26.099378523408788 27.724104785715006  C 26.115494225961953 26.894137312061172  26.13966777763042 26.43127088379047  26.171899182736755 26.335505409573837  C 26.236361992949426 26.080130804052065  26.357229752732625 25.848697589916718  26.534502479376616 25.641205721503255  C 26.711775206020604 25.433713853089795  26.897105776016474 25.298046107463016  27.09049420089106 25.23420245608257  C 27.316114022226845 25.138436981865937  27.573965263077536 25.09055424475762  27.86404790038942 25.09055424475762  C 28.154130537701302 25.09055424475762  28.39586606879454 25.138436981865937  28.589254493669127 25.23420245608257  C 28.750411510555672 25.329967930299198  28.91962638232094 25.46563568163405  29.09689910896493 25.641205721503255  C 29.27417183560892 25.81677576137246  29.395039595392113 26.000326249815625  29.45950240560478 26.191857198248893  C 29.491733810711114 26.25570084962933  29.515907362379586 26.686645512144516  29.532023064932755 27.48469110017343  C 29.548138767485923 28.282736688202334  29.55619661804208 29.400000584506067  29.55619661804208 30.836482697755546  C 29.55619661804208 30.836482697755546  29.55619661804208 35.241694511720624  29.55619661804208 35.241694511720624  C 29.55619661804208 35.241694511720624  31.345039548132036 35.241694511720624  31.345039548132036 35.241694511720624  C 32.0218990351931 35.241694511720624  32.489254387622125 35.23371405601158  32.747105628472816 35.21775314316647  C 33.0049568693235 35.20179223032136  33.13388247822199 35.177850863194216  33.13388247822199 35.14592903750399  C 33.13388247822199 35.11400721181377  33.16611388044661 34.6830626092333  33.230576690659284 33.853095135579466  C 33.29503950087195 33.05504954755055  33.38367586419395 31.95374659405928  33.496485774861846 30.54918627510565  C 33.609295685529744 29.144625956152023  33.74627916083381 27.516612985798353  33.90743617772035 25.665147090057417  C 34.0685931946069 23.781759491349696  34.22975022302028 21.786645384283812  34.390907239906824 19.679804951517905  C 34.584295664781415 17.221824507510398  34.7615683914254 15.035179452011246  34.92272540831194 13.119869967678605  C 35.08388242519849 11.204560483345961  35.21280804562384 9.592508364475677  35.30950225806113 8.28371351973868  C 35.406196470498415 6.974918675001683  35.47065927782938 5.9693812413915825  35.50289068293571 5.267101081914768  C 35.53512208804205 4.564820922437953  35.551237789154364 4.19771995411372  35.551237789154364 4.165798128423498  C 35.51900638404803 4.101954477043055  35.47065928071109 4.03013037138058  35.406196470498415 3.950325811436076  C 35.34173366028575 3.8705212514915712  35.26115515184247 3.7827362315569695  35.16446093940518 3.6869707573403376  C 35.16446093940518 3.6869707573403376  34.8743783020933 4  34.8743783020933 4  L 4.1256198536109645 4  C 4.1256198536109645 4  3.8355372162990804 3.6869707573403376  3.8355372162990804 3.6869707573403376  C 3.7388430038617853 3.7827362315569695  3.658264495418514 3.8705212514915712  3.593801685205843 3.950325811436076  C 3.529338874993172 4.03013037138058  3.480991771656236 4.101954477043055  3.4487603665499007 4.165798128423498  C 3.4487603665499007 4.19771995411372  3.464876067662212 4.564820922437953  3.4971074727685476 5.267101081914768  C 3.529338877874883 5.9693812413915825  3.593801685205843 6.974918675001683  3.690495897643138 8.28371351973868  C 3.787190110080432 9.592508364475677  3.9161157305057754 11.204560483345961  4.077272747392318 13.119869967678605  C 4.23842976427886 15.035179452011246  4.41570249092285 17.221824507510398  4.60909091579744 19.679804951517905  C 4.770247932683982 21.786645384283812  4.931404961097371 23.781759491349696  5.092561977983913 25.665147090057417  C 5.253718994870456 27.516612985798353  5.3907024701745225 29.144625956152023  5.503512380842417 30.54918627510565  C 5.616322291510311 31.95374659405928  5.704958654832308 33.05504954755055  5.769421465044979 33.853095135579466  C 5.83388427525765 34.6830626092333  5.866115677482273 35.11400721181377  5.866115677482273 35.14592903750399  C 5.866115677482273 35.177850863194216  5.995040917521619 35.20179223032136  6.252892158372305 35.21775314316647  C 6.5107433992229895 35.23371405601158  6.978098751652017 35.241694511720624  7.654958238713081 35.241694511720624  C 7.654958238713081 35.241694511720624  9.443801168803034 35.241694511720624  9.443801168803034 35.241694511720624  Z " stroke-width="0" stroke-dasharray="0" stroke="rgba(121, 121, 121, 1)" fill="none" transform="matrix(1 0 0 1 1582 187 )" class="stroke" mask="url(#Clip24)" />
  </g>
</svg>