<?xml version="1.0" encoding="utf-8"?>
<svg version="1.1" xmlns:xlink="http://www.w3.org/1999/xlink" width="49px" height="49px" xmlns="http://www.w3.org/2000/svg">
  <defs>
    <pattern id="BGPattern" patternUnits="userSpaceOnUse" alignment="0 0" imageRepeat="None" />
    <mask fill="white" id="Clip23">
      <path d="M 24.909222948438632 0.0957953561775885  C 24.766884531590414 0.03193178348924677  24.62454611474219 0  24.482207697893973 0  C 24.482207697893973 0  24.476276930878797 0  24.46441539578794 0  C 24.452553860697087 0  24.446623093681918 0  24.446623093681918 0  C 24.351730812955093 0  24.25090777051561 0.015965891744623387  24.144153957879443 0.04789767808879425  C 24.03740014524328 0.07982946443296511  23.9365771028038 0.12772713966683524  23.841684822076974 0.191590712355177  C 23.841684822076974 0.191590712355177  23.592592592592588 0.383181424710354  23.094408133623816 0.766362849420708  C 22.596223674655047 1.149544274131062  22.228516092141124 1.4209644537741282  21.991285403050107 1.58062337693021  C 21.801500841596457 1.7402823000862921  21.5998547567175 1.8999412346620703  21.38634713144517 2.0596001578181524  C 21.172839506172835 2.2192590809742345  20.947470340507135 2.410849804749108  20.71023965141612 2.6343722948836836  C 17.22294843863471 5.6998236925665156  14.186395455376339 8.621582055982964  11.600580973129992 11.39964738513303  C 9.03848946986202 14.209644560580674  6.903413217138707 16.899897358091188  5.1953522149600575 19.470406143094863  C 3.487291212781408 22.04091492809853  2.2062454611474216 24.53957701325387  1.3522149600580973 26.96639276399116  C 0.49818445896877267 29.36127666843087  0.04744614036341205 31.692297062990573  0 33.95945376495512  C 0 34.02331733764346  0 34.079197960177105  0 34.1270956382659  C 0 34.174993316354694  0 34.21490804714371  0 34.24683983348788  C 0 35.0132026829086  0.04151537440874131 35.76359965485929  0.12454611474219317 36.498030703661215  C 0.207576855075645 37.23246175246313  0.32026143790849665 37.93496104632505  0.46259985475671744 38.60552853956816  C 0.46259985475671744 38.60552853956816  0.4270152505446623 38.50973318339057  0.4270152505446623 38.50973318339057  C 0.6879690204224208 39.787004568639226  1.055676602936345 40.96049768181469  1.5301379811183733 42.03021252291695  C 2.0045993593004012 43.09992736401921  2.562091503267973 44.06586384169071  3.2026143790849666 44.928022047289005  C 5.076736912834704 47.45063315420388  7.128782331900225 48.791768083591634  9.358750907770514 48.951427006747714  C 11.588719483640801 49.1110859299038  13.723795736364115 48.72790453945253  15.76397966594045 47.801882732616654  C 17.80416359551678 46.87586092578078  19.618978410331597 45.710350819858505  21.208424110384893 44.30535223213467  C 22.821592789416567 42.900353644410856  23.924715587862522 41.89450245022496  24.517792302106024 41.28779851254064  C 25.110869016349525 41.926434205164966  26.202130189561807 42.94825132249965  27.791575889615103 44.353249910223475  C 29.3810215896684 45.726316651649725  31.201767081355563 46.88384393303396  33.25381263616558 47.825831571661055  C 35.30585819097559 48.76781921028815  37.446865120571246 49.14301771910289  39.676833696441534 48.951427006747714  C 41.90680227231182 48.791768083591634  43.94698620188816 47.45063315420388  45.79738562091503 44.928022047289005  C 46.43790849673202 44.06586384169071  46.99540064069959 43.107910279914826  47.46986201888162 42.05416136196134  C 47.944323397063656 41.00041244400787  48.30016945615226 39.8668340930256  48.537400145243275 38.65342621765696  C 48.537400145243275 38.65342621765696  48.57298474945534 38.55763086147937  48.57298474945534 38.55763086147937  C 48.715323166303556 37.91899516885504  48.82207697893972 37.24044471403752  48.893246187363836 36.52197954270561  C 48.964415395787945 35.8035143713737  48.99999999999999 35.07706623846739  48.99999999999999 34.34263518966547  C 48.99999999999999 34.27877161697713  48.99999999999999 34.214908049998634  48.99999999999999 34.1510444773103  C 48.99999999999999 34.08718090462195  48.99999999999999 34.03928322938809  48.99999999999999 34.007351443043916  C 48.95255385963658 31.708262894781793  48.50181554103122 29.36127666843087  47.647785039941894 26.96639276399116  C 46.79375453885257 24.571508859551454  45.518639599835424 22.080829598934145  43.82244008714597 19.494354982139257  C 42.1262405744565 16.90788036534437  39.98523350911635 14.209644560580674  37.39941902687001 11.39964738513303  C 34.81360454462366 8.621582055982964  31.777051561365283 5.6998236925665156  28.289760348583876 2.6343722948836836  C 28.123698867916975 2.4747133717276015  27.92798354475067 2.3070714984168217  27.702614379084967 2.1314466749513437  C 27.477245213419263 1.9558218514858663  27.234083762615594 1.7722140892853873  26.973129992737835 1.58062337693021  C 26.783345431284186 1.4528962315535268  26.463084010343746 1.2213907912642534  26.01234567901234 0.8861070446426936  C 25.561607347680937 0.5508232980211338  25.336238198983295 0.383181424710354  25.336238198983295 0.383181424710354  C 25.193899782135073 0.2554542793336705  25.05156136528685 0.15965892886593022  24.909222948438632 0.0957953561775885  Z M 15.443718228031951 46.02966864333127  C 13.854272527978656 46.82796324769199  12.241103848946986 47.22711059555113  10.604212055192447 47.22711059555113  C 10.58048898501074 47.22711059555113  10.550835148874363 47.22711059555113  10.515250544662308 47.22711059555113  C 10.479665940450253 47.22711059555113  10.438150570283527 47.22711059555113  10.390704429920115 47.22711059555113  C 9.15710477198737 47.22711059555113  8.000605202967824 46.91577568797396  6.921205519244734 46.29310587281964  C 5.841805835521645 45.67043605766531  4.910675381263616 44.816260767962625  4.127814088598402 43.73058009506914  C 3.5584604212055186 42.964217245648435  3.066206740917463 42.110041955945746  2.6510530137981116 41.16805431731865  C 2.23589928667876 40.22606667869155  1.9215686274509804 39.22819835472249  1.708061002178649 38.17444943676901  C 1.708061002178649 38.17444943676901  1.708061002178649 38.07865408059143  1.708061002178649 38.07865408059143  C 1.5657225853304284 37.5038819435259  1.4648995386489334 36.89717800584157  1.40559186637618 36.25854231321724  C 1.3462841941034265 35.619906620592914  1.316630355846042 34.965305004819804  1.316630355846042 34.294737511576685  C 1.316630355846042 34.26280572523251  1.316630355846042 34.222890994443496  1.316630355846042 34.174993316354694  C 1.316630355846042 34.1270956382659  1.316630355846042 34.07121501573226  1.316630355846042 34.007351443043916  C 1.3403534260277479 31.931785453434546  1.7792302106027593 29.744458093141226  2.633260711692084 27.445369544879103  C 3.487291212781409 25.178212842914558  4.744613849692527 22.79929477026606  6.405228758169933 20.30861550964876  C 8.065843666647341 17.817936249031458  10.153473825669408 15.231461632236568  12.668119099491648 12.54919165926409  C 15.159041394335508 9.834989839994039  18.07697893972404 7.009026832755176  21.42193173565722 4.071302637547511  C 21.635439360929556 3.8797119251923347  21.84301622448923 3.712070051881554  22.04466230936819 3.568377017615171  C 22.246308394247148 3.4246839833487885  22.442023717413452 3.2730079989277083  22.6318082788671 3.1133490757716262  C 22.86903896795812 2.9536901526155437  23.23674655047204 2.69025291170748  23.73493100944081 2.323037387306521  C 24.233115468409583 1.9558218629055628  24.482207697893973 1.7722140892853873  24.482207697893973 1.7722140892853873  C 24.482207697893973 1.7722140892853873  24.511861536151354 1.7881799810300107  24.571169208424113 1.8201117673741813  C 24.63047688069686 1.8520435537183522  24.67199225298459 1.8680094454629754  24.695715323166297 1.8680094454629754  C 24.719438393348003 1.8999412318071462  24.950738331331404 2.075566058127548  25.389615105301374 2.394883904439712  C 25.82849187927135 2.7142017507518768  26.154684095860564 2.9536901526155437  26.36819172113289 3.1133490757716262  C 26.581699346405227 3.2730079989277083  26.777414669571524 3.4246839833487885  26.955337690631804 3.568377017615171  C 27.13326071169208 3.712070051881554  27.340837575251754 3.8956778255017293  27.578068264342775 4.119200315636305  C 30.923021060275964 7.056924510843971  33.85282023089817 9.866921686291615  36.36746550472041 12.54919165926409  C 38.85838779956427 15.231461632236568  40.9400871459695 17.817936249031458  42.61256354393609 20.30861550964876  C 44.28503994190269 22.79929477026606  45.53643183406921 25.178212842914558  46.36673928830791 27.445369544879103  C 47.22076978939724 29.744458093141226  47.6715081080026 31.931785453434546  47.71895424836601 34.007351443043916  C 47.71895424836601 34.03928322938809  47.71895424836601 34.079197960177105  47.71895424836601 34.1270956382659  C 47.71895424836601 34.174993316354694  47.71895424836601 34.230873938888344  47.71895424836601 34.294737511576685  C 47.71895424836601 34.965305004819804  47.68336964415395 35.627889536488524  47.61220043572985 36.28249115226164  C 47.54103122730574 36.93709276803476  47.434277414669566 37.56774549908469  47.29193899782135 38.17444943676901  C 47.29193899782135 38.17444943676901  47.3275236020334 38.07865408059143  47.3275236020334 38.07865408059143  C 47.090292912942395 39.16433475348491  46.764100713321234 40.17816900060277  46.34894698620188 41.12015663922986  C 45.933793259082535 42.06214427785695  45.45340110221979 42.91631956755964  44.90777051561365 43.68268241698035  C 43.05737109658677 46.173361677597654  40.9816024270539 47.35483774092781  38.68046477850399 47.22711059555113  C 36.379327129954085 47.09938345017444  34.21459694989106 46.46873066202603  32.18627450980392 45.33515231104376  C 30.157952069716774 44.201573960061474  28.455821880154964 42.94825132249965  27.079883805374 41.57518458107341  C 25.680222751614657 40.20211783964716  24.956669088802045 39.499618531510635  24.909222948438632 39.46768674516646  C 24.86177680807522 39.40382317247811  24.802469135802472 39.35592549724425  24.73129992737836 39.323993710900076  C 24.66013071895425 39.2920619245559  24.588961510530137 39.27609603281128  24.517792302106024 39.27609603281128  C 24.422900021379203 39.27609603281128  24.339869281045747 39.2920619245559  24.268700072621638 39.323993710900076  C 24.197530864197528 39.35592549724425  24.138223191924777 39.40382317247811  24.090777051561364 39.46768674516646  C 24.067053981379658 39.499618531510635  23.651900243655266 39.9147317711144  22.84531590413943 40.71302637547511  C 22.062454611474216 41.543252826133404  21.036431901941455 42.43734278667171  19.767247639796658 43.39529634844759  C 18.498063377651857 44.353249910223475  17.05688690706362 45.23137403897056  15.443718228031951 46.02966864333127  Z " fill-rule="evenodd" />
    </mask>
  </defs>
  <g transform="matrix(1 0 0 1 -1477 -187 )">
    <path d="M 24.909222948438632 0.0957953561775885  C 24.766884531590414 0.03193178348924677  24.62454611474219 0  24.482207697893973 0  C 24.482207697893973 0  24.476276930878797 0  24.46441539578794 0  C 24.452553860697087 0  24.446623093681918 0  24.446623093681918 0  C 24.351730812955093 0  24.25090777051561 0.015965891744623387  24.144153957879443 0.04789767808879425  C 24.03740014524328 0.07982946443296511  23.9365771028038 0.12772713966683524  23.841684822076974 0.191590712355177  C 23.841684822076974 0.191590712355177  23.592592592592588 0.383181424710354  23.094408133623816 0.766362849420708  C 22.596223674655047 1.149544274131062  22.228516092141124 1.4209644537741282  21.991285403050107 1.58062337693021  C 21.801500841596457 1.7402823000862921  21.5998547567175 1.8999412346620703  21.38634713144517 2.0596001578181524  C 21.172839506172835 2.2192590809742345  20.947470340507135 2.410849804749108  20.71023965141612 2.6343722948836836  C 17.22294843863471 5.6998236925665156  14.186395455376339 8.621582055982964  11.600580973129992 11.39964738513303  C 9.03848946986202 14.209644560580674  6.903413217138707 16.899897358091188  5.1953522149600575 19.470406143094863  C 3.487291212781408 22.04091492809853  2.2062454611474216 24.53957701325387  1.3522149600580973 26.96639276399116  C 0.49818445896877267 29.36127666843087  0.04744614036341205 31.692297062990573  0 33.95945376495512  C 0 34.02331733764346  0 34.079197960177105  0 34.1270956382659  C 0 34.174993316354694  0 34.21490804714371  0 34.24683983348788  C 0 35.0132026829086  0.04151537440874131 35.76359965485929  0.12454611474219317 36.498030703661215  C 0.207576855075645 37.23246175246313  0.32026143790849665 37.93496104632505  0.46259985475671744 38.60552853956816  C 0.46259985475671744 38.60552853956816  0.4270152505446623 38.50973318339057  0.4270152505446623 38.50973318339057  C 0.6879690204224208 39.787004568639226  1.055676602936345 40.96049768181469  1.5301379811183733 42.03021252291695  C 2.0045993593004012 43.09992736401921  2.562091503267973 44.06586384169071  3.2026143790849666 44.928022047289005  C 5.076736912834704 47.45063315420388  7.128782331900225 48.791768083591634  9.358750907770514 48.951427006747714  C 11.588719483640801 49.1110859299038  13.723795736364115 48.72790453945253  15.76397966594045 47.801882732616654  C 17.80416359551678 46.87586092578078  19.618978410331597 45.710350819858505  21.208424110384893 44.30535223213467  C 22.821592789416567 42.900353644410856  23.924715587862522 41.89450245022496  24.517792302106024 41.28779851254064  C 25.110869016349525 41.926434205164966  26.202130189561807 42.94825132249965  27.791575889615103 44.353249910223475  C 29.3810215896684 45.726316651649725  31.201767081355563 46.88384393303396  33.25381263616558 47.825831571661055  C 35.30585819097559 48.76781921028815  37.446865120571246 49.14301771910289  39.676833696441534 48.951427006747714  C 41.90680227231182 48.791768083591634  43.94698620188816 47.45063315420388  45.79738562091503 44.928022047289005  C 46.43790849673202 44.06586384169071  46.99540064069959 43.107910279914826  47.46986201888162 42.05416136196134  C 47.944323397063656 41.00041244400787  48.30016945615226 39.8668340930256  48.537400145243275 38.65342621765696  C 48.537400145243275 38.65342621765696  48.57298474945534 38.55763086147937  48.57298474945534 38.55763086147937  C 48.715323166303556 37.91899516885504  48.82207697893972 37.24044471403752  48.893246187363836 36.52197954270561  C 48.964415395787945 35.8035143713737  48.99999999999999 35.07706623846739  48.99999999999999 34.34263518966547  C 48.99999999999999 34.27877161697713  48.99999999999999 34.214908049998634  48.99999999999999 34.1510444773103  C 48.99999999999999 34.08718090462195  48.99999999999999 34.03928322938809  48.99999999999999 34.007351443043916  C 48.95255385963658 31.708262894781793  48.50181554103122 29.36127666843087  47.647785039941894 26.96639276399116  C 46.79375453885257 24.571508859551454  45.518639599835424 22.080829598934145  43.82244008714597 19.494354982139257  C 42.1262405744565 16.90788036534437  39.98523350911635 14.209644560580674  37.39941902687001 11.39964738513303  C 34.81360454462366 8.621582055982964  31.777051561365283 5.6998236925665156  28.289760348583876 2.6343722948836836  C 28.123698867916975 2.4747133717276015  27.92798354475067 2.3070714984168217  27.702614379084967 2.1314466749513437  C 27.477245213419263 1.9558218514858663  27.234083762615594 1.7722140892853873  26.973129992737835 1.58062337693021  C 26.783345431284186 1.4528962315535268  26.463084010343746 1.2213907912642534  26.01234567901234 0.8861070446426936  C 25.561607347680937 0.5508232980211338  25.336238198983295 0.383181424710354  25.336238198983295 0.383181424710354  C 25.193899782135073 0.2554542793336705  25.05156136528685 0.15965892886593022  24.909222948438632 0.0957953561775885  Z M 15.443718228031951 46.02966864333127  C 13.854272527978656 46.82796324769199  12.241103848946986 47.22711059555113  10.604212055192447 47.22711059555113  C 10.58048898501074 47.22711059555113  10.550835148874363 47.22711059555113  10.515250544662308 47.22711059555113  C 10.479665940450253 47.22711059555113  10.438150570283527 47.22711059555113  10.390704429920115 47.22711059555113  C 9.15710477198737 47.22711059555113  8.000605202967824 46.91577568797396  6.921205519244734 46.29310587281964  C 5.841805835521645 45.67043605766531  4.910675381263616 44.816260767962625  4.127814088598402 43.73058009506914  C 3.5584604212055186 42.964217245648435  3.066206740917463 42.110041955945746  2.6510530137981116 41.16805431731865  C 2.23589928667876 40.22606667869155  1.9215686274509804 39.22819835472249  1.708061002178649 38.17444943676901  C 1.708061002178649 38.17444943676901  1.708061002178649 38.07865408059143  1.708061002178649 38.07865408059143  C 1.5657225853304284 37.5038819435259  1.4648995386489334 36.89717800584157  1.40559186637618 36.25854231321724  C 1.3462841941034265 35.619906620592914  1.316630355846042 34.965305004819804  1.316630355846042 34.294737511576685  C 1.316630355846042 34.26280572523251  1.316630355846042 34.222890994443496  1.316630355846042 34.174993316354694  C 1.316630355846042 34.1270956382659  1.316630355846042 34.07121501573226  1.316630355846042 34.007351443043916  C 1.3403534260277479 31.931785453434546  1.7792302106027593 29.744458093141226  2.633260711692084 27.445369544879103  C 3.487291212781409 25.178212842914558  4.744613849692527 22.79929477026606  6.405228758169933 20.30861550964876  C 8.065843666647341 17.817936249031458  10.153473825669408 15.231461632236568  12.668119099491648 12.54919165926409  C 15.159041394335508 9.834989839994039  18.07697893972404 7.009026832755176  21.42193173565722 4.071302637547511  C 21.635439360929556 3.8797119251923347  21.84301622448923 3.712070051881554  22.04466230936819 3.568377017615171  C 22.246308394247148 3.4246839833487885  22.442023717413452 3.2730079989277083  22.6318082788671 3.1133490757716262  C 22.86903896795812 2.9536901526155437  23.23674655047204 2.69025291170748  23.73493100944081 2.323037387306521  C 24.233115468409583 1.9558218629055628  24.482207697893973 1.7722140892853873  24.482207697893973 1.7722140892853873  C 24.482207697893973 1.7722140892853873  24.511861536151354 1.7881799810300107  24.571169208424113 1.8201117673741813  C 24.63047688069686 1.8520435537183522  24.67199225298459 1.8680094454629754  24.695715323166297 1.8680094454629754  C 24.719438393348003 1.8999412318071462  24.950738331331404 2.075566058127548  25.389615105301374 2.394883904439712  C 25.82849187927135 2.7142017507518768  26.154684095860564 2.9536901526155437  26.36819172113289 3.1133490757716262  C 26.581699346405227 3.2730079989277083  26.777414669571524 3.4246839833487885  26.955337690631804 3.568377017615171  C 27.13326071169208 3.712070051881554  27.340837575251754 3.8956778255017293  27.578068264342775 4.119200315636305  C 30.923021060275964 7.056924510843971  33.85282023089817 9.866921686291615  36.36746550472041 12.54919165926409  C 38.85838779956427 15.231461632236568  40.9400871459695 17.817936249031458  42.61256354393609 20.30861550964876  C 44.28503994190269 22.79929477026606  45.53643183406921 25.178212842914558  46.36673928830791 27.445369544879103  C 47.22076978939724 29.744458093141226  47.6715081080026 31.931785453434546  47.71895424836601 34.007351443043916  C 47.71895424836601 34.03928322938809  47.71895424836601 34.079197960177105  47.71895424836601 34.1270956382659  C 47.71895424836601 34.174993316354694  47.71895424836601 34.230873938888344  47.71895424836601 34.294737511576685  C 47.71895424836601 34.965305004819804  47.68336964415395 35.627889536488524  47.61220043572985 36.28249115226164  C 47.54103122730574 36.93709276803476  47.434277414669566 37.56774549908469  47.29193899782135 38.17444943676901  C 47.29193899782135 38.17444943676901  47.3275236020334 38.07865408059143  47.3275236020334 38.07865408059143  C 47.090292912942395 39.16433475348491  46.764100713321234 40.17816900060277  46.34894698620188 41.12015663922986  C 45.933793259082535 42.06214427785695  45.45340110221979 42.91631956755964  44.90777051561365 43.68268241698035  C 43.05737109658677 46.173361677597654  40.9816024270539 47.35483774092781  38.68046477850399 47.22711059555113  C 36.379327129954085 47.09938345017444  34.21459694989106 46.46873066202603  32.18627450980392 45.33515231104376  C 30.157952069716774 44.201573960061474  28.455821880154964 42.94825132249965  27.079883805374 41.57518458107341  C 25.680222751614657 40.20211783964716  24.956669088802045 39.499618531510635  24.909222948438632 39.46768674516646  C 24.86177680807522 39.40382317247811  24.802469135802472 39.35592549724425  24.73129992737836 39.323993710900076  C 24.66013071895425 39.2920619245559  24.588961510530137 39.27609603281128  24.517792302106024 39.27609603281128  C 24.422900021379203 39.27609603281128  24.339869281045747 39.2920619245559  24.268700072621638 39.323993710900076  C 24.197530864197528 39.35592549724425  24.138223191924777 39.40382317247811  24.090777051561364 39.46768674516646  C 24.067053981379658 39.499618531510635  23.651900243655266 39.9147317711144  22.84531590413943 40.71302637547511  C 22.062454611474216 41.543252826133404  21.036431901941455 42.43734278667171  19.767247639796658 43.39529634844759  C 18.498063377651857 44.353249910223475  17.05688690706362 45.23137403897056  15.443718228031951 46.02966864333127  Z " fill-rule="nonzero" fill="rgba(0, 0, 0, 1)" stroke="none" transform="matrix(1 0 0 1 1477 187 )" class="fill" />
    <path d="M 24.909222948438632 0.0957953561775885  C 24.766884531590414 0.03193178348924677  24.62454611474219 0  24.482207697893973 0  C 24.482207697893973 0  24.476276930878797 0  24.46441539578794 0  C 24.452553860697087 0  24.446623093681918 0  24.446623093681918 0  C 24.351730812955093 0  24.25090777051561 0.015965891744623387  24.144153957879443 0.04789767808879425  C 24.03740014524328 0.07982946443296511  23.9365771028038 0.12772713966683524  23.841684822076974 0.191590712355177  C 23.841684822076974 0.191590712355177  23.592592592592588 0.383181424710354  23.094408133623816 0.766362849420708  C 22.596223674655047 1.149544274131062  22.228516092141124 1.4209644537741282  21.991285403050107 1.58062337693021  C 21.801500841596457 1.7402823000862921  21.5998547567175 1.8999412346620703  21.38634713144517 2.0596001578181524  C 21.172839506172835 2.2192590809742345  20.947470340507135 2.410849804749108  20.71023965141612 2.6343722948836836  C 17.22294843863471 5.6998236925665156  14.186395455376339 8.621582055982964  11.600580973129992 11.39964738513303  C 9.03848946986202 14.209644560580674  6.903413217138707 16.899897358091188  5.1953522149600575 19.470406143094863  C 3.487291212781408 22.04091492809853  2.2062454611474216 24.53957701325387  1.3522149600580973 26.96639276399116  C 0.49818445896877267 29.36127666843087  0.04744614036341205 31.692297062990573  0 33.95945376495512  C 0 34.02331733764346  0 34.079197960177105  0 34.1270956382659  C 0 34.174993316354694  0 34.21490804714371  0 34.24683983348788  C 0 35.0132026829086  0.04151537440874131 35.76359965485929  0.12454611474219317 36.498030703661215  C 0.207576855075645 37.23246175246313  0.32026143790849665 37.93496104632505  0.46259985475671744 38.60552853956816  C 0.46259985475671744 38.60552853956816  0.4270152505446623 38.50973318339057  0.4270152505446623 38.50973318339057  C 0.6879690204224208 39.787004568639226  1.055676602936345 40.96049768181469  1.5301379811183733 42.03021252291695  C 2.0045993593004012 43.09992736401921  2.562091503267973 44.06586384169071  3.2026143790849666 44.928022047289005  C 5.076736912834704 47.45063315420388  7.128782331900225 48.791768083591634  9.358750907770514 48.951427006747714  C 11.588719483640801 49.1110859299038  13.723795736364115 48.72790453945253  15.76397966594045 47.801882732616654  C 17.80416359551678 46.87586092578078  19.618978410331597 45.710350819858505  21.208424110384893 44.30535223213467  C 22.821592789416567 42.900353644410856  23.924715587862522 41.89450245022496  24.517792302106024 41.28779851254064  C 25.110869016349525 41.926434205164966  26.202130189561807 42.94825132249965  27.791575889615103 44.353249910223475  C 29.3810215896684 45.726316651649725  31.201767081355563 46.88384393303396  33.25381263616558 47.825831571661055  C 35.30585819097559 48.76781921028815  37.446865120571246 49.14301771910289  39.676833696441534 48.951427006747714  C 41.90680227231182 48.791768083591634  43.94698620188816 47.45063315420388  45.79738562091503 44.928022047289005  C 46.43790849673202 44.06586384169071  46.99540064069959 43.107910279914826  47.46986201888162 42.05416136196134  C 47.944323397063656 41.00041244400787  48.30016945615226 39.8668340930256  48.537400145243275 38.65342621765696  C 48.537400145243275 38.65342621765696  48.57298474945534 38.55763086147937  48.57298474945534 38.55763086147937  C 48.715323166303556 37.91899516885504  48.82207697893972 37.24044471403752  48.893246187363836 36.52197954270561  C 48.964415395787945 35.8035143713737  48.99999999999999 35.07706623846739  48.99999999999999 34.34263518966547  C 48.99999999999999 34.27877161697713  48.99999999999999 34.214908049998634  48.99999999999999 34.1510444773103  C 48.99999999999999 34.08718090462195  48.99999999999999 34.03928322938809  48.99999999999999 34.007351443043916  C 48.95255385963658 31.708262894781793  48.50181554103122 29.36127666843087  47.647785039941894 26.96639276399116  C 46.79375453885257 24.571508859551454  45.518639599835424 22.080829598934145  43.82244008714597 19.494354982139257  C 42.1262405744565 16.90788036534437  39.98523350911635 14.209644560580674  37.39941902687001 11.39964738513303  C 34.81360454462366 8.621582055982964  31.777051561365283 5.6998236925665156  28.289760348583876 2.6343722948836836  C 28.123698867916975 2.4747133717276015  27.92798354475067 2.3070714984168217  27.702614379084967 2.1314466749513437  C 27.477245213419263 1.9558218514858663  27.234083762615594 1.7722140892853873  26.973129992737835 1.58062337693021  C 26.783345431284186 1.4528962315535268  26.463084010343746 1.2213907912642534  26.01234567901234 0.8861070446426936  C 25.561607347680937 0.5508232980211338  25.336238198983295 0.383181424710354  25.336238198983295 0.383181424710354  C 25.193899782135073 0.2554542793336705  25.05156136528685 0.15965892886593022  24.909222948438632 0.0957953561775885  Z " stroke-width="0" stroke-dasharray="0" stroke="rgba(121, 121, 121, 1)" fill="none" transform="matrix(1 0 0 1 1477 187 )" class="stroke" mask="url(#Clip23)" />
    <path d="M 15.443718228031951 46.02966864333127  C 13.854272527978656 46.82796324769199  12.241103848946986 47.22711059555113  10.604212055192447 47.22711059555113  C 10.58048898501074 47.22711059555113  10.550835148874363 47.22711059555113  10.515250544662308 47.22711059555113  C 10.479665940450253 47.22711059555113  10.438150570283527 47.22711059555113  10.390704429920115 47.22711059555113  C 9.15710477198737 47.22711059555113  8.000605202967824 46.91577568797396  6.921205519244734 46.29310587281964  C 5.841805835521645 45.67043605766531  4.910675381263616 44.816260767962625  4.127814088598402 43.73058009506914  C 3.5584604212055186 42.964217245648435  3.066206740917463 42.110041955945746  2.6510530137981116 41.16805431731865  C 2.23589928667876 40.22606667869155  1.9215686274509804 39.22819835472249  1.708061002178649 38.17444943676901  C 1.708061002178649 38.17444943676901  1.708061002178649 38.07865408059143  1.708061002178649 38.07865408059143  C 1.5657225853304284 37.5038819435259  1.4648995386489334 36.89717800584157  1.40559186637618 36.25854231321724  C 1.3462841941034265 35.619906620592914  1.316630355846042 34.965305004819804  1.316630355846042 34.294737511576685  C 1.316630355846042 34.26280572523251  1.316630355846042 34.222890994443496  1.316630355846042 34.174993316354694  C 1.316630355846042 34.1270956382659  1.316630355846042 34.07121501573226  1.316630355846042 34.007351443043916  C 1.3403534260277479 31.931785453434546  1.7792302106027593 29.744458093141226  2.633260711692084 27.445369544879103  C 3.487291212781409 25.178212842914558  4.744613849692527 22.79929477026606  6.405228758169933 20.30861550964876  C 8.065843666647341 17.817936249031458  10.153473825669408 15.231461632236568  12.668119099491648 12.54919165926409  C 15.159041394335508 9.834989839994039  18.07697893972404 7.009026832755176  21.42193173565722 4.071302637547511  C 21.635439360929556 3.8797119251923347  21.84301622448923 3.712070051881554  22.04466230936819 3.568377017615171  C 22.246308394247148 3.4246839833487885  22.442023717413452 3.2730079989277083  22.6318082788671 3.1133490757716262  C 22.86903896795812 2.9536901526155437  23.23674655047204 2.69025291170748  23.73493100944081 2.323037387306521  C 24.233115468409583 1.9558218629055628  24.482207697893973 1.7722140892853873  24.482207697893973 1.7722140892853873  C 24.482207697893973 1.7722140892853873  24.511861536151354 1.7881799810300107  24.571169208424113 1.8201117673741813  C 24.63047688069686 1.8520435537183522  24.67199225298459 1.8680094454629754  24.695715323166297 1.8680094454629754  C 24.719438393348003 1.8999412318071462  24.950738331331404 2.075566058127548  25.389615105301374 2.394883904439712  C 25.82849187927135 2.7142017507518768  26.154684095860564 2.9536901526155437  26.36819172113289 3.1133490757716262  C 26.581699346405227 3.2730079989277083  26.777414669571524 3.4246839833487885  26.955337690631804 3.568377017615171  C 27.13326071169208 3.712070051881554  27.340837575251754 3.8956778255017293  27.578068264342775 4.119200315636305  C 30.923021060275964 7.056924510843971  33.85282023089817 9.866921686291615  36.36746550472041 12.54919165926409  C 38.85838779956427 15.231461632236568  40.9400871459695 17.817936249031458  42.61256354393609 20.30861550964876  C 44.28503994190269 22.79929477026606  45.53643183406921 25.178212842914558  46.36673928830791 27.445369544879103  C 47.22076978939724 29.744458093141226  47.6715081080026 31.931785453434546  47.71895424836601 34.007351443043916  C 47.71895424836601 34.03928322938809  47.71895424836601 34.079197960177105  47.71895424836601 34.1270956382659  C 47.71895424836601 34.174993316354694  47.71895424836601 34.230873938888344  47.71895424836601 34.294737511576685  C 47.71895424836601 34.965305004819804  47.68336964415395 35.627889536488524  47.61220043572985 36.28249115226164  C 47.54103122730574 36.93709276803476  47.434277414669566 37.56774549908469  47.29193899782135 38.17444943676901  C 47.29193899782135 38.17444943676901  47.3275236020334 38.07865408059143  47.3275236020334 38.07865408059143  C 47.090292912942395 39.16433475348491  46.764100713321234 40.17816900060277  46.34894698620188 41.12015663922986  C 45.933793259082535 42.06214427785695  45.45340110221979 42.91631956755964  44.90777051561365 43.68268241698035  C 43.05737109658677 46.173361677597654  40.9816024270539 47.35483774092781  38.68046477850399 47.22711059555113  C 36.379327129954085 47.09938345017444  34.21459694989106 46.46873066202603  32.18627450980392 45.33515231104376  C 30.157952069716774 44.201573960061474  28.455821880154964 42.94825132249965  27.079883805374 41.57518458107341  C 25.680222751614657 40.20211783964716  24.956669088802045 39.499618531510635  24.909222948438632 39.46768674516646  C 24.86177680807522 39.40382317247811  24.802469135802472 39.35592549724425  24.73129992737836 39.323993710900076  C 24.66013071895425 39.2920619245559  24.588961510530137 39.27609603281128  24.517792302106024 39.27609603281128  C 24.422900021379203 39.27609603281128  24.339869281045747 39.2920619245559  24.268700072621638 39.323993710900076  C 24.197530864197528 39.35592549724425  24.138223191924777 39.40382317247811  24.090777051561364 39.46768674516646  C 24.067053981379658 39.499618531510635  23.651900243655266 39.9147317711144  22.84531590413943 40.71302637547511  C 22.062454611474216 41.543252826133404  21.036431901941455 42.43734278667171  19.767247639796658 43.39529634844759  C 18.498063377651857 44.353249910223475  17.05688690706362 45.23137403897056  15.443718228031951 46.02966864333127  Z " stroke-width="0" stroke-dasharray="0" stroke="rgba(121, 121, 121, 1)" fill="none" transform="matrix(1 0 0 1 1477 187 )" class="stroke" mask="url(#Clip23)" />
  </g>
</svg>