<?xml version="1.0" encoding="utf-8"?>
<svg version="1.1" xmlns:xlink="http://www.w3.org/1999/xlink" width="44px" height="45px" xmlns="http://www.w3.org/2000/svg">
  <defs>
    <pattern id="BGPattern" patternUnits="userSpaceOnUse" alignment="0 0" imageRepeat="None" />
    <mask fill="white" id="Clip25">
      <path d="M 20.987547374120197 44.992017472119606  C 20.511099079588522 44.97605436450458  20.16170365602569 44.95210970522283  19.939361126150516 44.92018348999275  C 19.748781808337846 44.88825727476267  19.4549720115641 44.8164232897814  19.05793178126692 44.704681543612196  C 18.660891550969744 44.59293979744299  18.287673712680323 44.47321649389823  17.93827828911749 44.34551163297792  C 15.968958732303443 43.675061133127286  14.277567195840701 42.59755140122447  12.86410395235517 41.11298243726949  C 11.450640708869642 39.6284134733145  10.426276830188895 37.83256392014316  9.79101245262588 35.725433777755434  C 9.632196358235127 35.18268815024281  9.52896589063346 34.72773957393732  9.481321061180292 34.36058811734521  C 9.433676231727125 33.9934366607531  9.409853817000544 33.31500456927379  9.409853817000544 32.32529195708434  C 9.409853817000544 31.367505528726287  9.433676231727125 30.713018143626748  9.481321061180292 30.361829778950327  C 9.52896589063346 30.010641414273902  9.632196358235127 29.563674406761674  9.79101245262588 29.020928779249047  C 10.172171088251218 27.80773260621497  10.60891537338447 26.77013067260762  11.101245262587982 25.908122887085373  C 11.593575151791493 25.046115101563124  12.25266194408109 24.200070453627387  13.078505684894425 23.369988851936533  C 14.317271250676773 22.12486649507106  15.714852854052813 21.199006296215213  17.271250676773146 20.59240820969817  C 18.795885219274503 19.95388393934974  20.368164591229025 19.64260333443403  21.98808879263671 19.658566442049068  C 23.608012994044397 19.674529549664108  25.196173915233107 19.985810123181135  26.75257173795344 20.59240820969817  C 28.27720628045479 21.199006296215213  29.658906334596647 22.12486649507106  30.897671900378995 23.369988851936533  C 32.13643746616135 24.615111208802  33.05757082044337 26.019864576166057  33.6610720086627 27.584249136711968  C 34.29633638622571 29.148633697257882  34.61396859772604 30.736962735829476  34.61396859772604 32.34923661779329  C 34.61396859772604 33.961510499757104  34.312218026335195 35.5498395383287  33.70871683811586 37.114224098874615  C 33.07345246055285 38.678608659420526  32.15231910627084 40.06739888919807  30.94531672983216 41.28059506223215  C 29.738314353393488 42.49379123526622  28.428081543431386 43.40368829653556  27.01461829994586 44.01028638305261  C 25.60115505646033 44.61688446956964  24.06857973934188 44.93614659618058  22.416892257715215 44.96807281141066  C 21.94044396318354 44.99999902664074  21.463995668651872 45.00798057973465  20.987547374120197 44.992017472119606  Z M 20.17758527341635 41.520041669321664  C 21.384587649855025 41.77545139116228  22.623353215637376 41.77545139116228  23.893881970763402 41.520041669321664  C 25.32322685435842 41.23270574081425  26.61757802421103 40.62610769996802  27.77693557119654 39.70024745544136  C 28.93629311818204 38.774387210914696  29.833604057737475 37.641006634471545  30.468868435300493 36.30010563477026  C 31.199422471769836 34.703794981734596  31.461469056481086 33.03565016388881  31.25500812127775 31.29567154659943  C 31.048547186074416 29.55569292931005  30.421223605847324 27.9833268456417  29.373037357877642 26.578573386936014  C 28.54719361706431 25.49308213191076  27.459303405133852 24.615111208802  26.109366540335678 23.944660708951364  C 24.759429675537508 23.274210209100726  23.385670486888053 22.938984959175407  21.98808879263671 22.938984959175407  C 20.590507098385373 22.938984959175407  19.21674790973591 23.274210209100726  17.86681104493774 23.944660708951364  C 16.516874180139567 24.615111208802  15.428983968209112 25.49308213191076  14.603140227395778 26.578573386936014  C 13.777296486582443 27.69599091713429  13.213499375918007 28.9171686132908  12.911748781808338 30.242106475405567  C 12.609998187698672 31.567044337520333  12.586175772972087 32.89996381409917  12.840281537628588 34.24086481380045  C 13.12615051434759 35.51791335449732  13.618480403551105 36.66725706852697  14.317271250676773 37.68889595588944  C 15.016062097802445 38.67860856807889  15.865728207904713 39.50070860097649  16.866269626421225 40.15519600891143  C 17.86681104493774 40.80968341684637  18.970582896977678 41.26463194748104  20.17758527341635 41.520041669321664  Z M 23.29832160259881 15.156970228766212  C 21.884858359113284 15.236785762559766  20.526980719698013 15.212841107559669  19.224688684353005 15.08513624663936  C 17.35065878644529 14.86165275430095  15.524273536240146 14.430648838704414  13.745533297238767 13.792124568355984  C 11.93502977801841 13.153600298007554  10.235697466938575 12.331500265109952  8.647536545749865 11.325824515333995  C 7.059375624561155 10.320148765558038  5.598267460747158 9.146860390819421  4.264212236058474 7.805959391118144  C 2.930157011369789 6.465058391416867  1.7549179151500955 4.980489427461883  0.7384948565240932 3.352252499253191  C 0.3255729861174266 2.7456544127361515  0.0873488558907088 2.2667612213925317  0.02382241472658365 1.915572856716109  C -0.03970402643754151 1.5643844920396863  0.023822414726583644 1.2131961501986717  0.21440173253925285 0.862007785522249  C 0.34145461486750317 0.5746718570148326  0.5320339213207598 0.35916991063427045  0.7861396859772605 0.21550194638056225  C 1.040245450633761 0.07183398212685407  1.3419960220246039 0  1.691391445587439 0  C 2.0725500812127775 0  2.3743006753224454 0.08779708546025368  2.596643205197618 0.263391267798465  C 2.8189857350727903 0.4389854501366763  3.0730914997292906 0.7821922346021392  3.358960476448295 1.2930116782833734  C 4.089514512917644 2.5062078513174533  4.986825452473077 3.6874777491785102  6.050893340552247 4.836821463208175  C 7.114961228631417 5.986165177237841  8.21873308067136 6.975877789427286  9.362208987547374 7.805959391118144  C 10.124526258798053 8.348705018630769  11.109186037205076 8.931358444438859  12.316188413643745 9.553919622871593  C 13.523190790082417 10.17648080130433  14.539613757833123 10.6154662400233  15.365457498646455 10.870875961863918  C 16.604223064428805 11.253990533207142  17.66035008701558 11.509400243630052  18.53383865728208 11.637105104550363  C 19.407327227548585 11.764809965470672  20.55874390904169 11.828662390221972  21.98808879263671 11.828662390221972  C 23.099801510169048 11.828662390221972  23.90976356543524 11.804717729513023  24.417975094748243 11.756828408095119  C 24.926186624061245 11.708939086677216  25.482042937389764 11.621142001216963  26.085544125609097 11.493437140296654  C 27.959574023516815 11.110322568953432  29.70655116404981 10.52766918881616  31.326475365457505 9.745476908543205  C 32.94639956686519 8.96328462827025  34.47103410936654 7.997516676789756  35.90037899296156 6.848172962760089  C 36.757985923118575 6.1457962334072445  37.62353362789268 5.283788493555811  38.497022198159186 4.262149606193343  C 39.37051076842568 3.2405107188308735  40.07724239016845 2.282724290472819  40.61721710882512 1.388790321119179  C 40.871322873481624 0.8779708774379447  41.14131023280997 0.5188009896390822  41.427179209528965 0.3112805892163677  C 41.713048186247974 0.10376018879365329  42.04656199242014 0  42.42772062804548 0  C 42.68182639270198 0  42.872405699155244 0.03192621237565116  42.99945858148349 0.09577864283580544  C 43.12651146381174 0.1596310732959597  43.30120917559316 0.2873359285074163  43.52355170546833 0.47889321417902725  C 43.714131023281 0.6704504998506381  43.84118389992955 0.8380631248132977  43.90471034109367 0.9817310890670058  C 43.96823678225779 1.1253990533207139  44 1.3249378849501727  44 1.58034760679079  C 44 1.835757328631407  43.95235517054683 2.075203935720921  43.8570655116405 2.298687428059331  C 43.76177585273417 2.5221709203977407  43.555314917530836 2.889322376989859  43.23768272874933 3.400141820671093  C 42.34831260924864 4.804895279376784  41.33188955062263 6.1138700039050375  40.188413643746614 7.327066176939118  C 39.04493773687061 8.540262349973197  37.79823139647117 9.625753604998447  36.448294531672985 10.583540033356503  C 35.09835766687482 11.541326461714556  33.676953648772184 12.355444925818903  32.184082295614516 13.025895425669543  C 30.659447753113156 13.696345925520179  29.087168381158637 14.207165346366004  27.46724417975095 14.558353711042427  C 26.101425765718584 14.877615846216642  24.71178484608434 15.077154694972657  23.29832160259881 15.156970228766212  Z " fill-rule="evenodd" />
    </mask>
  </defs>
  <g transform="matrix(1 0 0 1 -1676 -189 )">
    <path d="M 20.987547374120197 44.992017472119606  C 20.511099079588522 44.97605436450458  20.16170365602569 44.95210970522283  19.939361126150516 44.92018348999275  C 19.748781808337846 44.88825727476267  19.4549720115641 44.8164232897814  19.05793178126692 44.704681543612196  C 18.660891550969744 44.59293979744299  18.287673712680323 44.47321649389823  17.93827828911749 44.34551163297792  C 15.968958732303443 43.675061133127286  14.277567195840701 42.59755140122447  12.86410395235517 41.11298243726949  C 11.450640708869642 39.6284134733145  10.426276830188895 37.83256392014316  9.79101245262588 35.725433777755434  C 9.632196358235127 35.18268815024281  9.52896589063346 34.72773957393732  9.481321061180292 34.36058811734521  C 9.433676231727125 33.9934366607531  9.409853817000544 33.31500456927379  9.409853817000544 32.32529195708434  C 9.409853817000544 31.367505528726287  9.433676231727125 30.713018143626748  9.481321061180292 30.361829778950327  C 9.52896589063346 30.010641414273902  9.632196358235127 29.563674406761674  9.79101245262588 29.020928779249047  C 10.172171088251218 27.80773260621497  10.60891537338447 26.77013067260762  11.101245262587982 25.908122887085373  C 11.593575151791493 25.046115101563124  12.25266194408109 24.200070453627387  13.078505684894425 23.369988851936533  C 14.317271250676773 22.12486649507106  15.714852854052813 21.199006296215213  17.271250676773146 20.59240820969817  C 18.795885219274503 19.95388393934974  20.368164591229025 19.64260333443403  21.98808879263671 19.658566442049068  C 23.608012994044397 19.674529549664108  25.196173915233107 19.985810123181135  26.75257173795344 20.59240820969817  C 28.27720628045479 21.199006296215213  29.658906334596647 22.12486649507106  30.897671900378995 23.369988851936533  C 32.13643746616135 24.615111208802  33.05757082044337 26.019864576166057  33.6610720086627 27.584249136711968  C 34.29633638622571 29.148633697257882  34.61396859772604 30.736962735829476  34.61396859772604 32.34923661779329  C 34.61396859772604 33.961510499757104  34.312218026335195 35.5498395383287  33.70871683811586 37.114224098874615  C 33.07345246055285 38.678608659420526  32.15231910627084 40.06739888919807  30.94531672983216 41.28059506223215  C 29.738314353393488 42.49379123526622  28.428081543431386 43.40368829653556  27.01461829994586 44.01028638305261  C 25.60115505646033 44.61688446956964  24.06857973934188 44.93614659618058  22.416892257715215 44.96807281141066  C 21.94044396318354 44.99999902664074  21.463995668651872 45.00798057973465  20.987547374120197 44.992017472119606  Z M 20.17758527341635 41.520041669321664  C 21.384587649855025 41.77545139116228  22.623353215637376 41.77545139116228  23.893881970763402 41.520041669321664  C 25.32322685435842 41.23270574081425  26.61757802421103 40.62610769996802  27.77693557119654 39.70024745544136  C 28.93629311818204 38.774387210914696  29.833604057737475 37.641006634471545  30.468868435300493 36.30010563477026  C 31.199422471769836 34.703794981734596  31.461469056481086 33.03565016388881  31.25500812127775 31.29567154659943  C 31.048547186074416 29.55569292931005  30.421223605847324 27.9833268456417  29.373037357877642 26.578573386936014  C 28.54719361706431 25.49308213191076  27.459303405133852 24.615111208802  26.109366540335678 23.944660708951364  C 24.759429675537508 23.274210209100726  23.385670486888053 22.938984959175407  21.98808879263671 22.938984959175407  C 20.590507098385373 22.938984959175407  19.21674790973591 23.274210209100726  17.86681104493774 23.944660708951364  C 16.516874180139567 24.615111208802  15.428983968209112 25.49308213191076  14.603140227395778 26.578573386936014  C 13.777296486582443 27.69599091713429  13.213499375918007 28.9171686132908  12.911748781808338 30.242106475405567  C 12.609998187698672 31.567044337520333  12.586175772972087 32.89996381409917  12.840281537628588 34.24086481380045  C 13.12615051434759 35.51791335449732  13.618480403551105 36.66725706852697  14.317271250676773 37.68889595588944  C 15.016062097802445 38.67860856807889  15.865728207904713 39.50070860097649  16.866269626421225 40.15519600891143  C 17.86681104493774 40.80968341684637  18.970582896977678 41.26463194748104  20.17758527341635 41.520041669321664  Z M 23.29832160259881 15.156970228766212  C 21.884858359113284 15.236785762559766  20.526980719698013 15.212841107559669  19.224688684353005 15.08513624663936  C 17.35065878644529 14.86165275430095  15.524273536240146 14.430648838704414  13.745533297238767 13.792124568355984  C 11.93502977801841 13.153600298007554  10.235697466938575 12.331500265109952  8.647536545749865 11.325824515333995  C 7.059375624561155 10.320148765558038  5.598267460747158 9.146860390819421  4.264212236058474 7.805959391118144  C 2.930157011369789 6.465058391416867  1.7549179151500955 4.980489427461883  0.7384948565240932 3.352252499253191  C 0.3255729861174266 2.7456544127361515  0.0873488558907088 2.2667612213925317  0.02382241472658365 1.915572856716109  C -0.03970402643754151 1.5643844920396863  0.023822414726583644 1.2131961501986717  0.21440173253925285 0.862007785522249  C 0.34145461486750317 0.5746718570148326  0.5320339213207598 0.35916991063427045  0.7861396859772605 0.21550194638056225  C 1.040245450633761 0.07183398212685407  1.3419960220246039 0  1.691391445587439 0  C 2.0725500812127775 0  2.3743006753224454 0.08779708546025368  2.596643205197618 0.263391267798465  C 2.8189857350727903 0.4389854501366763  3.0730914997292906 0.7821922346021392  3.358960476448295 1.2930116782833734  C 4.089514512917644 2.5062078513174533  4.986825452473077 3.6874777491785102  6.050893340552247 4.836821463208175  C 7.114961228631417 5.986165177237841  8.21873308067136 6.975877789427286  9.362208987547374 7.805959391118144  C 10.124526258798053 8.348705018630769  11.109186037205076 8.931358444438859  12.316188413643745 9.553919622871593  C 13.523190790082417 10.17648080130433  14.539613757833123 10.6154662400233  15.365457498646455 10.870875961863918  C 16.604223064428805 11.253990533207142  17.66035008701558 11.509400243630052  18.53383865728208 11.637105104550363  C 19.407327227548585 11.764809965470672  20.55874390904169 11.828662390221972  21.98808879263671 11.828662390221972  C 23.099801510169048 11.828662390221972  23.90976356543524 11.804717729513023  24.417975094748243 11.756828408095119  C 24.926186624061245 11.708939086677216  25.482042937389764 11.621142001216963  26.085544125609097 11.493437140296654  C 27.959574023516815 11.110322568953432  29.70655116404981 10.52766918881616  31.326475365457505 9.745476908543205  C 32.94639956686519 8.96328462827025  34.47103410936654 7.997516676789756  35.90037899296156 6.848172962760089  C 36.757985923118575 6.1457962334072445  37.62353362789268 5.283788493555811  38.497022198159186 4.262149606193343  C 39.37051076842568 3.2405107188308735  40.07724239016845 2.282724290472819  40.61721710882512 1.388790321119179  C 40.871322873481624 0.8779708774379447  41.14131023280997 0.5188009896390822  41.427179209528965 0.3112805892163677  C 41.713048186247974 0.10376018879365329  42.04656199242014 0  42.42772062804548 0  C 42.68182639270198 0  42.872405699155244 0.03192621237565116  42.99945858148349 0.09577864283580544  C 43.12651146381174 0.1596310732959597  43.30120917559316 0.2873359285074163  43.52355170546833 0.47889321417902725  C 43.714131023281 0.6704504998506381  43.84118389992955 0.8380631248132977  43.90471034109367 0.9817310890670058  C 43.96823678225779 1.1253990533207139  44 1.3249378849501727  44 1.58034760679079  C 44 1.835757328631407  43.95235517054683 2.075203935720921  43.8570655116405 2.298687428059331  C 43.76177585273417 2.5221709203977407  43.555314917530836 2.889322376989859  43.23768272874933 3.400141820671093  C 42.34831260924864 4.804895279376784  41.33188955062263 6.1138700039050375  40.188413643746614 7.327066176939118  C 39.04493773687061 8.540262349973197  37.79823139647117 9.625753604998447  36.448294531672985 10.583540033356503  C 35.09835766687482 11.541326461714556  33.676953648772184 12.355444925818903  32.184082295614516 13.025895425669543  C 30.659447753113156 13.696345925520179  29.087168381158637 14.207165346366004  27.46724417975095 14.558353711042427  C 26.101425765718584 14.877615846216642  24.71178484608434 15.077154694972657  23.29832160259881 15.156970228766212  Z " fill-rule="nonzero" fill="rgba(0, 0, 0, 1)" stroke="none" transform="matrix(1 0 0 1 1676 189 )" class="fill" />
    <path d="M 20.987547374120197 44.992017472119606  C 20.511099079588522 44.97605436450458  20.16170365602569 44.95210970522283  19.939361126150516 44.92018348999275  C 19.748781808337846 44.88825727476267  19.4549720115641 44.8164232897814  19.05793178126692 44.704681543612196  C 18.660891550969744 44.59293979744299  18.287673712680323 44.47321649389823  17.93827828911749 44.34551163297792  C 15.968958732303443 43.675061133127286  14.277567195840701 42.59755140122447  12.86410395235517 41.11298243726949  C 11.450640708869642 39.6284134733145  10.426276830188895 37.83256392014316  9.79101245262588 35.725433777755434  C 9.632196358235127 35.18268815024281  9.52896589063346 34.72773957393732  9.481321061180292 34.36058811734521  C 9.433676231727125 33.9934366607531  9.409853817000544 33.31500456927379  9.409853817000544 32.32529195708434  C 9.409853817000544 31.367505528726287  9.433676231727125 30.713018143626748  9.481321061180292 30.361829778950327  C 9.52896589063346 30.010641414273902  9.632196358235127 29.563674406761674  9.79101245262588 29.020928779249047  C 10.172171088251218 27.80773260621497  10.60891537338447 26.77013067260762  11.101245262587982 25.908122887085373  C 11.593575151791493 25.046115101563124  12.25266194408109 24.200070453627387  13.078505684894425 23.369988851936533  C 14.317271250676773 22.12486649507106  15.714852854052813 21.199006296215213  17.271250676773146 20.59240820969817  C 18.795885219274503 19.95388393934974  20.368164591229025 19.64260333443403  21.98808879263671 19.658566442049068  C 23.608012994044397 19.674529549664108  25.196173915233107 19.985810123181135  26.75257173795344 20.59240820969817  C 28.27720628045479 21.199006296215213  29.658906334596647 22.12486649507106  30.897671900378995 23.369988851936533  C 32.13643746616135 24.615111208802  33.05757082044337 26.019864576166057  33.6610720086627 27.584249136711968  C 34.29633638622571 29.148633697257882  34.61396859772604 30.736962735829476  34.61396859772604 32.34923661779329  C 34.61396859772604 33.961510499757104  34.312218026335195 35.5498395383287  33.70871683811586 37.114224098874615  C 33.07345246055285 38.678608659420526  32.15231910627084 40.06739888919807  30.94531672983216 41.28059506223215  C 29.738314353393488 42.49379123526622  28.428081543431386 43.40368829653556  27.01461829994586 44.01028638305261  C 25.60115505646033 44.61688446956964  24.06857973934188 44.93614659618058  22.416892257715215 44.96807281141066  C 21.94044396318354 44.99999902664074  21.463995668651872 45.00798057973465  20.987547374120197 44.992017472119606  Z " stroke-width="0" stroke-dasharray="0" stroke="rgba(121, 121, 121, 1)" fill="none" transform="matrix(1 0 0 1 1676 189 )" class="stroke" mask="url(#Clip25)" />
    <path d="M 20.17758527341635 41.520041669321664  C 21.384587649855025 41.77545139116228  22.623353215637376 41.77545139116228  23.893881970763402 41.520041669321664  C 25.32322685435842 41.23270574081425  26.61757802421103 40.62610769996802  27.77693557119654 39.70024745544136  C 28.93629311818204 38.774387210914696  29.833604057737475 37.641006634471545  30.468868435300493 36.30010563477026  C 31.199422471769836 34.703794981734596  31.461469056481086 33.03565016388881  31.25500812127775 31.29567154659943  C 31.048547186074416 29.55569292931005  30.421223605847324 27.9833268456417  29.373037357877642 26.578573386936014  C 28.54719361706431 25.49308213191076  27.459303405133852 24.615111208802  26.109366540335678 23.944660708951364  C 24.759429675537508 23.274210209100726  23.385670486888053 22.938984959175407  21.98808879263671 22.938984959175407  C 20.590507098385373 22.938984959175407  19.21674790973591 23.274210209100726  17.86681104493774 23.944660708951364  C 16.516874180139567 24.615111208802  15.428983968209112 25.49308213191076  14.603140227395778 26.578573386936014  C 13.777296486582443 27.69599091713429  13.213499375918007 28.9171686132908  12.911748781808338 30.242106475405567  C 12.609998187698672 31.567044337520333  12.586175772972087 32.89996381409917  12.840281537628588 34.24086481380045  C 13.12615051434759 35.51791335449732  13.618480403551105 36.66725706852697  14.317271250676773 37.68889595588944  C 15.016062097802445 38.67860856807889  15.865728207904713 39.50070860097649  16.866269626421225 40.15519600891143  C 17.86681104493774 40.80968341684637  18.970582896977678 41.26463194748104  20.17758527341635 41.520041669321664  Z " stroke-width="0" stroke-dasharray="0" stroke="rgba(121, 121, 121, 1)" fill="none" transform="matrix(1 0 0 1 1676 189 )" class="stroke" mask="url(#Clip25)" />
    <path d="M 23.29832160259881 15.156970228766212  C 21.884858359113284 15.236785762559766  20.526980719698013 15.212841107559669  19.224688684353005 15.08513624663936  C 17.35065878644529 14.86165275430095  15.524273536240146 14.430648838704414  13.745533297238767 13.792124568355984  C 11.93502977801841 13.153600298007554  10.235697466938575 12.331500265109952  8.647536545749865 11.325824515333995  C 7.059375624561155 10.320148765558038  5.598267460747158 9.146860390819421  4.264212236058474 7.805959391118144  C 2.930157011369789 6.465058391416867  1.7549179151500955 4.980489427461883  0.7384948565240932 3.352252499253191  C 0.3255729861174266 2.7456544127361515  0.0873488558907088 2.2667612213925317  0.02382241472658365 1.915572856716109  C -0.03970402643754151 1.5643844920396863  0.023822414726583644 1.2131961501986717  0.21440173253925285 0.862007785522249  C 0.34145461486750317 0.5746718570148326  0.5320339213207598 0.35916991063427045  0.7861396859772605 0.21550194638056225  C 1.040245450633761 0.07183398212685407  1.3419960220246039 0  1.691391445587439 0  C 2.0725500812127775 0  2.3743006753224454 0.08779708546025368  2.596643205197618 0.263391267798465  C 2.8189857350727903 0.4389854501366763  3.0730914997292906 0.7821922346021392  3.358960476448295 1.2930116782833734  C 4.089514512917644 2.5062078513174533  4.986825452473077 3.6874777491785102  6.050893340552247 4.836821463208175  C 7.114961228631417 5.986165177237841  8.21873308067136 6.975877789427286  9.362208987547374 7.805959391118144  C 10.124526258798053 8.348705018630769  11.109186037205076 8.931358444438859  12.316188413643745 9.553919622871593  C 13.523190790082417 10.17648080130433  14.539613757833123 10.6154662400233  15.365457498646455 10.870875961863918  C 16.604223064428805 11.253990533207142  17.66035008701558 11.509400243630052  18.53383865728208 11.637105104550363  C 19.407327227548585 11.764809965470672  20.55874390904169 11.828662390221972  21.98808879263671 11.828662390221972  C 23.099801510169048 11.828662390221972  23.90976356543524 11.804717729513023  24.417975094748243 11.756828408095119  C 24.926186624061245 11.708939086677216  25.482042937389764 11.621142001216963  26.085544125609097 11.493437140296654  C 27.959574023516815 11.110322568953432  29.70655116404981 10.52766918881616  31.326475365457505 9.745476908543205  C 32.94639956686519 8.96328462827025  34.47103410936654 7.997516676789756  35.90037899296156 6.848172962760089  C 36.757985923118575 6.1457962334072445  37.62353362789268 5.283788493555811  38.497022198159186 4.262149606193343  C 39.37051076842568 3.2405107188308735  40.07724239016845 2.282724290472819  40.61721710882512 1.388790321119179  C 40.871322873481624 0.8779708774379447  41.14131023280997 0.5188009896390822  41.427179209528965 0.3112805892163677  C 41.713048186247974 0.10376018879365329  42.04656199242014 0  42.42772062804548 0  C 42.68182639270198 0  42.872405699155244 0.03192621237565116  42.99945858148349 0.09577864283580544  C 43.12651146381174 0.1596310732959597  43.30120917559316 0.2873359285074163  43.52355170546833 0.47889321417902725  C 43.714131023281 0.6704504998506381  43.84118389992955 0.8380631248132977  43.90471034109367 0.9817310890670058  C 43.96823678225779 1.1253990533207139  44 1.3249378849501727  44 1.58034760679079  C 44 1.835757328631407  43.95235517054683 2.075203935720921  43.8570655116405 2.298687428059331  C 43.76177585273417 2.5221709203977407  43.555314917530836 2.889322376989859  43.23768272874933 3.400141820671093  C 42.34831260924864 4.804895279376784  41.33188955062263 6.1138700039050375  40.188413643746614 7.327066176939118  C 39.04493773687061 8.540262349973197  37.79823139647117 9.625753604998447  36.448294531672985 10.583540033356503  C 35.09835766687482 11.541326461714556  33.676953648772184 12.355444925818903  32.184082295614516 13.025895425669543  C 30.659447753113156 13.696345925520179  29.087168381158637 14.207165346366004  27.46724417975095 14.558353711042427  C 26.101425765718584 14.877615846216642  24.71178484608434 15.077154694972657  23.29832160259881 15.156970228766212  Z " stroke-width="0" stroke-dasharray="0" stroke="rgba(121, 121, 121, 1)" fill="none" transform="matrix(1 0 0 1 1676 189 )" class="stroke" mask="url(#Clip25)" />
  </g>
</svg>